<?xml version="1.0" standalone="no"?>
<!DOCTYPE svg PUBLIC "-//W3C//DTD SVG 1.1//EN" "http://www.w3.org/Graphics/SVG/1.1/DTD/svg11.dtd" >
<svg>
<metadata>
Created by FontForge 20090914 at Thu Feb 23 23:21:29 2012
 By root
</metadata>
<defs>
<font id="NafeesWebNaskh" horiz-adv-x="367" >
  <font-face 
    font-family="Nafees Web Naskh"
    font-weight="400"
    font-stretch="normal"
    units-per-em="2048"
    panose-1="2 0 0 0 0 0 0 0 0 0"
    ascent="1638"
    descent="-410"
    x-height="796"
    cap-height="1221"
    bbox="-198.562 -957.333 2200 1749.51"
    underline-thickness="102"
    underline-position="-154"
    unicode-range="U+0020-U+FEFB"
  />
<missing-glyph horiz-adv-x="169" 
 />
    <glyph glyph-name="sf300.001" unicode="&#x628;" arabic-form="initial" 
d="M195 216q-21 -5 -51 -7.5t-62 -4.5t-62.5 -3t-54.5 -1v-200q23 -1 54.5 0.5t64.5 5.5t63.5 11t50.5 17l40 85t31 70t20 65.5t7 71.5q1 50 -13 108t-33.5 112.5t-40 100l-32.5 70.5q-2 5 -8 6t-9 -6l-35 -78.5l-35 -77.5q-9 -17 0 -34q12 -35 30.5 -74t35.5 -78.5
t28.5 -80t10.5 -78.5zM22 -323q-5 -8 -6 -13t5 -13q8 -11 25 -27.5t36.5 -33.5t39 -32t32.5 -22q17 -11 27 7q23 31 47 60t46 61q5 6 6 10.5t-4 9.5q-24 25 -60.5 53t-72.5 59q-6 5 -12 5.5t-14 -9.5q-6 -6 -19.5 -22.5l-28.5 -34.5l-28.5 -34.5t-18.5 -23.5z" />
    <glyph glyph-name="sf277.017" unicode="&#x628;" horiz-adv-x="673" arabic-form="medial" 
d="M338 219q4 -53 26 -91.5t55 -64t74.5 -40t84.5 -19.5q61 -10 127 2q0 15 0.5 42.5l1 57.5t1 56.5t0.5 39.5q-20 0 -39 1t-36 4q-33 6 -74 15.5t-75.5 28.5t-56.5 49.5t-18 77.5q0 9 -5 12t-14 -7q-30 -33 -72.5 -65.5t-91 -58t-101 -41.5t-101.5 -16q-11 0 -25 -0.5
t-34 1.5v-205q57 -1 112.5 14t104 43.5t89 70t67.5 93.5zM46 -350q-5 -8 -6 -13t5 -13q8 -11 25 -27.5t36.5 -33.5t39 -32t32.5 -22q17 -11 27 7q23 31 47 60t46 61q5 6 6 10.5t-4 9.5q-24 25 -60.5 53t-72.5 59q-6 5 -12 5.5t-14 -9.5q-6 -6 -19.5 -22.5l-28.5 -34.5
l-28.5 -34.5t-18.5 -23.5z" />
    <glyph glyph-name="sf277.002" unicode="&#x628;" horiz-adv-x="1738" arabic-form="final" 
d="M1770 6q0 15 0.5 42.5l1 56.5l1 55.5t0.5 39.5q-60 3 -111 13t-88 36t-57.5 71.5t-18.5 120.5q0 15 -6 16.5t-18 -6.5l-62.5 -39.5t-61 -35t-62.5 -31.5t-68 -29q-81 -32 -157 -56.5t-150.5 -41t-150 -26t-154.5 -11.5q-54 -2 -111.5 4.5t-112 22.5t-103 41t-83.5 60.5
t-53 81.5t-12 103q4 41 11 81t25 92q2 11 -1.5 15.5t-8.5 4.5t-11 -5t-10 -14q-16 -33 -29.5 -75.5t-22.5 -85.5t-13 -82t-2 -66q-1 -104 38.5 -173t106.5 -111t153 -60.5t177 -20.5t180.5 9.5t162.5 28.5q146 34 278.5 91t256.5 141q-2 -75 17 -124.5t53.5 -79.5t83 -43.5
t104.5 -16.5q43 -1 88 6zM611 -364q-5 -8 -6 -13t5 -13q8 -11 25 -27.5t36.5 -33.5t39 -32t32.5 -22q17 -11 27 7q23 31 47 60t46 61q5 6 6 10.5t-4 9.5q-24 25 -60.5 53t-72.5 59q-6 5 -12 5.5t-14 -9.5q-6 -6 -19.5 -22.5l-28.5 -34.5l-28.5 -34.5t-18.5 -23.5z" />
    <glyph glyph-name="sf300.002" unicode="&#x67e;" horiz-adv-x="447" arabic-form="initial" 
d="M275 216q-21 -5 -63.5 -8t-89.5 -5t-90.5 -2.5t-66.5 -0.5v-200q23 -1 67 0.5t92 5.5t91 11t63 17l40 85t31 70t20 65.5t7 71.5q1 50 -13 108t-33.5 112.5t-40 100l-32.5 70.5q-2 5 -8 6t-9 -6l-35 -78.5l-35 -77.5q-9 -17 0 -34q12 -36 30.5 -74.5t35.5 -78t28.5 -79.5
t10.5 -79zM154 -540q-5 -8 -6 -13t4 -13q8 -11 25 -27.5t37 -33.5t39.5 -32t32.5 -22q16 -11 27 6q23 32 47 60.5t46 61.5q5 6 6 10.5t-5 9.5q-23 25 -60 53t-73 59q-5 5 -11.5 5.5t-14.5 -9.5l-18.5 -22.5l-28.5 -34.5l-28.5 -34.5t-18.5 -23.5zM-15 -334l31.5 -26.5
t26.5 -21t26 -18t31 -18.5q10 -6 25.5 -12.5t25.5 5.5l49 64t50 63q32 -32 62 -58.5t65 -48.5q6 -3 12 -4t14 9l49.5 63.5l49.5 63.5q5 6 3 12.5t-7 10.5l-3 2t-16 11.5t-39 31l-74 60.5q-4 4 -9.5 6.5t-13.5 -6.5l-55.5 -66.5t-29.5 -34.5q-9 -12 -11 -14t-13 2
q-12 4 -28.5 14.5t-34.5 24l-36.5 28.5l-35.5 29q-7 5 -12.5 5.5t-13.5 -8.5l-49 -67l-49 -68q-10 -19 10 -34z" />
    <glyph glyph-name="sf277.021" unicode="&#x67e;" horiz-adv-x="673" arabic-form="medial" 
d="M338 219q4 -53 26 -91.5t55 -64t74.5 -40t84.5 -19.5q61 -10 127 2q0 15 0.5 42.5l1 57.5t1 56.5t0.5 39.5q-20 0 -39 1t-36 4q-33 6 -74 15.5t-75.5 28.5t-56.5 49.5t-18 77.5q0 9 -5 12t-14 -7q-30 -33 -72.5 -65.5t-91 -58t-101 -41.5t-101.5 -16q-11 0 -25 -0.5
t-34 1.5v-205q57 -1 112.5 14t104 43.5t89 70t67.5 93.5zM185 -582q-5 -8 -6 -13t4 -13q8 -11 25 -27.5t37 -33.5t39.5 -32t32.5 -22q16 -10 27 6q23 32 47 60.5t46 61.5q5 6 6 10.5t-5 9.5q-23 25 -60 53t-73 59q-5 5 -11.5 5.5t-14.5 -9.5l-18.5 -22.5l-28.5 -34.5
l-28.5 -34.5t-18.5 -23.5zM16 -376l31.5 -26.5t26.5 -20.5l26 -18t31 -19q10 -6 25.5 -12.5t25.5 5.5l49 64t50 63q32 -32 62 -58.5t65 -48.5q6 -3 12 -4t14 9l49.5 63.5l49.5 63.5q5 6 3 12.5t-7 10.5q-1 0 -3.5 2l-15 12l-39 31l-74.5 60q-4 4 -9.5 6.5t-13.5 -6.5
l-55.5 -66.5l-29 -35t-11.5 -13.5t-12.5 1.5t-28.5 14.5t-35.5 24.5t-35 28.5t-36.5 29q-7 5 -12.5 5.5t-13.5 -8.5l-49 -67l-49 -68q-11 -19 10 -34z" />
    <glyph glyph-name="sf277.026" unicode="&#x67e;" horiz-adv-x="1738" arabic-form="final" 
d="M1770 6q0 15 0.5 42.5l1 56.5l1 55.5t0.5 39.5q-60 3 -111 13t-88 36t-57.5 71.5t-18.5 120.5q0 15 -6 16.5t-18 -6.5l-62.5 -39.5t-61 -35t-62.5 -31.5t-68 -29q-81 -32 -157 -56.5t-150.5 -41t-150 -26t-154.5 -11.5q-54 -2 -111.5 4.5t-112 22.5t-103 41t-83.5 60.5
t-53 81.5t-12 103q4 41 11 81t25 92q2 11 -1.5 15.5t-8.5 4.5t-11 -5t-10 -14q-16 -33 -29.5 -75.5t-22.5 -85.5t-13 -82t-2 -66q-1 -104 38.5 -173t106.5 -111t153 -60.5t177 -20.5t180.5 9.5t162.5 28.5q146 34 278.5 91t256.5 141q-2 -75 17 -124.5t53.5 -79.5t83 -43.5
t104.5 -16.5q43 -1 88 6zM718 -608q-5 -8 -6 -13t4 -13q8 -11 25 -27.5t37 -33.5t39.5 -32t32.5 -22q16 -10 27 6q23 32 47 60.5t46 61.5q5 6 6 10.5t-5 9.5q-23 25 -60 53t-73 59q-5 5 -11.5 5.5t-14.5 -9.5l-18.5 -22.5l-28.5 -34.5l-28.5 -34.5t-18.5 -23.5zM549 -402
l31.5 -26.5t26.5 -20.5l26 -18t31 -19q10 -6 25.5 -12.5t25.5 5.5l49 64t50 63q32 -32 62 -58.5t65 -48.5q6 -3 12 -4t14 9l49.5 63.5l49.5 63.5q5 6 3 12.5t-7 10.5q-1 0 -3.5 2l-15 12l-39 31l-74.5 60q-4 4 -9.5 6.5t-13.5 -6.5l-55.5 -66.5l-29 -35t-11.5 -13.5l-2 -2
q-21 7 -39 18t-35.5 24.5t-35 28.5t-36.5 29q-7 5 -12.5 5.5t-13.5 -8.5l-49 -67l-49 -68q-11 -19 10 -34z" />
    <glyph glyph-name="sf300.003" unicode="&#x62a;" arabic-form="initial" 
d="M195 216q-21 -5 -51 -7.5t-62 -4.5t-62.5 -3t-54.5 -1v-200q23 -1 54.5 0.5t64.5 5.5t63.5 11t50.5 17l40 85t31 70t20 65.5t7 71.5q1 50 -13 108t-33.5 112.5t-40 100l-32.5 70.5q-2 5 -8 6t-9 -6l-35 -78.5l-35 -77.5q-9 -17 0 -34q12 -35 30.5 -74t35.5 -78.5
t28.5 -80t10.5 -78.5zM-83 977l31.5 -26.5t26.5 -20.5l26 -18t31 -19q10 -7 25.5 -13t25.5 6l49 63l50 64q32 -32 62 -58.5t65 -48.5q6 -4 12 -5t15 10l48.5 63.5l49.5 63.5q5 6 3.5 12t-7.5 10q-1 1 -3.5 3l-15 12l-39 31l-74.5 60q-4 3 -9.5 5.5t-13.5 -5.5l-55.5 -67
l-29 -35t-11.5 -13t-12.5 1.5t-28.5 14.5t-35.5 24.5l-35 28t-36.5 28.5q-7 5 -12.5 6t-13.5 -8l-49 -67.5l-49 -67.5q-11 -19 10 -34z" />
    <glyph glyph-name="sf277.003" unicode="&#x62a;" horiz-adv-x="673" arabic-form="medial" 
d="M338 219q4 -53 26 -91.5t55 -64t74.5 -40t84.5 -19.5q60 -10 127 2q0 15 0.5 42.5l1 57.5t1 56.5t0.5 39.5q-20 0 -39 1t-36 4q-33 6 -74 15.5t-75.5 28.5t-56.5 49.5t-18 77.5q0 9 -5 12t-14 -7q-30 -33 -72.5 -65.5t-91 -58t-101 -41.5t-101.5 -16q-11 0 -25 -0.5
t-34 1.5v-205q57 -1 112.5 14t104 43.5t89 70t67.5 93.5zM-33 717l31.5 -26.5t26.5 -21t26 -18t31 -18.5q10 -7 25.5 -13t25.5 6l49 63l50 64q32 -32 62 -58.5t65 -48.5q6 -4 12 -5t15 10l48.5 63.5l49.5 63.5q5 6 3.5 12t-7.5 10q-1 1 -3.5 3l-15 12l-39 31l-74.5 60
q-4 3 -9.5 5.5t-13.5 -5.5l-55.5 -67t-29.5 -35q-9 -11 -11 -13t-13 1q-12 4 -28.5 14.5t-34.5 24l-36.5 28.5l-35.5 29q-7 5 -12.5 6t-13.5 -8l-49 -67.5l-49 -67.5q-10 -19 10 -34z" />
    <glyph glyph-name="sf277.027" unicode="&#x62a;" horiz-adv-x="1738" arabic-form="final" 
d="M1770 6q0 15 0.5 42.5l1 56.5l1 55.5t0.5 39.5q-60 3 -111 13t-88 36t-57.5 71.5t-18.5 120.5q0 15 -6 16.5t-18 -6.5l-62.5 -39.5t-61 -35t-62.5 -31.5t-68 -29q-81 -32 -157 -56.5t-150.5 -41t-150 -26t-154.5 -11.5q-54 -2 -111.5 4.5t-112 22.5t-103 41t-83.5 60.5
t-53 81.5t-12 103q4 41 11 81t25 92q2 11 -1.5 15.5t-8.5 4.5t-11 -5t-10 -14q-16 -33 -29.5 -75.5t-22.5 -85.5t-13 -82t-2 -66q-1 -104 38.5 -173t106.5 -111t153 -60.5t177 -20.5t180.5 9.5t162.5 28.5q146 34 278.5 91t256.5 141q-2 -75 17 -124.5t53.5 -79.5t83 -43.5
t104.5 -16.5q43 -1 88 6zM579 734l31.5 -26.5t26.5 -20.5l26 -18t31 -19q10 -7 25.5 -13t25.5 6l49 63l50 64q32 -32 62 -58.5t65 -48.5q6 -4 12 -5t15 10l48.5 63.5l49.5 63.5q5 6 3.5 12t-7.5 10q-1 1 -3.5 3l-15 12l-39 31l-74.5 60q-4 3 -9.5 5.5t-13.5 -5.5l-55.5 -67
l-29 -35t-11.5 -13l-2 -2q-21 7 -39 18t-35.5 24.5l-35 28t-36.5 28.5q-7 5 -12.5 6t-13.5 -8l-49 -67.5l-49 -67.5q-11 -19 10 -34z" />
    <glyph glyph-name="sf300.004" unicode="&#x679;" arabic-form="initial" 
d="M195 216q-21 -5 -51 -7.5t-62 -4.5t-62.5 -3t-54.5 -1v-200q23 -1 54.5 0.5t64.5 5.5t63.5 11t50.5 17l40 85t31 70t20 65.5t7 71.5q1 50 -13 108t-33.5 112.5t-40 100l-32.5 70.5q-2 5 -8 6t-9 -6l-35 -78.5l-35 -77.5q-9 -17 0 -34q12 -35 30.5 -74t35.5 -78.5
t28.5 -80t10.5 -78.5zM34 1063q-7 -9 -24 -11t-38 -3t-44.5 0t-44.5 -1q-13 -1 -15.5 -5t10.5 -10l67 -36.5t35 -18t18.5 -7t19.5 -1.5q27 0 60.5 2.5t67 8.5t65.5 16.5t56 24.5q27 24 47 53l30 43q3 48 -27.5 78t-76.5 30q-34 0 -63.5 -20t-53.5 -41q0 3 1.5 10.5t3.5 23.5
t3 45.5t0 77.5q10 13 20.5 33t19.5 46q-19 18 -36.5 38t-23.5 43q-3 6 -8 3t-8 -6q-11 -17 -21.5 -35l-20.5 -36q0 -16 9.5 -26t17.5 -24q-2 -53 0 -105.5t2 -106.5q-8 -22 -21 -43.5t-27 -39.5zM209 1140q18 1 38.5 -12.5t26.5 -40.5q-31 -15 -61.5 -21t-57.5 -7.5t-49 -1
t-36 -0.5l28 27t34 27t38 20.5t39 8.5z" />
    <glyph glyph-name="sf277.043" unicode="&#x679;" horiz-adv-x="673" arabic-form="medial" 
d="M338 219q4 -53 26 -91.5t55 -64t74.5 -40t84.5 -19.5q60 -10 127 2q0 15 0.5 42.5l1 57.5t1 56.5t0.5 39.5q-20 0 -39 1t-36 4q-33 6 -74 15.5t-75.5 28.5t-56.5 49.5t-18 77.5q0 9 -5 12t-14 -7q-30 -33 -72.5 -65.5t-91 -58t-101 -41.5t-101.5 -16q-11 0 -25 -0.5
t-34 1.5v-205q57 -1 112.5 14t104 43.5t89 70t67.5 93.5zM107 771q-6 -7 -19.5 -9t-31.5 -2.5t-37.5 0t-37.5 -0.5q-11 -1 -13 -4.5t9 -8.5l56 -30.5t29 -15.5t15.5 -5.5t16.5 -0.5q22 0 50 2t56 7.5t54.5 13.5t46.5 20q23 20 39.5 44l24.5 36q3 40 -22.5 65t-63.5 25
q-29 0 -53.5 -16.5t-44.5 -34.5q0 3 1.5 9t3 19.5t2.5 38t0 64.5q8 11 17 27.5t16 38.5q-16 15 -30.5 31.5t-19.5 35.5q-2 5 -6.5 2.5t-6.5 -4.5l-18 -29t-17 -30q0 -14 8 -22t14 -20q-1 -45 0.5 -88.5t1.5 -88.5q-7 -18 -17.5 -36t-22.5 -33zM253 835q15 1 32 -10t22 -34
q-26 -12 -51.5 -17t-48 -6.5t-40.5 -1t-30 -0.5l23.5 22.5t28.5 22.5t31.5 17t32.5 7z" />
    <glyph glyph-name="sf277.028" unicode="&#x679;" horiz-adv-x="1738" arabic-form="final" 
d="M1770 6q0 15 0.5 42.5l1 56.5l1 55.5t0.5 39.5q-60 3 -111 13t-88 36t-57.5 71.5t-18.5 120.5q0 15 -6 16.5t-18 -6.5l-62.5 -39.5t-61 -35t-62.5 -31.5t-68 -29q-81 -32 -157 -56.5t-150.5 -41t-150 -26t-154.5 -11.5q-54 -2 -111.5 4.5t-112 22.5t-103 41t-83.5 60.5
t-53 81.5t-12 103q4 41 11 81t25 92q2 11 -1.5 15.5t-8.5 4.5t-11 -5t-10 -14q-16 -33 -29.5 -75.5t-22.5 -85.5t-13 -82t-2 -66q-1 -104 38.5 -173t106.5 -111t153 -60.5t177 -20.5t180.5 9.5t162.5 28.5q146 34 278.5 91t256.5 141q-2 -75 17 -124.5t53.5 -79.5t83 -43.5
t104.5 -16.5q43 -1 88 6zM729 751q-7 -9 -24 -11t-38 -3t-44.5 0t-44.5 -1q-13 -1 -15.5 -5t10.5 -10l67 -36.5t35 -18t18.5 -7t19.5 -1.5q27 0 60.5 2.5t67 8.5t65.5 16.5t56 24.5q27 24 47 53l30 43q3 48 -27.5 78t-76.5 30q-34 0 -63.5 -20t-53.5 -41q0 3 1.5 10.5
t3.5 23.5t3 45.5t0 77.5q10 13 20.5 33t19.5 46q-19 18 -36.5 38t-23.5 43q-3 6 -8 3t-8 -6q-11 -17 -21.5 -35l-20.5 -36q0 -16 9.5 -26t17.5 -24q-2 -53 0 -105.5t2 -106.5q-8 -22 -21 -43.5t-27 -39.5zM904 828q18 1 38.5 -12.5t26.5 -40.5q-31 -15 -61.5 -21t-57.5 -7.5
t-49 -1t-36 -0.5l28 27t34 27t38 20.5t39 8.5z" />
    <glyph glyph-name="sf300.005" unicode="&#x62b;" arabic-form="initial" 
d="M195 216q-21 -5 -51 -7.5t-62 -4.5t-62.5 -3t-54.5 -1v-200q23 -1 54.5 0.5t64.5 5.5t63.5 11t50.5 17l40 85t31 70t20 65.5t7 71.5q1 50 -13 108t-33.5 112.5t-40 100l-32.5 70.5q-2 5 -8 6t-9 -6l-35 -78.5l-35 -77.5q-9 -17 0 -34q12 -35 30.5 -74t35.5 -78.5
t28.5 -80t10.5 -78.5zM-87 940l32 -26.5t26.5 -20.5l25.5 -18t31 -20q5 -3 12 -6.5t14 -5.5t13.5 -1t11.5 7l49 63l50 64q32 -32 62 -58.5t65 -48.5q6 -4 12 -5t15 9l49 63.5l49 63.5q10 13 -4 23q-1 1 -3.5 3l-15 12l-39 31l-74.5 60q-4 3 -9.5 5.5t-13.5 -5.5l-55.5 -67
l-29 -35t-11.5 -13.5t-12.5 1t-28.5 15t-35.5 25l-35 28t-36.5 28.5q-6 5 -12 5.5t-14 -7.5l-49 -67.5l-49 -68.5q-11 -18 10 -33zM12 1264q-5 -9 -6 -13.5t5 -13.5q8 -11 25 -27.5t36.5 -33.5t39 -32t32.5 -22q17 -9 27 7q23 31 47 60t46 61q5 7 6 11t-4 10
q-24 24 -60.5 52l-73.5 59q-5 5 -11 6t-14 -9l-19.5 -23.5l-28.5 -34.5l-28.5 -34.5z" />
    <glyph glyph-name="sf277.022" unicode="&#x62b;" horiz-adv-x="673" arabic-form="medial" 
d="M338 219q4 -53 26 -91.5t55 -64t74.5 -40t84.5 -19.5q61 -10 127 2q0 15 0.5 42.5l1 57.5t1 56.5t0.5 39.5q-20 0 -39 1t-36 4q-33 6 -74 15.5t-75.5 28.5t-56.5 49.5t-18 77.5q0 9 -5 12t-14 -7q-30 -33 -72.5 -65.5t-91 -58t-101 -41.5t-101.5 -16q-11 0 -25 -0.5
t-34 1.5v-205q57 -1 112.5 14t104 43.5t89 70t67.5 93.5zM-29 783l32 -26.5t26.5 -20.5l25.5 -18t31 -20q5 -3 12 -6.5t14 -5.5t13.5 -1t11.5 7l49 63l50 64q32 -32 62 -58.5t65 -48.5q6 -4 12 -5t15 9l49 63.5l49 63.5q10 13 -4 23q-1 1 -3.5 3l-15 12l-39 31l-74.5 60
q-4 3 -9.5 5.5t-13.5 -5.5l-55.5 -67l-29 -35t-11.5 -13.5t-12.5 1t-28.5 15t-35.5 25l-35 28t-36.5 28.5q-6 5 -12 5.5t-14 -7.5l-49 -67.5l-49 -68.5q-11 -18 10 -33zM70 1107q-5 -9 -6 -13.5t5 -13.5q8 -11 25 -27.5t36.5 -33.5t39 -32t32.5 -22q17 -9 27 7q23 31 47 60
t46 61q5 7 6 11t-4 10q-24 24 -60.5 52l-73.5 59q-5 5 -11 6t-14 -9l-19.5 -23.5l-28.5 -34.5l-28.5 -34.5z" />
    <glyph glyph-name="sf277.029" unicode="&#x62b;" horiz-adv-x="1738" arabic-form="final" 
d="M1770 6q0 15 0.5 42.5l1 56.5l1 55.5t0.5 39.5q-60 3 -111 13t-88 36t-57.5 71.5t-18.5 120.5q0 15 -6 16.5t-18 -6.5l-62.5 -39.5t-61 -35t-62.5 -31.5t-68 -29q-81 -32 -157 -56.5t-150.5 -41t-150 -26t-154.5 -11.5q-54 -2 -111.5 4.5t-112 22.5t-103 41t-83.5 60.5
t-53 81.5t-12 103q4 41 11 81t25 92q2 11 -1.5 15.5t-8.5 4.5t-11 -5t-10 -14q-16 -33 -29.5 -75.5t-22.5 -85.5t-13 -82t-2 -66q-1 -104 38.5 -173t106.5 -111t153 -60.5t177 -20.5t180.5 9.5t162.5 28.5q146 34 278.5 91t256.5 141q-2 -75 17 -124.5t53.5 -79.5t83 -43.5
t104.5 -16.5q43 -1 88 6zM562 669l32 -26.5t26.5 -20.5l25.5 -18t31 -20q5 -3 12 -6.5t14 -5.5t13.5 -1t11.5 7l49 63l50 64q32 -32 62 -58.5t65 -48.5q6 -4 12 -5t15 9l49 63.5l49 63.5q10 13 -4 23q-1 1 -3.5 3l-15 12l-39 31l-74.5 60q-4 3 -9.5 5.5t-13.5 -5.5
l-55.5 -67l-29 -35t-11.5 -13.5l-2 -2.5q-21 7 -39 18.5t-35.5 25l-35 28t-36.5 28.5q-6 5 -12 5.5t-14 -7.5l-49 -67.5l-49 -68.5q-11 -18 10 -33zM661 993q-5 -9 -6 -13.5t5 -13.5q8 -11 25 -27.5t36.5 -33.5t39 -32t32.5 -22q17 -9 27 7q23 31 47 60t46 61q5 7 6 11
t-4 10q-24 24 -60.5 52l-73.5 59q-5 5 -11 6t-14 -9l-19.5 -23.5l-28.5 -34.5l-28.5 -34.5z" />
    <glyph glyph-name="sf300.008" unicode="&#x646;" arabic-form="initial" 
d="M195 216q-21 -5 -51 -7.5t-62 -4.5t-62.5 -3t-54.5 -1v-200q23 -1 54.5 0.5t64.5 5.5t63.5 11t50.5 17l40 85t31 70t20 65.5t7 71.5q1 50 -13 108t-33.5 112.5t-40 100l-32.5 70.5q-2 5 -8 6t-9 -6l-35 -78.5l-35 -77.5q-9 -17 0 -34q12 -35 30.5 -74t35.5 -78.5
t28.5 -80t10.5 -78.5zM-13 1113q-5 -8 -6 -13t5 -13q8 -11 25 -27.5t36.5 -33.5t39 -32t32.5 -22q17 -11 27 7q23 31 47 60t46 61q5 6 6 10.5t-4 9.5q-24 25 -60.5 53t-72.5 59q-6 5 -12 5.5t-14 -9.5q-6 -6 -19.5 -22.5l-28.5 -34.5l-28.5 -34.5t-18.5 -23.5z" />
    <glyph glyph-name="sf277.023" unicode="&#x646;" horiz-adv-x="673" arabic-form="medial" 
d="M338 219q4 -53 26 -91.5t55 -64t74.5 -40t84.5 -19.5q61 -10 127 2q0 15 0.5 42.5l1 57.5t1 56.5t0.5 39.5q-20 0 -39 1t-36 4q-33 6 -74 15.5t-75.5 28.5t-56.5 49.5t-18 77.5q0 9 -5 12t-14 -7q-30 -33 -72.5 -65.5t-91 -58t-101 -41.5t-101.5 -16q-11 0 -25 -0.5
t-34 1.5v-205q57 -1 112.5 14t104 43.5t89 70t67.5 93.5zM28 847q-5 -8 -6 -13t5 -13q8 -11 25 -27.5t36.5 -33.5t39 -32t32.5 -22q17 -11 27 7q23 31 47 60t46 61q5 6 6 10.5t-4 9.5q-24 25 -60.5 53t-72.5 59q-6 5 -12 5.5t-14 -9.5q-6 -6 -19.5 -22.5l-28.5 -34.5
l-28.5 -34.5t-18.5 -23.5z" />
    <glyph glyph-name="sf277.020" unicode="&#x646;" horiz-adv-x="1140" arabic-form="final" 
d="M160 -40q0 46 11 95t26 93t31 80.5t26 57.5q23 51 13.5 55t-38.5 -40q-47 -76 -79 -143.5t-50.5 -128.5t-25.5 -117.5t-2 -110.5q5 -84 37.5 -154.5t87.5 -121t129.5 -78.5t163.5 -28q61 0 129.5 14t134.5 45t125 81t103 121q29 81 40 162t11 166q36 -5 72 -7.5t70 3.5
v198q-61 -1 -104.5 14.5t-75.5 45.5t-56 72.5t-47 95.5q-2 6 -5.5 8t-6.5 -10l-43 -157q42 -110 66.5 -185.5t37 -128.5t15.5 -89t3 -66q-30 -44 -82 -77t-112.5 -55t-123 -33t-113.5 -11q-77 0 -144 22t-116.5 64.5t-78.5 105t-29 142.5zM535 801q-5 -8 -6 -13t5 -13
q8 -11 25 -27.5t36.5 -33.5t39 -32t32.5 -22q17 -11 27 7q23 31 47 60t46 61q5 6 6 10.5t-4 9.5q-24 25 -60.5 53t-72.5 59q-6 5 -12 5.5t-14 -9.5q-6 -6 -19.5 -22.5l-28.5 -34.5l-28.5 -34.5t-18.5 -23.5z" />
    <glyph glyph-name="sf300.007" unicode="&#x626;" arabic-form="initial" 
d="M195 216q-21 -5 -51 -7.5t-62 -4.5t-62.5 -3t-54.5 -1v-200q23 -1 54.5 0.5t64.5 5.5t63.5 11t50.5 17l40 85t31 70t20 65.5t7 71.5q1 50 -13 108t-33.5 112.5t-40 100l-32.5 70.5q-2 5 -8 6t-9 -6l-35 -78.5l-35 -77.5q-9 -17 0 -34q12 -35 30.5 -74t35.5 -78.5
t28.5 -80t10.5 -78.5zM-30 1131q-2 -26 13 -43.5t33 -30.5q3 -4 1 -7q-15 -27 -27 -51.5t-16 -53.5q-2 -6 2.5 -5.5t6.5 4.5q22 32 52.5 52.5t66 35t72.5 25.5t73 23l29.5 44.5t24.5 40.5q3 6 0.5 7t-8.5 -1q-30 -12 -63.5 -23t-66.5 -13q-13 0 -34 3t-42.5 10t-39 19.5
t-21.5 30.5q11 12 26 22.5t31.5 14.5t33.5 1t32 -15q9 -9 19 3q5 8 11.5 22t12 27.5t9 25.5t3.5 18q-18 13 -39.5 17t-42.5 1t-40.5 -13t-33.5 -23q-16 -15 -27 -36t-20 -44t-16.5 -46t-14.5 -42z" />
    <glyph glyph-name="sf277.025" unicode="&#x626;" horiz-adv-x="673" arabic-form="medial" 
d="M338 219q4 -53 26 -91.5t55 -64t74.5 -40t84.5 -19.5q61 -10 127 2q0 15 0.5 42.5l1 57.5t1 56.5t0.5 39.5q-20 0 -39 1t-36 4q-33 6 -74 15.5t-75.5 28.5t-56.5 49.5t-18 77.5q0 9 -5 12t-14 -7q-30 -33 -72.5 -65.5t-91 -58t-101 -41.5t-101.5 -16q-11 0 -25 -0.5
t-34 1.5v-205q57 -1 112.5 14t104 43.5t89 70t67.5 93.5zM67 785q-2 -26 13 -43.5t33 -30.5q3 -4 1 -7q-15 -27 -27 -51.5t-16 -53.5q-2 -6 2.5 -5.5t6.5 4.5q22 32 52.5 52.5t66 35t72.5 25.5t73 23l29.5 44.5t24.5 40.5q3 6 0.5 7t-8.5 -1q-30 -12 -63.5 -23t-66.5 -13
q-13 0 -34 3t-42.5 10t-39 19.5t-21.5 30.5q11 12 26 22.5t31.5 14.5t33.5 1t32 -15q9 -9 19 3q5 8 11.5 22t12 27.5t9 25.5t3.5 18q-18 13 -39.5 17t-42.5 1t-40.5 -13t-33.5 -23q-16 -15 -27 -36t-20 -44t-16.5 -46t-14.5 -42z" />
    <glyph glyph-name="sf300.006" unicode="&#x6cc;" arabic-form="initial" 
d="M195 216q-21 -5 -51 -7.5t-62 -4.5t-62.5 -3t-54.5 -1v-200q23 -1 54.5 0.5t64.5 5.5t63.5 11t50.5 17l40 85t31 70t20 65.5t7 71.5q1 50 -13 108t-33.5 112.5t-40 100l-32.5 70.5q-2 5 -8 6t-9 -6l-35 -78.5l-35 -77.5q-9 -17 0 -34q12 -35 30.5 -74t35.5 -78.5
t28.5 -80t10.5 -78.5zM-90 -436l31.5 -26.5t26.5 -20.5l26 -18t31 -19q10 -7 25.5 -13t25.5 6l49 63l50 64q32 -32 62 -58.5t65 -48.5q6 -4 12 -5t15 10l48.5 63.5l49.5 63.5q5 6 3.5 12t-7.5 10q-1 1 -3.5 3l-15 12l-39 31l-74.5 60q-4 3 -9.5 5.5t-13.5 -5.5l-55.5 -67
l-29 -35t-11.5 -13l-2 -2q-21 7 -39 18t-35.5 24.5l-35 28t-36.5 28.5q-7 5 -12.5 6t-13.5 -8l-49 -67.5l-49 -67.5q-11 -19 10 -34z" />
    <glyph glyph-name="sf277.024" unicode="&#x6cc;" horiz-adv-x="673" arabic-form="medial" 
d="M338 219q4 -53 26 -91.5t55 -64t74.5 -40t84.5 -19.5q61 -10 127 2q0 15 0.5 42.5l1 57.5t1 56.5t0.5 39.5q-20 0 -39 1t-36 4q-33 6 -74 15.5t-75.5 28.5t-56.5 49.5t-18 77.5q0 9 -5 12t-14 -7q-30 -33 -72.5 -65.5t-91 -58t-101 -41.5t-101.5 -16q-11 0 -25 -0.5
t-34 1.5v-205q57 -1 112.5 14t104 43.5t89 70t67.5 93.5zM1 -410l31.5 -26.5t26.5 -20.5l26 -18t31 -19q10 -7 25.5 -13t25.5 6l49 63l50 64q32 -32 62 -58.5t65 -48.5q6 -4 12 -5t15 10l48.5 63.5l49.5 63.5q5 6 3.5 12t-7.5 10q-1 1 -3.5 3l-15 12l-39 31l-74.5 60
q-4 3 -9.5 5.5t-13.5 -5.5l-55.5 -67l-29 -35t-11.5 -13t-12.5 1.5t-28.5 14.5t-35.5 24.5l-35 28t-36.5 28.5q-7 5 -12.5 6t-13.5 -8l-49 -67.5l-49 -67.5q-11 -19 10 -34z" />
    <glyph glyph-name="sf297.001" unicode="&#x6cc;" horiz-adv-x="1194" arabic-form="final" 
d="M832 135q-24 -14 -50 -33t-48 -42t-36.5 -50.5t-14.5 -58.5q0 -27 14.5 -50t54.5 -42.5t110.5 -37.5t182.5 -36q-48 -32 -111.5 -68t-135.5 -66t-149.5 -50t-153.5 -20q-111 0 -182 36t-108 96.5t-42.5 141t15.5 169.5l16 54.5t10 34t9 29l14 39.5q9 28 8.5 36.5t-7 4.5
t-16 -16.5t-18.5 -27.5q-36 -60 -60.5 -119.5t-46.5 -135.5q-15 -62 -16.5 -126t11 -123.5t40.5 -111.5t72 -91t105 -61.5t139 -22.5q43 -2 107.5 11t136.5 39.5t145 65t132.5 88t98 109.5t42.5 129q1 32 -13 49.5t-36.5 26.5t-49.5 12t-50 8q-7 2 -24 5.5t-37.5 9t-43 12.5
t-41.5 15.5t-31.5 18t-13.5 20.5q5 10 21 14.5t37.5 5t46 -1.5t47 -5t39.5 -5.5t24 -2.5q47 -6 92.5 -7.5t92.5 -2.5q17 0 33.5 1t33.5 5q1 50 1 98q0 49 1 99q-16 -2 -27 -2.5t-21 -0.5h-18h-19q-47 -1 -87.5 -3.5t-77.5 -9t-73 -19.5t-74 -34z" />
    <glyph glyph-name="sf304.001" unicode="&#x62c;" horiz-adv-x="1057" arabic-form="initial" 
d="M61 561q-12 -30 -19 -49l-11 -30.5l-6 -17t-3 -7.5q-4 -15 1 -21t9 -7q5 -2 11 2t14 7q48 17 98 9t99 -29t95 -50l87 -54q5 -4 0 -8q-69 -30 -124 -50.5t-107.5 -32.5t-109 -16.5t-128.5 -2.5l-2 -204q43 1 86.5 2.5t101.5 13.5t136.5 39.5t192.5 80.5q82 34 155.5 43
t129 7t89.5 -7.5t39 0.5q23 37 45.5 68t42.5 63q6 9 2.5 11.5t-8.5 2.5h-6q-36 0 -82.5 4.5t-107 21.5t-136.5 52t-171 95l-68 35t-71 32.5t-73.5 24t-76.5 9.5q-10 0 -29.5 -2.5t-39.5 -7.5t-36 -12t-19 -15zM347 -284q-5 -8 -6 -13t5 -13q8 -11 25 -27.5t36.5 -33.5
t39 -32t32.5 -22q17 -11 27 7q23 31 47 60t46 61q5 6 6 10.5t-4 9.5q-24 25 -60.5 53t-72.5 59q-6 5 -12 5.5t-14 -9.5q-6 -6 -19.5 -22.5l-28.5 -34.5l-28.5 -34.5t-18.5 -23.5z" />
    <glyph glyph-name="sf323" unicode="&#x62c;" horiz-adv-x="974" arabic-form="medial" 
d="M726 265q7 6 21.5 4.5t33 -5.5t40 -7.5t42.5 -1.5q20 37 46 68t38 54q6 11 5 17t-16 6q-31 5 -59 10.5t-59 15t-67 23.5t-82 35.5t-105 53l-135 74.5q-34 22 -83.5 39.5t-99.5 23.5t-94 -2.5t-66 -36.5q-6 -18 -17.5 -44.5t-19.5 -51.5q-6 -23 -1 -28t17 -2.5t28 9
t32 7.5q42 6 92 -7.5t103 -37.5t105.5 -55.5l99.5 -61.5q-72 -41 -137.5 -72.5t-132 -52t-137 -30.5t-151.5 -9l-2 -199q106 -5 188.5 13.5t158.5 53t153.5 81.5t173.5 99q3 -44 13.5 -87t40 -78t84.5 -57.5t147 -24.5q19 -1 26.5 -1.5t13 0t13.5 2t29 4.5q0 15 0.5 42.5
l1 57.5t1 56.5t0.5 39.5q-39 1 -77 3t-74 8.5t-69 18.5t-63 33zM253 -298q-5 -8 -6 -13t5 -13q8 -11 25 -27.5t36.5 -33.5t39 -32t32.5 -22q17 -11 27 7q23 31 47 60t46 61q5 6 6 10.5t-4 9.5q-24 25 -60.5 53t-72.5 59q-6 5 -12 5.5t-14 -9.5q-6 -6 -19.5 -22.5
l-28.5 -34.5l-28.5 -34.5t-18.5 -23.5z" />
    <glyph glyph-name="sf277.030" unicode="&#x62c;" horiz-adv-x="1078" arabic-form="final" 
d="M1113 6q0 15 0.5 42.5l1 57.5t1 56.5t0.5 39.5h-20q-9 0 -18 1q-27 -1 -33 -1t-6.5 0.5t-3 1t-22.5 0.5q-74 2 -128 9.5t-90 23t-54.5 42t-20.5 66.5q3 11 22.5 17.5t42.5 10t44 5t26 3.5q7 11 20.5 30l28.5 41t28.5 45.5t20.5 44.5q3 9 2 12.5t-12 3.5q-27 0 -59 0.5
t-63.5 1.5l-61.5 2t-53 2q-90 7 -167 17t-136 19t-97 15.5t-50 6.5q-49 1 -73 -11t-38.5 -36t-25.5 -60t-33 -82q-3 -4 -3.5 -11t1 -13.5t5.5 -11.5t12 -5q34 18 54 27.5t44 11.5q25 2 53 -1.5t57 -9t57.5 -12t54.5 -11.5q16 -3 18 -4.5t-4 -4.5l-10 -5
q-90 -48 -156.5 -121.5t-110.5 -160.5t-66 -181.5t-22 -184.5q0 -126 35.5 -229t103.5 -176.5t168.5 -115.5t230.5 -46q40 -1 95.5 7t117 21t124 29t118 32t99.5 30t67 23q8 4 23 9.5t22.5 10.5t1 8.5t-40.5 3.5q-36 0 -83.5 -2t-102.5 -3.5l-114 -3t-117 0t-112 5.5t-98 13
q-58 10 -116 31.5t-110.5 53.5t-98 73.5t-78.5 91t-52 107t-19 121.5q0 94 36 169.5t95.5 133t134.5 99.5t153 71q14 4 33 10.5l37.5 12.5t32.5 10t17 3v-78v-39t1 -39q0 -55 23 -90.5t60.5 -55.5t85 -28t96.5 -8q58 -1 91 -1h49q17 0 21.5 0.5l4.5 0.5v2q0 2 8 3zM539 -200
q-5 -8 -6 -13t5 -13q8 -11 25 -27.5t36.5 -33.5t39 -32t32.5 -22q17 -11 27 7q23 31 47 60t46 61q5 6 6 10.5t-4 9.5q-24 25 -60.5 53t-72.5 59q-6 5 -12 5.5t-14 -9.5q-6 -6 -19.5 -22.5l-28.5 -34.5l-28.5 -34.5t-18.5 -23.5z" />
    <glyph glyph-name="sf304.002" unicode="&#x686;" horiz-adv-x="1057" arabic-form="initial" 
d="M61 561q-12 -30 -19 -49l-11 -30.5l-6 -17t-3 -7.5q-4 -15 1 -21t9 -7q5 -2 11 2t14 7q48 17 98 9t99 -29t95 -50l87 -54q5 -4 0 -8q-69 -30 -124 -50.5t-107.5 -32.5t-109 -16.5t-128.5 -2.5l-2 -204q43 1 86.5 2.5t101.5 13.5t136.5 39.5t192.5 80.5q82 34 155.5 43
t129 7t89.5 -7.5t39 0.5q23 37 45.5 68t42.5 63q6 9 2.5 11.5t-8.5 2.5h-6q-36 0 -82.5 4.5t-107 21.5t-136.5 52t-171 95l-68 35t-71 32.5t-73.5 24t-76.5 9.5q-10 0 -29.5 -2.5t-39.5 -7.5t-36 -12t-19 -15zM459 -517q-5 -8 -6 -13t4 -13q8 -11 25 -27.5t37 -33.5
t39.5 -32t32.5 -22q16 -10 27 6q23 32 47 60.5t46 61.5q5 6 6 10.5t-5 9.5q-23 25 -60 53t-73 59q-5 5 -11.5 5.5t-14.5 -9.5l-18.5 -22.5l-28.5 -34.5l-28.5 -34.5t-18.5 -23.5zM290 -311l31.5 -26.5t26.5 -20.5l26 -18t31 -19q10 -6 25.5 -12.5t25.5 5.5l49 64t50 63
q32 -32 62 -58.5t65 -48.5q6 -3 12 -4t14 9l49.5 63.5l49.5 63.5q5 6 3 12.5t-7 10.5q-1 0 -3.5 2l-15 12l-39 31l-74.5 60q-4 4 -9.5 6.5t-13.5 -6.5l-55.5 -66.5l-29 -35t-11.5 -13.5t-12.5 1.5t-28.5 14.5t-35.5 24.5t-35 28.5t-36.5 29q-7 5 -12.5 5.5t-13.5 -8.5
l-49 -67l-49 -68q-11 -19 10 -34z" />
    <glyph glyph-name="sf323.001" unicode="&#x686;" horiz-adv-x="974" arabic-form="medial" 
d="M726 265q7 6 21.5 4.5t33 -5.5t40 -7.5t42.5 -1.5q20 37 46 68t38 54q6 11 5 17t-16 6q-31 5 -59 10.5t-59 15t-67 23.5t-82 35.5t-105 53l-135 74.5q-34 22 -83.5 39.5t-99.5 23.5t-94 -2.5t-66 -36.5q-6 -18 -17.5 -44.5t-19.5 -51.5q-6 -23 -1 -28t17 -2.5t28 9
t32 7.5q42 6 92 -7.5t103 -37.5t105.5 -55.5l99.5 -61.5q-72 -41 -137.5 -72.5t-132 -52t-137 -30.5t-151.5 -9l-2 -199q106 -5 188.5 13.5t158.5 53t153.5 81.5t173.5 99q3 -44 13.5 -87t40 -78t84.5 -57.5t147 -24.5q19 -1 26.5 -1.5t13 0t13.5 2t29 4.5q0 15 0.5 42.5
l1 57.5t1 56.5t0.5 39.5q-39 1 -77 3t-74 8.5t-69 18.5t-63 33zM364 -547q-5 -8 -6 -13t4 -13q8 -11 25 -27.5t37 -33.5t39.5 -32t32.5 -22q16 -10 27 6q23 32 47 60.5t46 61.5q5 6 6 10.5t-5 9.5q-23 25 -60 53t-73 59q-5 5 -11.5 5.5t-14.5 -9.5l-18.5 -22.5l-28.5 -34.5
l-28.5 -34.5t-18.5 -23.5zM195 -341l31.5 -26.5t26.5 -20.5l26 -18t31 -19q10 -6 25.5 -12.5t25.5 5.5l49 64t50 63q32 -32 62 -58.5t65 -48.5q6 -3 12 -4t14 9l49.5 63.5l49.5 63.5q5 6 3 12.5t-7 10.5q-1 0 -3.5 2l-15 12l-39 31l-74.5 60q-4 4 -9.5 6.5t-13.5 -6.5
l-55.5 -66.5l-29 -35t-11.5 -13.5t-12.5 1.5t-28.5 14.5t-35.5 24.5t-35 28.5t-36.5 29q-7 5 -12.5 5.5t-13.5 -8.5l-49 -67l-49 -68q-11 -19 10 -34z" />
    <glyph glyph-name="sf277.031" unicode="&#x686;" horiz-adv-x="1078" arabic-form="final" 
d="M1113 6q0 15 0.5 42.5l1 57.5t1 56.5t0.5 39.5h-20q-9 0 -18 1q-27 -1 -33 -1t-6.5 0.5t-3 1t-22.5 0.5q-74 2 -128 9.5t-90 23t-54.5 42t-20.5 66.5q3 11 22.5 17.5t42.5 10t44 5t26 3.5q7 11 20.5 30l28.5 41t28.5 45.5t20.5 44.5q3 9 2 12.5t-12 3.5q-27 0 -59 0.5
t-63.5 1.5l-61.5 2t-53 2q-90 7 -167 17t-136 19t-97 15.5t-50 6.5q-49 1 -73 -11t-38.5 -36t-25.5 -60t-33 -82q-3 -4 -3.5 -11t1 -13.5t5.5 -11.5t12 -5q34 18 54 27.5t44 11.5q25 2 53 -1.5t57 -9t57.5 -12t54.5 -11.5q16 -3 18 -4.5t-4 -4.5l-10 -5
q-90 -48 -156.5 -121.5t-110.5 -160.5t-66 -181.5t-22 -184.5q0 -126 35.5 -229t103.5 -176.5t168.5 -115.5t230.5 -46q40 -1 95.5 7t117 21t124 29t118 32t99.5 30t67 23q8 4 23 9.5t22.5 10.5t1 8.5t-40.5 3.5q-36 0 -83.5 -2t-102.5 -3.5l-114 -3t-117 0t-112 5.5t-98 13
q-58 10 -116 31.5t-110.5 53.5t-98 73.5t-78.5 91t-52 107t-19 121.5q0 94 36 169.5t95.5 133t134.5 99.5t153 71q14 4 33 10.5l37.5 12.5t32.5 10t17 3v-78v-39t1 -39q0 -55 23 -90.5t60.5 -55.5t85 -28t96.5 -8q58 -1 91 -1h49q17 0 21.5 0.5l4.5 0.5v2q0 2 8 3zM537 -427
q-5 -8 -6 -13t4 -13q8 -11 25 -27.5t37 -33.5t39.5 -32t32.5 -22q16 -10 27 6q23 32 47 60.5t46 61.5q5 6 6 10.5t-5 9.5q-23 25 -60 53t-73 59q-5 5 -11.5 5.5t-14.5 -9.5l-18.5 -22.5l-28.5 -34.5l-28.5 -34.5t-18.5 -23.5zM368 -221l31.5 -26.5t26.5 -20.5l26 -18t31 -19
q10 -6 25.5 -12.5t25.5 5.5l49 64t50 63q32 -32 62 -58.5t65 -48.5q6 -3 12 -4t14 9l49.5 63.5l49.5 63.5q5 6 3 12.5t-7 10.5q-1 0 -3.5 2l-15 12l-39 31l-74.5 60q-4 4 -9.5 6.5t-13.5 -6.5l-55.5 -66.5l-29 -35t-11.5 -13.5l-2 -2q-21 7 -39 18t-35.5 24.5t-35 28.5
t-36.5 29q-7 5 -12.5 5.5t-13.5 -8.5l-49 -67l-49 -68q-11 -19 10 -34z" />
    <glyph glyph-name="sf304.003" unicode="&#x62d;" horiz-adv-x="1057" arabic-form="initial" 
d="M61 561q-12 -30 -19 -49l-11 -30.5l-6 -17t-3 -7.5q-4 -15 1 -21t9 -7q5 -2 11 2t14 7q48 17 98 9t99 -29t95 -50l87 -54q5 -4 0 -8q-69 -30 -124 -50.5t-107.5 -32.5t-109 -16.5t-128.5 -2.5l-2 -204q43 1 86.5 2.5t101.5 13.5t136.5 39.5t192.5 80.5q82 34 155.5 43
t129 7t89.5 -7.5t39 0.5q23 37 45.5 68t42.5 63q6 9 2.5 11.5t-8.5 2.5h-6q-36 0 -82.5 4.5t-107 21.5t-136.5 52t-171 95l-68 35t-71 32.5t-73.5 24t-76.5 9.5q-10 0 -29.5 -2.5t-39.5 -7.5t-36 -12t-19 -15z" />
    <glyph glyph-name="sf323.002" unicode="&#x62d;" horiz-adv-x="974" arabic-form="medial" 
d="M726 265q7 6 21.5 4.5t33 -5.5t40 -7.5t42.5 -1.5q20 37 46 68t38 54q6 11 5 17t-16 6q-31 5 -59 10.5t-59 15t-67 23.5t-82 35.5t-105 53l-135 74.5q-34 22 -83.5 39.5t-99.5 23.5t-94 -2.5t-66 -36.5q-6 -18 -17.5 -44.5t-19.5 -51.5q-6 -23 -1 -28t17 -2.5t28 9
t32 7.5q42 6 92 -7.5t103 -37.5t105.5 -55.5l99.5 -61.5q-72 -41 -137.5 -72.5t-132 -52t-137 -30.5t-151.5 -9l-2 -199q106 -5 188.5 13.5t158.5 53t153.5 81.5t173.5 99q3 -44 13.5 -87t40 -78t84.5 -57.5t147 -24.5q19 -1 26.5 -1.5t13 0t13.5 2t29 4.5q0 15 0.5 42.5
l1 57.5t1 56.5t0.5 39.5q-39 1 -77 3t-74 8.5t-69 18.5t-63 33z" />
    <glyph glyph-name="sf277.032" unicode="&#x62d;" horiz-adv-x="1078" arabic-form="final" 
d="M1113 6q0 15 0.5 42.5l1 57.5t1 56.5t0.5 39.5h-20q-9 0 -18 1q-27 -1 -33 -1t-6.5 0.5t-3 1t-22.5 0.5q-74 2 -128 9.5t-90 23t-54.5 42t-20.5 66.5q3 11 22.5 17.5t42.5 10t44 5t26 3.5q7 11 20.5 30l28.5 41t28.5 45.5t20.5 44.5q3 9 2 12.5t-12 3.5q-27 0 -59 0.5
t-63.5 1.5l-61.5 2t-53 2q-90 7 -167 17t-136 19t-97 15.5t-50 6.5q-49 1 -73 -11t-38.5 -36t-25.5 -60t-33 -82q-3 -4 -3.5 -11t1 -13.5t5.5 -11.5t12 -5q34 18 54 27.5t44 11.5q25 2 53 -1.5t57 -9t57.5 -12t54.5 -11.5q16 -3 18 -4.5t-4 -4.5l-10 -5
q-90 -48 -156.5 -121.5t-110.5 -160.5t-66 -181.5t-22 -184.5q0 -126 35.5 -229t103.5 -176.5t168.5 -115.5t230.5 -46q40 -1 95.5 7t117 21t124 29t118 32t99.5 30t67 23q8 4 23 9.5t22.5 10.5t1 8.5t-40.5 3.5q-36 0 -83.5 -2t-102.5 -3.5l-114 -3t-117 0t-112 5.5t-98 13
q-58 10 -116 31.5t-110.5 53.5t-98 73.5t-78.5 91t-52 107t-19 121.5q0 94 36 169.5t95.5 133t134.5 99.5t153 71q14 4 33 10.5l37.5 12.5t32.5 10t17 3v-78v-39t1 -39q0 -55 23 -90.5t60.5 -55.5t85 -28t96.5 -8q58 -1 91 -1h49q17 0 21.5 0.5l4.5 0.5v2q0 2 8 3z" />
    <glyph glyph-name="sf304.004" unicode="&#x62e;" horiz-adv-x="1057" arabic-form="initial" 
d="M61 561q-12 -30 -19 -49l-11 -30.5l-6 -17t-3 -7.5q-4 -15 1 -21t9 -7q5 -2 11 2t14 7q48 17 98 9t99 -29t95 -50l87 -54q5 -4 0 -8q-69 -30 -124 -50.5t-107.5 -32.5t-109 -16.5t-128.5 -2.5l-2 -204q43 1 86.5 2.5t101.5 13.5t136.5 39.5t192.5 80.5q82 34 155.5 43
t129 7t89.5 -7.5t39 0.5q23 37 45.5 68t42.5 63q6 9 2.5 11.5t-8.5 2.5h-6q-36 0 -82.5 4.5t-107 21.5t-136.5 52t-171 95l-68 35t-71 32.5t-73.5 24t-76.5 9.5q-10 0 -29.5 -2.5t-39.5 -7.5t-36 -12t-19 -15zM391 904q-5 -8 -6 -13t5 -13q8 -11 25 -27.5t36.5 -33.5t39 -32
t32.5 -22q17 -11 27 7q23 31 47 60t46 61q5 6 6 10.5t-4 9.5q-24 25 -60.5 53t-72.5 59q-6 5 -12 5.5t-14 -9.5q-6 -6 -19.5 -22.5l-28.5 -34.5l-28.5 -34.5t-18.5 -23.5z" />
    <glyph glyph-name="sf323.003" unicode="&#x62e;" horiz-adv-x="974" arabic-form="medial" 
d="M726 265q7 6 21.5 4.5t33 -5.5t40 -7.5t42.5 -1.5q20 37 46 68t38 54q6 11 5 17t-16 6q-31 5 -59 10.5t-59 15t-67 23.5t-82 35.5t-105 53l-135 74.5q-34 22 -83.5 39.5t-99.5 23.5t-94 -2.5t-66 -36.5q-6 -18 -17.5 -44.5t-19.5 -51.5q-6 -23 -1 -28t17 -2.5t28 9
t32 7.5q42 6 92 -7.5t103 -37.5t105.5 -55.5l99.5 -61.5q-72 -41 -137.5 -72.5t-132 -52t-137 -30.5t-151.5 -9l-2 -199q106 -5 188.5 13.5t158.5 53t153.5 81.5t173.5 99q3 -44 13.5 -87t40 -78t84.5 -57.5t147 -24.5q19 -1 26.5 -1.5t13 0t13.5 2t29 4.5q0 15 0.5 42.5
l1 57.5t1 56.5t0.5 39.5q-39 1 -77 3t-74 8.5t-69 18.5t-63 33zM398 1025q-5 -8 -6 -13t5 -13q8 -11 25 -27.5t36.5 -33.5t39 -32t32.5 -22q17 -11 27 7q23 31 47 60t46 61q5 6 6 10.5t-4 9.5q-24 25 -60.5 53t-72.5 59q-6 5 -12 5.5t-14 -9.5q-6 -6 -19.5 -22.5
l-28.5 -34.5l-28.5 -34.5t-18.5 -23.5z" />
    <glyph glyph-name="sf277.001" unicode="&#x62e;" horiz-adv-x="1078" arabic-form="final" 
d="M1113 6q0 15 0.5 42.5l1 57.5t1 56.5t0.5 39.5h-20q-9 0 -18 1q-27 -1 -33 -1t-6.5 0.5t-3 1t-22.5 0.5q-74 2 -128 9.5t-90 23t-54.5 42t-20.5 66.5q3 11 22.5 17.5t42.5 10t44 5t26 3.5q7 11 20.5 30l28.5 41t28.5 45.5t20.5 44.5q3 9 2 12.5t-12 3.5q-27 0 -59 0.5
t-63.5 1.5l-61.5 2t-53 2q-90 7 -167 17t-136 19t-97 15.5t-50 6.5q-49 1 -73 -11t-38.5 -36t-25.5 -60t-33 -82q-3 -4 -3.5 -11t1 -13.5t5.5 -11.5t12 -5q34 18 54 27.5t44 11.5q25 2 53 -1.5t57 -9t57.5 -12t54.5 -11.5q16 -3 18 -4.5t-4 -4.5l-10 -5
q-90 -48 -156.5 -121.5t-110.5 -160.5t-66 -181.5t-22 -184.5q0 -126 35.5 -229t103.5 -176.5t168.5 -115.5t230.5 -46q40 -1 95.5 7t117 21t124 29t118 32t99.5 30t67 23q8 4 23 9.5t22.5 10.5t1 8.5t-40.5 3.5q-36 0 -83.5 -2t-102.5 -3.5l-114 -3t-117 0t-112 5.5t-98 13
q-58 10 -116 31.5t-110.5 53.5t-98 73.5t-78.5 91t-52 107t-19 121.5q0 94 36 169.5t95.5 133t134.5 99.5t153 71q14 4 33 10.5l37.5 12.5t32.5 10t17 3v-78v-39t1 -39q0 -55 23 -90.5t60.5 -55.5t85 -28t96.5 -8q58 -1 91 -1h49q17 0 21.5 0.5l4.5 0.5v2q0 2 8 3zM418 980
q-5 -8 -6 -13t5 -13q8 -11 25 -27.5t36.5 -33.5t39 -32t32.5 -22q17 -11 27 7q23 31 47 60t46 61q5 6 6 10.5t-4 9.5q-24 25 -60.5 53t-72.5 59q-6 5 -12 5.5t-14 -9.5q-6 -6 -19.5 -22.5l-28.5 -34.5l-28.5 -34.5t-18.5 -23.5z" />
    <glyph glyph-name="sf309" unicode="&#x633;" horiz-adv-x="1014" arabic-form="initial" 
d="M-37 199v-199q40 -1 74.5 3.5t65 16.5t59 31t58.5 46q28 -45 76 -66t100 -21.5t101 17.5t81 51q21 -18 60 -29.5t81.5 -18.5t80.5 -11.5t58 -8.5q15 -3 24.5 -1t15 6t8 9t3.5 8l32 86.5l19 51.5t9 28.5t2 16.5v13q0 54 -15 109l-29 107q-3 14 -8 18.5t-10.5 2.5
t-10.5 -8.5t-8 -15.5q-7 -24 -21.5 -57t-33.5 -68q-2 -30 5 -58.5t7 -45.5l-86.5 21.5t-83.5 21.5q1 5 4.5 14t7 19l7 20t4.5 18q0 24 -18 6q-15 -14 -25.5 -32.5t-23.5 -34.5q-17 -19 -39 -30.5t-46.5 -18t-50 -9t-49.5 -2.5q-8 0 -31.5 1t-48.5 6.5t-45 18t-20 36.5
q0 5 7 21.5t7 30.5q0 6 -6 12t-19 -7q-8 -11 -15 -24t-13 -19q-35 -28 -71 -44t-73.5 -24.5t-77 -10t-79.5 -0.5v-3z" />
    <glyph glyph-name="sf327" unicode="&#x633;" horiz-adv-x="1271" arabic-form="medial" 
d="M1029 120q10 -38 29.5 -60.5t46.5 -35.5t61.5 -18t74.5 -7q30 0 62 6q0 15 0.5 42.5l1 57.5t1 56.5t0.5 39.5q-18 1 -38.5 0.5t-41.5 0.5q-43 2 -77 18.5t-41 51.5q11 35 11.5 54.5t-5.5 25.5t-15.5 -0.5t-18.5 -23.5l-23.5 -36t-27 -38t-26.5 -31.5t-22 -16.5
q-24 -10 -59.5 -14.5t-73.5 -6t-74.5 0t-61.5 4.5q8 26 21.5 50.5t23.5 48.5q10 22 9.5 36t-6.5 18t-17 -3.5t-22 -28.5q-22 -41 -52.5 -65t-66.5 -36.5t-75 -15.5t-78 -1t-76.5 7.5t-69.5 9.5q8 23 21 49.5t19 50.5q5 26 -3.5 28t-26.5 -19q-17 -20 -33 -35.5t-41 -28.5
q-63 -32 -133 -44.5t-141 -10.5v-200q32 0 58.5 2.5t51 9.5t48.5 19t51 31q11 -24 34 -37t50.5 -19t56 -6.5t51.5 -0.5q57 0 117 7t114 30q8 -15 23.5 -23t34 -11.5t38 -4t36.5 -0.5q53 0 94 5.5t76 19t66 37.5t64 61z" />
    <glyph glyph-name="sf277.004" unicode="&#x633;" horiz-adv-x="2082" arabic-form="final" 
d="M1914 366q-5 19 -10.5 22.5t-10.5 -1t-10 -14l-9 -16.5q-9 -34 -35.5 -62.5t-63 -48.5t-79 -30t-84 -7.5t-77 18.5t-58.5 49q1 11 3 26t3 26q0 22 -4.5 28t-11 2t-14 -14t-13.5 -20q-32 -63 -96 -97t-143 -34q-61 0 -107 15t-81.5 42.5t-62.5 67.5t-48 91q-2 5 -4.5 10
t-5.5 6t-6.5 -3t-7.5 -16q-9 -39 -16.5 -65l-12.5 -42.5t-6.5 -25.5t0.5 -14q45 -111 69 -185t35.5 -124.5t13 -85t1.5 -67.5q-17 -27 -48 -50.5t-69.5 -42.5t-82 -34t-85.5 -25t-80.5 -15.5t-66.5 -5.5q-74 0 -141.5 21t-118.5 62.5t-81.5 102t-30.5 140.5q0 47 9 92t24 89
t33 87l36 86q6 16 4.5 21.5t-7 3.5t-12.5 -9.5t-12 -15.5q-35 -50 -65 -105.5t-52 -114.5t-34 -120.5t-12 -124.5q0 -100 31.5 -177.5t88.5 -131t137 -81.5t178 -28q71 0 142 18t135 51.5t117.5 81.5t89.5 107q24 85 37 165.5t13 164.5q31 -5 61 -10.5t61 -5.5
q79 0 135.5 28t91.5 103q25 -63 69 -91t107 -28q41 0 81.5 11t77 31t67 49.5t51.5 65.5q27 -87 77.5 -124.5t122.5 -37.5q37 0 73 6q0 15 0.5 42.5l1 57.5t1 56.5t0.5 39.5q-18 0 -34.5 0.5t-32.5 2.5q-31 0 -58.5 12.5t-46.5 34t-28 51t-3 63.5z" />
    <glyph glyph-name="sf309.001" unicode="&#x634;" horiz-adv-x="1014" arabic-form="initial" 
d="M-37 199v-199q40 -1 74.5 3.5t65 16.5t59 31t58.5 46q28 -45 76 -66t100 -21.5t101 17.5t81 51q21 -18 60 -29.5t81.5 -18.5t80.5 -11.5t58 -8.5q15 -3 24.5 -1t15 6t8 9t3.5 8l32 86.5l19 51.5t9 28.5t2 16.5v13q0 54 -15 109l-29 107q-3 14 -8 18.5t-10.5 2.5
t-10.5 -8.5t-8 -15.5q-7 -24 -21.5 -57t-33.5 -68q-2 -30 5 -58.5t7 -45.5l-86.5 21.5t-83.5 21.5q1 5 4.5 14t7 19l7 20t4.5 18q0 24 -18 6q-15 -14 -25.5 -32.5t-23.5 -34.5q-17 -19 -39 -30.5t-46.5 -18t-50 -9t-49.5 -2.5q-8 0 -31.5 1t-48.5 6.5t-45 18t-20 36.5
q0 5 7 21.5t7 30.5q0 6 -6 12t-19 -7q-8 -11 -15 -24t-13 -19q-35 -28 -71 -44t-73.5 -24.5t-77 -10t-79.5 -0.5v-3zM302 742l32 -26.5t26.5 -20.5l25.5 -18t31 -20q5 -3 12 -6.5t14 -5.5t13.5 -1t11.5 7l49 63l50 64q32 -32 62 -58.5t65 -48.5q6 -4 12 -5t15 9l49 63.5
l49 63.5q10 13 -4 23q-1 1 -3.5 3l-15 12l-39 31l-74.5 60q-4 3 -9.5 5.5t-13.5 -5.5l-55.5 -67l-29 -35t-11.5 -13.5t-12.5 1t-28.5 15t-35.5 25l-35 28t-36.5 28.5q-6 5 -12 5.5t-14 -7.5l-49 -67.5l-49 -68.5q-11 -18 10 -33zM401 1066q-5 -9 -6 -13.5t5 -13.5
q8 -11 25 -27.5t36.5 -33.5t39 -32t32.5 -22q17 -9 27 7q23 31 47 60t46 61q5 7 6 11t-4 10q-24 24 -60.5 52l-73.5 59q-5 5 -11 6t-14 -9l-19.5 -23.5l-28.5 -34.5l-28.5 -34.5z" />
    <glyph glyph-name="sf327.001" unicode="&#x634;" horiz-adv-x="1271" arabic-form="medial" 
d="M1029 120q10 -38 29.5 -60.5t46.5 -35.5t61.5 -18t74.5 -7q30 0 62 6q0 15 0.5 42.5l1 57.5t1 56.5t0.5 39.5q-18 1 -38.5 0.5t-41.5 0.5q-43 2 -77 18.5t-41 51.5q11 35 11.5 54.5t-5.5 25.5t-15.5 -0.5t-18.5 -23.5l-23.5 -36t-27 -38t-26.5 -31.5t-22 -16.5
q-24 -10 -59.5 -14.5t-73.5 -6t-74.5 0t-61.5 4.5q8 26 21.5 50.5t23.5 48.5q10 22 9.5 36t-6.5 18t-17 -3.5t-22 -28.5q-22 -41 -52.5 -65t-66.5 -36.5t-75 -15.5t-78 -1t-76.5 7.5t-69.5 9.5q8 23 21 49.5t19 50.5q5 26 -3.5 28t-26.5 -19q-17 -20 -33 -35.5t-41 -28.5
q-63 -32 -133 -44.5t-141 -10.5v-200q32 0 58.5 2.5t51 9.5t48.5 19t51 31q11 -24 34 -37t50.5 -19t56 -6.5t51.5 -0.5q57 0 117 7t114 30q8 -15 23.5 -23t34 -11.5t38 -4t36.5 -0.5q53 0 94 5.5t76 19t66 37.5t64 61zM401 734l32 -26.5t26.5 -20.5l25.5 -18t31 -20
q5 -3 12 -6.5t14 -5.5t13.5 -1t11.5 7l49 63l50 64q32 -32 62 -58.5t65 -48.5q6 -4 12 -5t15 9l49 63.5l49 63.5q10 13 -4 23q-1 1 -3.5 3l-15 12l-39 31l-74.5 60q-4 3 -9.5 5.5t-13.5 -5.5l-55.5 -67l-29 -35t-11.5 -13.5t-12.5 1t-28.5 15t-35.5 25l-35 28t-36.5 28.5
q-6 5 -12 5.5t-14 -7.5l-49 -67.5l-49 -68.5q-11 -18 10 -33zM500 1058q-5 -9 -6 -13.5t5 -13.5q8 -11 25 -27.5t36.5 -33.5t39 -32t32.5 -22q17 -9 27 7q23 31 47 60t46 61q5 7 6 11t-4 10q-24 24 -60.5 52l-73.5 59q-5 5 -11 6t-14 -9l-19.5 -23.5l-28.5 -34.5
l-28.5 -34.5z" />
    <glyph glyph-name="sf277.033" unicode="&#x634;" horiz-adv-x="2082" arabic-form="final" 
d="M1914 366q-5 19 -10.5 22.5t-10.5 -1t-10 -14l-9 -16.5q-9 -34 -35.5 -62.5t-63 -48.5t-79 -30t-84 -7.5t-77 18.5t-58.5 49q1 11 3 26t3 26q0 22 -4.5 28t-11 2t-14 -14t-13.5 -20q-32 -63 -96 -97t-143 -34q-61 0 -107 15t-81.5 42.5t-62.5 67.5t-48 91q-2 5 -4.5 10
t-5.5 6t-6.5 -3t-7.5 -16q-9 -39 -16.5 -65l-12.5 -42.5t-6.5 -25.5t0.5 -14q45 -111 69 -185t35.5 -124.5t13 -85t1.5 -67.5q-17 -27 -48 -50.5t-69.5 -42.5t-82 -34t-85.5 -25t-80.5 -15.5t-66.5 -5.5q-74 0 -141.5 21t-118.5 62.5t-81.5 102t-30.5 140.5q0 47 9 92t24 89
t33 87l36 86q6 16 4.5 21.5t-7 3.5t-12.5 -9.5t-12 -15.5q-35 -50 -65 -105.5t-52 -114.5t-34 -120.5t-12 -124.5q0 -100 31.5 -177.5t88.5 -131t137 -81.5t178 -28q71 0 142 18t135 51.5t117.5 81.5t89.5 107q24 85 37 165.5t13 164.5q31 -5 61 -10.5t61 -5.5
q79 0 135.5 28t91.5 103q25 -63 69 -91t107 -28q41 0 81.5 11t77 31t67 49.5t51.5 65.5q27 -87 77.5 -124.5t122.5 -37.5q37 0 73 6q0 15 0.5 42.5l1 57.5t1 56.5t0.5 39.5q-18 0 -34.5 0.5t-32.5 2.5q-31 0 -58.5 12.5t-46.5 34t-28 51t-3 63.5zM1292 783l32 -26.5
t26.5 -20.5l25.5 -18t31 -20q5 -3 12 -6.5t14 -5.5t13.5 -1t11.5 7l49 63l50 64q32 -32 62 -58.5t65 -48.5q6 -4 12 -5t15 9l49 63.5l49 63.5q10 13 -4 23q-1 1 -3.5 3l-15 12l-39 31l-74.5 60q-4 3 -9.5 5.5t-13.5 -5.5l-55.5 -67l-29 -35t-11.5 -13.5t-12.5 1t-28.5 15
t-35.5 25l-35 28t-36.5 28.5q-6 5 -12 5.5t-14 -7.5l-49 -67.5l-49 -68.5q-11 -18 10 -33zM1391 1107q-5 -9 -6 -13.5t5 -13.5q8 -11 25 -27.5t36.5 -33.5t39 -32t32.5 -22q17 -9 27 7q23 31 47 60t46 61q5 7 6 11t-4 10q-24 24 -60.5 52l-73.5 59q-5 5 -11 6t-14 -9
l-19.5 -23.5l-28.5 -34.5l-28.5 -34.5z" />
    <glyph glyph-name="sf310.002" unicode="&#x635;" horiz-adv-x="1536" arabic-form="initial" 
d="M363 -98l22.5 28l23.5 31l20 26.5l12 15.5q124 -22 238 -26.5t214 2.5t183.5 22t147.5 31q22 5 49.5 15t53 22.5t45 28t25.5 32.5q3 9 9.5 25l14.5 34.5l16 38l14.5 36t10.5 28t3 13.5q-24 84 -63 138t-83.5 85t-89.5 43t-82 12q-65 0 -134 -22t-144.5 -69.5t-159 -122.5
t-176.5 -180q-21 4 -59.5 13t-75.5 25.5t-61.5 42.5t-17.5 65q3 15 0.5 20.5t-7.5 5t-10 -4t-7 -6.5q-12 -13 -22 -25.5t-23 -25.5t-30 -26.5t-44 -28.5q-45 -27 -101.5 -34.5t-109.5 -7.5v-199q46 -6 86 4.5t74 34t61.5 56.5t49.5 71q7 -30 23 -53.5t38.5 -41.5t49.5 -32
t55 -26l-35 -46t-29 -50q-8 -20 -8.5 -29.5t4 -10.5t12.5 5t17 17zM613 176q45 41 97 83.5t109 77t118.5 56t126.5 21.5q45 0 82.5 -16t67.5 -43t53.5 -62.5t40.5 -73.5q-40 -11 -92.5 -21.5t-112.5 -18.5t-125 -14t-129 -7t-124.5 3t-111.5 15z" />
    <glyph glyph-name="sf328" unicode="&#x635;" horiz-adv-x="1574" arabic-form="medial" 
d="M1445 204l18 43l11.5 27l8 19.5t7.5 19.5q4 9 1 24t-10.5 31.5t-17 32.5l-17.5 29q-22 35 -53 65.5t-67.5 53t-76.5 35t-80 10.5q-66 -2 -125.5 -21t-114.5 -50.5t-105 -71.5t-96.5 -83.5t-89.5 -88.5l-83 -85q-12 3 -31 7t-40.5 10t-44.5 14.5t-42.5 20.5t-34 28
t-19.5 37q3 40 -1 50t-12.5 3.5t-19.5 -22t-23 -27.5q-33 -33 -68 -55t-74 -35t-83.5 -18.5t-96.5 -5.5v-201q63 -1 108 12t78 36.5t58.5 55t50.5 67.5q11 -26 23 -48t30 -40.5t44.5 -34t67.5 -28.5l-29.5 -42t-28.5 -48q-10 -21 -11 -31t3.5 -11.5t13 5t19.5 18.5
q20 22 41 51.5t35 47.5q102 -19 190.5 -24.5t163.5 -3.5t135 8.5l105 11.5q71 -6 134.5 -7.5t122.5 0t114.5 3.5t110.5 2q30 0 62 6q0 15 0.5 42.5l1 57.5t1 56.5t0.5 39.5q-17 1 -35 0.5t-38 0.5h-28q-10 0 -18.5 0.5t-18.5 0.5h-26zM639 185q45 42 99.5 85.5t114.5 79
t124 56t128 16.5q64 -2 120.5 -45.5t103.5 -142.5q-10 -8 -41.5 -16t-77 -16t-101.5 -15.5t-115 -12.5t-116 -7.5t-105.5 -2t-83.5 5.5t-50 15z" />
    <glyph glyph-name="sf277.005" unicode="&#x635;" horiz-adv-x="2165" arabic-form="final" 
d="M71 -210q10 -86 47.5 -151t95.5 -108.5t131.5 -65t154.5 -21.5q64 0 135 16.5t137.5 49t123 81.5t91.5 114q20 60 31 109.5t16.5 89t7 70.5l2.5 53q71 -17 141 -25t140 -8.5t141 4t143 11.5q138 -12 289 -12t299 6q1 21 1.5 47.5l1 54t0.5 52.5v46l-101 -2l-102 -2v3
l40.5 83.5l21 43.5t8 17.5t1.5 4.5q-12 64 -41 116.5t-69.5 89.5t-89 57t-98.5 20q-124 0 -282 -103t-339 -309h-1q-52 0 -89 20.5t-64 53t-47 73t-37 79.5q0 2 -3.5 6.5t-7.5 -6.5l-24 -75.5l-24 -75.5q10 -43 31 -101.5t40 -123.5t31.5 -132.5t6.5 -128.5
q-29 -39 -78.5 -69t-109 -51t-123 -33t-119.5 -13q-80 3 -148.5 24.5t-119 63t-78.5 102.5t-27 143q0 19 1.5 44.5t11.5 65t32 98t63 142.5q12 23 13 31.5t-4.5 7t-15 -11t-19.5 -22.5q-54 -81 -87.5 -148t-52.5 -130.5t-25 -127.5t-4 -137zM1234 204q21 22 52 50t68 56
t77.5 55t80.5 48t77.5 33t68.5 11q36 2 73.5 -8.5t72 -34.5t63.5 -63t48 -94q-33 -18 -84.5 -31.5t-113 -22.5t-128.5 -13.5t-131 -4.5t-121.5 5t-102.5 14z" />
    <glyph glyph-name="sf310.003" unicode="&#x636;" horiz-adv-x="1536" arabic-form="initial" 
d="M363 -98l22.5 28l23.5 31l20 26.5l12 15.5q124 -22 238 -26.5t214 2.5t183.5 22t147.5 31q22 5 49.5 15t53 22.5t45 28t25.5 32.5q3 9 9.5 25l14.5 34.5l16 38l14.5 36t10.5 28t3 13.5q-24 84 -63 138t-83.5 85t-89.5 43t-82 12q-65 0 -134 -22t-144.5 -69.5t-159 -122.5
t-176.5 -180q-21 4 -59.5 13t-75.5 25.5t-61.5 42.5t-17.5 65q3 15 0.5 20.5t-7.5 5t-10 -4t-7 -6.5q-12 -13 -22 -25.5t-23 -25.5t-30 -26.5t-44 -28.5q-45 -27 -101.5 -34.5t-109.5 -7.5v-199q46 -6 86 4.5t74 34t61.5 56.5t49.5 71q7 -30 23 -53.5t38.5 -41.5t49.5 -32
t55 -26l-35 -46t-29 -50q-8 -20 -8.5 -29.5t4 -10.5t12.5 5t17 17zM613 176q45 41 97 83.5t109 77t118.5 56t126.5 21.5q45 0 82.5 -16t67.5 -43t53.5 -62.5t40.5 -73.5q-40 -11 -92.5 -21.5t-112.5 -18.5t-125 -14t-129 -7t-124.5 3t-111.5 15zM668 887q-5 -8 -6 -13t5 -13
q8 -11 25 -27.5t36.5 -33.5t39 -32t32.5 -22q17 -11 27 7q23 31 47 60t46 61q5 6 6 10.5t-4 9.5q-24 25 -60.5 53t-72.5 59q-6 5 -12 5.5t-14 -9.5q-6 -6 -19.5 -22.5l-28.5 -34.5l-28.5 -34.5t-18.5 -23.5z" />
    <glyph glyph-name="sf328.001" unicode="&#x636;" horiz-adv-x="1574" arabic-form="medial" 
d="M1445 204l18 43l11.5 27l8 19.5t7.5 19.5q4 9 1 24t-10.5 31.5t-17 32.5l-17.5 29q-22 35 -53 65.5t-67.5 53t-76.5 35t-80 10.5q-66 -2 -125.5 -21t-114.5 -50.5t-105 -71.5t-96.5 -83.5t-89.5 -88.5l-83 -85q-12 3 -31 7t-40.5 10t-44.5 14.5t-42.5 20.5t-34 28
t-19.5 37q3 40 -1 50t-12.5 3.5t-19.5 -22t-23 -27.5q-33 -33 -68 -55t-74 -35t-83.5 -18.5t-96.5 -5.5v-201q63 -1 108 12t78 36.5t58.5 55t50.5 67.5q11 -26 23 -48t30 -40.5t44.5 -34t67.5 -28.5l-29.5 -42t-28.5 -48q-10 -21 -11 -31t3.5 -11.5t13 5t19.5 18.5
q20 22 41 51.5t35 47.5q102 -19 190.5 -24.5t163.5 -3.5t135 8.5l105 11.5q71 -6 134.5 -7.5t122.5 0t114.5 3.5t110.5 2q30 0 62 6q0 15 0.5 42.5l1 57.5t1 56.5t0.5 39.5q-17 1 -35 0.5t-38 0.5h-28q-10 0 -18.5 0.5t-18.5 0.5h-26zM639 185q45 42 99.5 85.5t114.5 79
t124 56t128 16.5q64 -2 120.5 -45.5t103.5 -142.5q-10 -8 -41.5 -16t-77 -16t-101.5 -15.5t-115 -12.5t-116 -7.5t-105.5 -2t-83.5 5.5t-50 15zM621 935q-5 -8 -6 -13t5 -13q8 -11 25 -27.5t36.5 -33.5t39 -32t32.5 -22q17 -11 27 7q23 31 47 60t46 61q5 6 6 10.5t-4 9.5
q-24 25 -60.5 53t-72.5 59q-6 5 -12 5.5t-14 -9.5q-6 -6 -19.5 -22.5l-28.5 -34.5l-28.5 -34.5t-18.5 -23.5z" />
    <glyph glyph-name="sf277.034" unicode="&#x636;" horiz-adv-x="2165" arabic-form="final" 
d="M71 -210q10 -86 47.5 -151t95.5 -108.5t131.5 -65t154.5 -21.5q64 0 135 16.5t137.5 49t123 81.5t91.5 114q20 60 31 109.5t16.5 89t7 70.5l2.5 53q71 -17 141 -25t140 -8.5t141 4t143 11.5q138 -12 289 -12t299 6q1 21 1.5 47.5l1 54t0.5 52.5v46l-101 -2l-102 -2v3
l40.5 83.5l21 43.5t8 17.5t1.5 4.5q-12 64 -41 116.5t-69.5 89.5t-89 57t-98.5 20q-124 0 -282 -103t-339 -309h-1q-52 0 -89 20.5t-64 53t-47 73t-37 79.5q0 2 -3.5 6.5t-7.5 -6.5l-24 -75.5l-24 -75.5q10 -43 31 -101.5t40 -123.5t31.5 -132.5t6.5 -128.5
q-29 -39 -78.5 -69t-109 -51t-123 -33t-119.5 -13q-80 3 -148.5 24.5t-119 63t-78.5 102.5t-27 143q0 19 1.5 44.5t11.5 65t32 98t63 142.5q12 23 13 31.5t-4.5 7t-15 -11t-19.5 -22.5q-54 -81 -87.5 -148t-52.5 -130.5t-25 -127.5t-4 -137zM1234 204q21 22 52 50t68 56
t77.5 55t80.5 48t77.5 33t68.5 11q36 2 73.5 -8.5t72 -34.5t63.5 -63t48 -94q-33 -18 -84.5 -31.5t-113 -22.5t-128.5 -13.5t-131 -4.5t-121.5 5t-102.5 14zM1332 899q-5 -8 -6 -13t5 -13q8 -11 25 -27.5t36.5 -33.5t39 -32t32.5 -22q17 -11 27 7q23 31 47 60t46 61
q5 6 6 10.5t-4 9.5q-24 25 -60.5 53t-72.5 59q-6 5 -12 5.5t-14 -9.5q-6 -6 -19.5 -22.5l-28.5 -34.5l-28.5 -34.5t-18.5 -23.5z" />
    <glyph glyph-name="sf311" unicode="&#x637;" horiz-adv-x="1038" arabic-form="initial" 
d="M-33 0h35h10t11 -1q63 0 137 -1t149 1q65 2 143 10.5t154.5 26.5t144.5 45.5t113 67.5q10 24 28.5 50.5l36 51t29.5 44t9 30.5q-14 70 -46 122.5t-75.5 87t-95 52t-103.5 17.5q-62 0 -121.5 -18.5t-115 -48.5t-106 -68t-94.5 -78q20 45 26.5 103t4.5 122t-10.5 130.5
t-17.5 128.5l-16.5 116t-8.5 93l48 88l24.5 45.5l9 17.5t1.5 4q-2 13 -15.5 25.5t-31.5 25.5l-37.5 27.5t-34 31.5t-20.5 37t3 44q8 22 4.5 29.5t-17.5 -9.5l-26.5 -37t-37 -56t-33 -58t-14.5 -44q0 -20 7.5 -36.5t20 -31.5t28 -29.5l31.5 -29.5v-162q12 -109 21.5 -183.5
l16.5 -127l12 -89t6.5 -70.5t0.5 -71t-5 -90l-32 -34.5l-37.5 -40.5l-33.5 -36.5t-21 -22.5q-23 0 -41 -0.5t-19 -0.5q-1 -7 -1 -18v-24q0 -19 0.5 -42t0.5 -45t0.5 -41t0.5 -30zM125 173q37 48 90.5 96.5t113.5 87t121.5 63t114.5 24.5q40 0 76 -15.5t66 -40.5t54.5 -58
t42.5 -67q-93 -29 -176.5 -49.5t-164.5 -32t-164 -14t-174 5.5z" />
    <glyph glyph-name="sf329" unicode="&#x637;" horiz-adv-x="1131" arabic-form="medial" 
d="M1166 202q-20 1 -44 1q-23 0 -48 1q-22 0 -55 -0.5t-71 -0.5q7 12 21.5 31l29.5 39.5t27 40t15 33.5q-35 104 -88.5 165.5t-118.5 88.5t-137.5 22t-146.5 -33t-145.5 -76.5t-133.5 -109.5q24 72 23 157.5t-13.5 176t-29 182.5t-23.5 177l45 81t35 68q1 12 -11.5 24
t-31 25l-39 27.5t-36.5 32t-23 37.5t2 44q4 11 5.5 19.5t0 12t-6.5 1.5t-14 -13l-35.5 -52.5t-33.5 -55.5t-24.5 -49t-9.5 -33q0 -22 8.5 -39t21 -32t28 -28t30.5 -27v-83q0 -22 0.5 -42.5t3.5 -35.5l31 -225l22 -163.5t13.5 -113t5.5 -72t-1.5 -41.5t-7.5 -21
q-57 -66 -87 -104t-44 -38l-108 -1l-2 -200q88 0 152.5 2t118.5 4l104.5 4t110.5 2q165 -10 326 -11t324 -1q30 0 62 6q0 15 0.5 42.5l1 57.5t1 56.5t0.5 39.5zM192 194q38 42 83.5 85.5t96.5 81.5t105.5 66t111.5 39q90 18 159.5 -22t134.5 -146q-10 -14 -49.5 -28
t-98 -27.5t-130 -24.5t-145 -18t-143.5 -9t-125 3z" />
    <glyph glyph-name="sf277.006" unicode="&#x637;" horiz-adv-x="1548" arabic-form="final" 
d="M1583 203h-16t-16 1q-47 0 -91 -0.5t-95 -2.5q10 25 29 50l37.5 48.5t31.5 45t10 41.5q0 36 -19.5 74t-49.5 71t-66.5 57.5t-70.5 33.5q-79 22 -155.5 8t-147 -49.5t-134.5 -85.5t-119 -99q7 17 11 39.5t6.5 46t2.5 45.5t-1 39q0 22 -2.5 50.5t-9.5 83.5t-20 146l-34 237
l40.5 78l38.5 76q-2 12 -15.5 23.5t-32 24l-38.5 26.5t-35 31.5t-21 39t3 48.5q8 18 3 23.5t-19 -11.5q-15 -20 -33 -47.5t-34 -55.5t-26.5 -51.5t-10.5 -35.5q0 -21 9 -39t22.5 -34t29.5 -30l30 -26q0 -18 -0.5 -39t-0.5 -42q0 -20 0.5 -40.5t3.5 -35.5l26 -167.5
l19 -128.5t13 -100t8 -81.5t4 -72.5t1 -74q-15 -15 -35 -39.5l-41 -51l-41 -52.5l-35 -44q-23 -6 -58 -8t-76 0.5t-85 8.5t-85 16q-18 6 -46.5 11t-49.5 5t-26 -7.5t24 -27.5q88 -50 152 -90.5t118 -69.5q23 -14 48 -17t51.5 -1.5t52.5 3.5t51 -2q74 10 129.5 15.5t107.5 8
t110 3t137.5 0t190 -1.5t267.5 -1q35 0 70 6q0 15 0.5 42.5l1 57.5t1 57t0.5 40zM1132 463q27 -8 57 -25.5t56 -41t46 -52t27 -58.5q3 -2 -32.5 -13l-104.5 -31q-44 -12 -101.5 -24.5t-133 -24t-172.5 -21.5t-220 -17q17 14 49.5 46t76.5 71t97.5 78.5t112 69t120 43
t122.5 0.5z" />
    <glyph glyph-name="sf311.001" unicode="&#x638;" horiz-adv-x="1037" arabic-form="initial" 
d="M425 968q-5 -8 -6 -13t5 -13q8 -11 25 -27.5t36.5 -33.5t39 -32t32.5 -22q17 -11 27 7q23 31 47 60t46 61q5 6 6 10.5t-4 9.5q-24 25 -60.5 53t-72.5 59q-6 5 -12 5.5t-14 -9.5q-6 -6 -20 -22l-29 -34.5l-28 -35t-18 -23.5zM-33 1h35h10t11 -1q63 0 137 -1t149 1
q65 2 143 10.5t154.5 26.5t144.5 45.5t113 67.5q10 24 28.5 50.5l36 51t29.5 44t9 30.5q-14 70 -46 122.5t-75.5 87t-95 52t-103.5 17.5q-62 0 -121.5 -18.5t-115 -48.5t-106 -68t-94.5 -78q20 45 26.5 103t4.5 122t-10.5 130.5t-17.5 128.5l-16.5 116t-8.5 93l48 88
l24.5 45.5l9 17.5t1.5 4q-2 13 -15.5 25.5t-31.5 25.5l-37.5 27.5t-34 31.5t-20.5 37t3 44q8 22 4.5 29.5t-17.5 -9.5l-26.5 -37t-37 -56t-33 -58t-14.5 -44q0 -20 7.5 -36.5t20 -31.5t28 -29.5l31.5 -29.5v-162q12 -109 21.5 -183.5l16.5 -127l12 -89t6.5 -70.5t0.5 -71
t-5 -90l-32 -34.5l-37.5 -40.5l-33.5 -36.5t-21 -22.5q-23 0 -41 -0.5t-19 -0.5q-1 -7 -1 -18v-24q0 -19 0.5 -42t0.5 -45t0.5 -41t0.5 -30zM125 174q37 48 90.5 96.5t113.5 87t121.5 63t114.5 24.5q40 0 76 -15.5t66 -40.5t54.5 -58t42.5 -67q-93 -29 -176.5 -49.5
t-164.5 -32t-164 -14t-174 5.5z" />
    <glyph glyph-name="sf329.001" unicode="&#x638;" horiz-adv-x="1131" arabic-form="medial" 
d="M1166 202q-20 1 -44 1q-23 0 -48 1q-22 0 -55 -0.5t-71 -0.5q7 12 21.5 31l29.5 39.5t27 40t15 33.5q-35 104 -88.5 165.5t-118.5 88.5t-137.5 22t-146.5 -33t-145.5 -76.5t-133.5 -109.5q24 72 23 157.5t-13.5 176t-29 182.5t-23.5 177l45 81t35 68q1 12 -11.5 24
t-31 25l-39 27.5t-36.5 32t-23 37.5t2 44q4 11 5.5 19.5t0 12t-6.5 1.5t-14 -13l-35.5 -52.5t-33.5 -55.5t-24.5 -49t-9.5 -33q0 -22 8.5 -39t21 -32t28 -28t30.5 -27v-83q0 -22 0.5 -42.5t3.5 -35.5l31 -225l22 -163.5t13.5 -113t5.5 -72t-1.5 -41.5t-7.5 -21
q-57 -66 -87 -104t-44 -38l-108 -1l-2 -200q88 0 152.5 2t118.5 4l104.5 4t110.5 2q165 -10 326 -11t324 -1q30 0 62 6q0 15 0.5 42.5l1 57.5t1 56.5t0.5 39.5zM192 194q38 42 83.5 85.5t96.5 81.5t105.5 66t111.5 39q90 18 159.5 -22t134.5 -146q-10 -14 -49.5 -28
t-98 -27.5t-130 -24.5t-145 -18t-143.5 -9t-125 3zM442 983q-5 -8 -6 -13t5 -13q8 -11 25 -27.5t36.5 -33.5t39 -32t32.5 -22q17 -11 27 7q23 31 47 60t46 61q5 6 6 10.5t-4 9.5q-24 25 -60.5 53t-72.5 59q-6 5 -12 5.5t-14 -9.5q-6 -6 -19.5 -22.5l-28.5 -34.5l-28.5 -34.5
t-18.5 -23.5z" />
    <glyph glyph-name="sf277.035" unicode="&#x638;" horiz-adv-x="1548" arabic-form="final" 
d="M1583 203h-16t-16 1q-47 0 -91 -0.5t-95 -2.5q10 25 29 50l37.5 48.5t31.5 45t10 41.5q0 36 -19.5 74t-49.5 71t-66.5 57.5t-70.5 33.5q-79 22 -155.5 8t-147 -49.5t-134.5 -85.5t-119 -99q7 17 11 39.5t6.5 46t2.5 45.5t-1 39q0 22 -2.5 50.5t-9.5 83.5t-20 146l-34 237
l40.5 78l38.5 76q-2 12 -15.5 23.5t-32 24l-38.5 26.5t-35 31.5t-21 39t3 48.5q8 18 3 23.5t-19 -11.5q-15 -20 -33 -47.5t-34 -55.5t-26.5 -51.5t-10.5 -35.5q0 -21 9 -39t22.5 -34t29.5 -30l30 -26q0 -18 -0.5 -39t-0.5 -42q0 -20 0.5 -40.5t3.5 -35.5l26 -167.5
l19 -128.5t13 -100t8 -81.5t4 -72.5t1 -74q-15 -15 -35 -39.5l-41 -51l-41 -52.5l-35 -44q-23 -6 -58 -8t-76 0.5t-85 8.5t-85 16q-18 6 -46.5 11t-49.5 5t-26 -7.5t24 -27.5q88 -50 152 -90.5t118 -69.5q23 -14 48 -17t51.5 -1.5t52.5 3.5t51 -2q74 10 129.5 15.5t107.5 8
t110 3t137.5 0t190 -1.5t267.5 -1q35 0 70 6q0 15 0.5 42.5l1 57.5t1 57t0.5 40zM1132 463q27 -8 57 -25.5t56 -41t46 -52t27 -58.5q3 -2 -32.5 -13l-104.5 -31q-44 -12 -101.5 -24.5t-133 -24t-172.5 -21.5t-220 -17q17 14 49.5 46t76.5 71t97.5 78.5t112 69t120 43
t122.5 0.5zM876 973q-5 -8 -6 -13t5 -13q8 -11 25 -27.5t36.5 -33.5t39 -32t32.5 -22q17 -11 27 7q23 31 47 60t46 61q5 6 6 10.5t-4 9.5q-24 25 -60.5 53t-72.5 59q-6 5 -12 5.5t-14 -9.5q-6 -6 -19.5 -22.5l-28.5 -34.5l-28.5 -34.5t-18.5 -23.5z" />
    <glyph glyph-name="sf299" unicode="&#x639;" horiz-adv-x="1060" arabic-form="initial" 
d="M41 201h-72v-201q21 0 48.5 0.5l55 1t52.5 1.5t40 1q207 7 345 13t222.5 11.5t121.5 8.5t41 4q10 3 25 23.5t29 48.5t25 57.5t14 50.5q2 10 0.5 12.5t-12.5 0.5q-69 -15 -132 -23t-129 -6q-44 1 -92 4t-96 12.5t-94 28t-84.5 49.5t-68 77.5t-45.5 112.5q1 12 29.5 31.5
t71.5 38.5t94.5 33t99.5 14q34 0 72.5 -5.5t75.5 -13t70 -15t57.5 -11.5t38 -3t10.5 11q-24 52 -73 88.5t-105 59t-109 32t-86 8.5q-60 -1 -104 -14t-77 -38.5t-58 -63t-47 -87.5q-19 -43 -33 -80t-17 -76t9 -84.5t45 -105.5q-24 -2 -44 -3.5t-38 -2l-36.5 -1t-39.5 -0.5z
" />
    <glyph glyph-name="sf318" unicode="&#x639;" horiz-adv-x="794" arabic-form="medial" 
d="M829 202q-20 1 -42 1h-45q-28 4 -57.5 10t-57 16.5t-52.5 26.5t-44 40q28 43 52 91t24 104q0 28 -14.5 47t-37.5 31t-51.5 18.5t-57.5 9t-54.5 3t-42.5 0.5q-27 0 -67 -1.5t-78.5 -11t-68 -29.5t-35.5 -57q-1 -6 -3.5 -23t-6 -36l-6.5 -36l-4 -23v-10q0 -6 2 -11.5
t10 -3.5q54 10 112 -4t109 -64q-36 -26 -79 -42t-88.5 -25t-91.5 -13.5t-89 -7.5v-201q54 -3 117.5 6.5t124.5 30.5t113.5 53.5t84.5 74.5q38 -48 76.5 -79.5t81 -51t92 -27.5t109.5 -8q30 0 62 6q0 15 0.5 42.5l1 57.5t1 56.5t0.5 39.5z" />
    <glyph glyph-name="sf277.008" unicode="&#x639;" horiz-adv-x="885" arabic-form="final" 
d="M70 -283q0 -125 38.5 -226.5t110.5 -173.5t175.5 -110t234.5 -35q51 3 106 11.5t110.5 20.5t109 25.5t100 27.5t83.5 26.5t61 21.5q38 12 52 19.5t12.5 12t-14 6t-27 2t-27 0t-14.5 -0.5q-81 -4 -157 -6t-157 -2q-79 0 -155.5 5.5t-154.5 25.5q-80 21 -155.5 61.5
t-134.5 98.5t-95 132.5t-36 163.5q0 136 70.5 235t203.5 178q8 2 8 -4q11 -53 41 -91.5t71 -66t91 -43.5t102.5 -24t103.5 -8t95 5v198q-49 -1 -101 4.5t-103.5 18t-100.5 33.5t-91 51q64 42 105 76t64.5 62t33 50.5t11.5 42.5q1 27 -27.5 46.5t-73.5 31.5t-100 18
t-106.5 7.5t-93 -0.5t-59.5 -6l-56 -9t-41.5 -12.5t-29.5 -24t-20 -43.5q-8 -30 -15.5 -61.5t-3.5 -64.5q3 -4 9 -3t16 3.5t23 5t29 2.5q14 2 36.5 -2.5t46 -15.5t45.5 -29t36 -43q2 -5 0.5 -8t-4.5 -5q-143 -124 -211.5 -275.5t-69.5 -334.5z" />
    <glyph glyph-name="sf299.001" unicode="&#x63a;" horiz-adv-x="1060" arabic-form="initial" 
d="M530 606q34 0 72.5 -5.5t75.5 -13t70 -15t57.5 -11.5t38 -3t10.5 11q-24 52 -73 88.5t-105 59t-109 32t-86 8.5q-60 -1 -104 -14t-77 -38.5t-58 -63t-47 -87.5q-19 -43 -33 -80t-17 -76t9 -84.5t45 -105.5q-39 -3 -69 -4.5t-57 -1.5h-51q-24 0 -53 -1q0 -12 -0.5 -39.5
t-1.5 -58t-1.5 -58t-0.5 -38.5q16 -5 46.5 -6t55.5 0q236 7 393.5 14t252.5 12.5t136 9t46 4.5q10 3 25 23.5t29 48.5t25 57.5t14 50.5q2 10 0.5 12.5t-12.5 0.5q-69 -15 -132 -23t-129 -6q-44 1 -92 4t-96 12.5t-94 28t-84.5 49.5t-68 77.5t-45.5 112.5q1 12 29.5 31.5
t71.5 38.5t94.5 33t99.5 14zM293 1118q-5 -8 -6 -13t5 -13q8 -11 25 -27.5t36.5 -33.5t39 -32t32.5 -22q17 -11 27 7q23 31 47 60t46 61q5 6 6 10.5t-4 9.5q-24 25 -60.5 53t-72.5 59q-6 5 -12 5.5t-14 -9.5q-6 -6 -19.5 -22.5l-28.5 -34.5l-28.5 -34.5t-18.5 -23.5z" />
    <glyph glyph-name="sf318.001" unicode="&#x63a;" horiz-adv-x="794" arabic-form="medial" 
d="M829 202q-20 1 -42 1h-45q-28 4 -57.5 10t-57 16.5t-52.5 26.5t-44 40q28 43 52 91t24 104q0 28 -14.5 47t-37.5 31t-51.5 18.5t-57.5 9t-54.5 3t-42.5 0.5q-27 0 -67 -1.5t-78.5 -11t-68 -29.5t-35.5 -57q-1 -6 -3.5 -23t-6 -36l-6.5 -36l-4 -23v-10q0 -6 2 -11.5
t10 -3.5q54 10 112 -4t109 -64q-36 -26 -79 -42t-88.5 -25t-91.5 -13.5t-89 -7.5v-201q54 -3 117.5 6.5t124.5 30.5t113.5 53.5t84.5 74.5q38 -48 76.5 -79.5t81 -51t92 -27.5t109.5 -8q30 0 62 6q0 15 0.5 42.5l1 57.5t1 56.5t0.5 39.5zM204 982q-5 -8 -6 -13t5 -13
q8 -11 25 -27.5t36.5 -33.5t39 -32t32.5 -22q17 -11 27 7q23 31 47 60t46 61q5 6 6 10.5t-4 9.5q-24 25 -60.5 53t-72.5 59q-6 5 -12 5.5t-14 -9.5q-6 -6 -19.5 -22.5l-28.5 -34.5l-28.5 -34.5t-18.5 -23.5z" />
    <glyph glyph-name="sf277.036" unicode="&#x63a;" horiz-adv-x="885" arabic-form="final" 
d="M70 -283q0 -125 38.5 -226.5t110.5 -173.5t175.5 -110t234.5 -35q51 3 106 11.5t110.5 20.5t109 25.5t100 27.5t83.5 26.5t61 21.5q38 12 52 19.5t12.5 12t-14 6t-27 2t-27 0t-14.5 -0.5q-81 -4 -157 -6t-157 -2q-79 0 -155.5 5.5t-154.5 25.5q-80 21 -155.5 61.5
t-134.5 98.5t-95 132.5t-36 163.5q0 136 70.5 235t203.5 178q8 2 8 -4q11 -53 41 -91.5t71 -66t91 -43.5t102.5 -24t103.5 -8t95 5v198q-49 -1 -101 4.5t-103.5 18t-100.5 33.5t-91 51q64 42 105 76t64.5 62t33 50.5t11.5 42.5q1 27 -27.5 46.5t-73.5 31.5t-100 18
t-106.5 7.5t-93 -0.5t-59.5 -6l-56 -9t-41.5 -12.5t-29.5 -24t-20 -43.5q-8 -30 -15.5 -61.5t-3.5 -64.5q3 -4 9 -3t16 3.5t23 5t29 2.5q14 2 36.5 -2.5t46 -15.5t45.5 -29t36 -43q2 -5 0.5 -8t-4.5 -5q-143 -124 -211.5 -275.5t-69.5 -334.5zM274 1032q-5 -8 -6 -13t5 -13
q8 -11 25 -27.5t36.5 -33.5t39 -32t32.5 -22q17 -11 27 7q23 31 47 60t46 61q5 6 6 10.5t-4 9.5q-24 25 -60.5 53t-72.5 59q-6 5 -12 5.5t-14 -9.5q-6 -6 -19.5 -22.5l-28.5 -34.5l-28.5 -34.5t-18.5 -23.5z" />
    <glyph glyph-name="sf301" unicode="&#x641;" horiz-adv-x="569" arabic-form="initial" 
d="M418 140q21 51 39 101.5l37 101.5q7 32 2.5 83t-19 108t-38 115t-55.5 105.5t-71 78t-84 33.5q-36 0 -66 -17t-55 -45.5t-44.5 -64.5t-33.5 -73t-22.5 -73t-11.5 -63q0 -33 13 -63.5t35.5 -54t52.5 -37t63 -12.5q36 0 59.5 13t40.5 35t31 50.5t31 59.5
q35 -60 51.5 -128.5t22.5 -140.5q-55 -17 -108 -27t-106.5 -15.5t-107 -7t-109.5 -1.5v-201q62 0 130 3t131 17t114 42t78 78zM99 620q16 18 37.5 34t47.5 16q12 0 26.5 -7t28 -18.5t25 -26.5t17.5 -31q-18 -10 -38.5 -19.5t-41.5 -9.5q-12 0 -27.5 5t-31 13.5t-27.5 19.5
t-16 24zM44 1153q-5 -8 -6 -13t5 -13q8 -11 25 -27.5t36.5 -33.5t39 -32t32.5 -22q17 -11 27 7q23 31 47 60t46 61q5 6 6 10.5t-4 9.5q-24 25 -60.5 53t-72.5 59q-6 5 -12 5.5t-14 -9.5q-6 -6 -19.5 -22.5l-28.5 -34.5l-28.5 -34.5t-18.5 -23.5z" />
    <glyph glyph-name="sf321" unicode="&#x641;" horiz-adv-x="741" arabic-form="medial" 
d="M489 227q63 103 92.5 179.5t31.5 124.5q0 43 -12.5 90.5t-38 87.5t-63 65.5t-87.5 25.5q-42 0 -74.5 -19t-56 -50.5t-40 -71.5t-26.5 -81.5t-15.5 -81t-7.5 -70.5q-3 -19 1 -45t11.5 -52t16.5 -49.5t16 -36.5q-6 -5 -27 -12t-55.5 -13.5t-82 -11.5t-107.5 -5v-201
q67 -2 130 5.5t116 21t92.5 31.5t57.5 37q30 -35 71.5 -53.5t88.5 -27.5t96 -11t94 -3l30.5 2t31.5 4q0 15 0.5 42.5l1 56.5l1 55.5t0.5 39.5q-17 1 -35 1h-38q-58 1 -98 5t-65.5 8.5t-37.5 8.5t-13 4zM376 296q-10 12 -23 35t-26 50.5t-25 56.5t-20.5 54t-12.5 43t0 23
q20 28 45.5 41.5t50.5 13.5q27 0 52.5 -13t47.5 -39t38.5 -64t24.5 -87q3 -11 -15 -29t-43.5 -36t-52 -32t-41.5 -17zM257 1182q-5 -8 -6 -13t5 -13q8 -11 25 -27.5t36.5 -33.5t39 -32t32.5 -22q17 -11 27 7q23 31 47 60t46 61q5 6 6 10.5t-4 9.5q-24 25 -60.5 53t-72.5 59
q-6 5 -12 5.5t-14 -9.5q-6 -6 -19.5 -22.5l-28.5 -34.5l-28.5 -34.5t-18.5 -23.5z" />
    <glyph glyph-name="sf277.009" unicode="&#x641;" horiz-adv-x="1819" arabic-form="final" 
d="M71 410q0 -83 23.5 -146t64 -110t96.5 -79t120.5 -51t135.5 -27.5t143 -8.5q194 0 393 44t406 119q31 -49 78.5 -80.5t102.5 -48.5t112 -21t108 2v199q-50 0 -87.5 2t-67.5 7t-53 13t-44 19q31 16 53 52.5t36 79.5t19.5 85.5t4.5 71.5q-3 43 -15 94t-35.5 95t-60 73.5
t-88.5 29.5q-36 0 -65 -9.5t-51.5 -25t-40 -36.5t-30.5 -44q-6 -13 -12 -36.5t-12 -53t-10.5 -64t-7.5 -69.5q-1 -27 17.5 -70.5t58.5 -113.5q-12 -6 -51 -17.5t-93 -24t-116.5 -25t-122.5 -19.5q-65 -11 -153 -18t-182 -3.5t-185 21t-162.5 56t-114.5 101t-40 156.5
q0 3 2.5 23.5l6.5 51t9.5 67.5t12.5 74q2 12 -5 13.5t-16 -11.5q-8 -11 -17 -35.5l-18 -51.5t-15.5 -49t-7.5 -27l-9 -39.5t-9 -46t-6 -47t0 -41.5zM1359 560q23 28 52 46t66 18q66 -2 105 -53.5t58 -148.5q3 -3 -5.5 -10.5t-24 -16.5t-34 -18.5l-35.5 -18l-28.5 -14
t-12.5 -6.5q-43 52 -78 106.5t-63 115.5zM1319 1118q-5 -8 -6 -13t5 -13q8 -11 25 -27.5t36.5 -33.5t39 -32t32.5 -22q17 -11 27 7q23 31 47 60t46 61q5 6 6 10.5t-4 9.5q-24 25 -60.5 53t-72.5 59q-6 5 -12 5.5t-14 -9.5q-6 -6 -19.5 -22.5l-28.5 -34.5l-28.5 -34.5
t-18.5 -23.5z" />
    <glyph glyph-name="sf301.001" unicode="&#x642;" horiz-adv-x="569" arabic-form="initial" 
d="M418 140q21 51 39 101.5l37 101.5q7 32 2.5 83t-19 108t-38 115t-55.5 105.5t-71 78t-84 33.5q-36 0 -66 -17t-55 -45.5t-44.5 -64.5t-33.5 -73t-22.5 -73t-11.5 -63q0 -33 13 -63.5t35.5 -54t52.5 -37t63 -12.5q36 0 59.5 13t40.5 35t31 50.5t31 59.5
q35 -60 51.5 -128.5t22.5 -140.5q-55 -17 -108 -27t-106.5 -15.5t-107 -7t-109.5 -1.5v-201q62 0 130 3t131 17t114 42t78 78zM99 620q16 18 37.5 34t47.5 16q12 0 26.5 -7t28 -18.5t25 -26.5t17.5 -31q-18 -10 -38.5 -19.5t-41.5 -9.5q-12 0 -27.5 5t-31 13.5t-27.5 19.5
t-16 24zM-31 1126l31.5 -26.5t26.5 -20.5l26 -18t31 -19q10 -7 25.5 -13t25.5 6l49 63l50 64q32 -32 62 -58.5t65 -48.5q6 -4 12 -5t15 10l48.5 63.5l49.5 63.5q5 6 3.5 12t-7.5 10q-1 1 -3.5 3l-15 12l-39 31l-74.5 60q-4 3 -9.5 5.5t-13.5 -5.5l-55.5 -67l-29 -35
t-11.5 -13t-12.5 1.5t-28.5 14.5t-35.5 24.5l-35 28t-36.5 28.5q-7 5 -12.5 6t-13.5 -8l-49 -67.5l-49 -67.5q-11 -19 10 -34z" />
    <glyph glyph-name="sf321.001" unicode="&#x642;" horiz-adv-x="741" arabic-form="medial" 
d="M489 227q63 103 92.5 179.5t31.5 124.5q0 43 -12.5 90.5t-38 87.5t-63 65.5t-87.5 25.5q-42 0 -74.5 -19t-56 -50.5t-40 -71.5t-26.5 -81.5t-15.5 -81t-7.5 -70.5q-3 -19 1 -45t11.5 -52t16.5 -49.5t16 -36.5q-6 -5 -27 -12t-55.5 -13.5t-82 -11.5t-107.5 -5v-201
q67 -2 130 5.5t116 21t92.5 31.5t57.5 37q30 -35 71.5 -53.5t88.5 -27.5t96 -11t94 -3l30.5 2t31.5 4q0 15 0.5 42.5l1 56.5l1 55.5t0.5 39.5q-17 1 -35 1h-38q-58 1 -98 5t-65.5 8.5t-37.5 8.5t-13 4zM376 296q-10 12 -23 35t-26 50.5t-25 56.5t-20.5 54t-12.5 43t0 23
q20 28 45.5 41.5t50.5 13.5q27 0 52.5 -13t47.5 -39t38.5 -64t24.5 -87q3 -11 -15 -29t-43.5 -36t-52 -32t-41.5 -17zM80 1089l31.5 -26.5t26.5 -20.5l26 -18t31 -19q10 -7 25.5 -13t25.5 6l49 63l50 64q32 -32 62 -58.5t65 -48.5q6 -4 12 -5t15 10l48.5 63.5l49.5 63.5
q5 6 3.5 12t-7.5 10q-1 1 -3.5 3l-15 12l-39 31l-74.5 60q-4 3 -9.5 5.5t-13.5 -5.5l-55.5 -67l-29 -35t-11.5 -13t-12.5 1.5t-28.5 14.5t-35.5 24.5l-35 28t-36.5 28.5q-7 5 -12.5 6t-13.5 -8l-49 -67.5l-49 -67.5q-11 -19 10 -34z" />
    <glyph glyph-name="sf277.010" unicode="&#x642;" horiz-adv-x="1179" arabic-form="final" 
d="M71 -197q0 -100 24.5 -178t74 -132t124 -82.5t175.5 -28.5q77 0 157 17t156 49.5t143.5 79t119.5 105.5q25 44 38 89.5t20.5 91.5t11.5 92.5t11 93.5q8 0 19.5 0.5l23.5 1t23 1.5t19 3l3 196h-30t-34.5 0.5t-33 1.5t-25.5 3q-15 65 -37.5 118.5t-50.5 91t-61 58t-70 20.5
q-38 0 -72 -15.5t-63 -42t-52.5 -60.5t-39.5 -71.5t-25 -75.5t-9 -72q0 -100 100 -140t311 -30q4 -8 7 -23.5t4.5 -35t2 -41t0.5 -42.5t-1 -38.5t-1 -27.5q-54 -41 -117 -78t-132.5 -65t-143 -45t-147.5 -17q-77 0 -141.5 21.5t-111 62.5t-72 102t-25.5 140q0 54 9.5 105
t26.5 102q10 36 10 58q0 31 -18 13t-48 -98q-17 -39 -28 -85t-17 -87t-8 -70.5t0 -35.5zM826 301q26 1 48 -11t38.5 -29.5t27.5 -36t15 -29.5q-9 0 -39 0.5t-67 4.5t-73 12.5t-56 24.5q2 13 13 24.5t26.5 20t33.5 13.5t33 6zM567 740l31.5 -26.5t26.5 -21t26 -18t31 -18.5
q10 -7 25.5 -13t25.5 6l49 63l50 64q32 -32 62 -58.5t65 -48.5q6 -4 12 -5t15 10l48.5 63.5l49.5 63.5q5 6 3.5 12t-7.5 10q-1 1 -3.5 3l-15 12l-39 31l-74.5 60q-4 3 -9.5 5.5t-13.5 -5.5l-55.5 -67t-29.5 -35q-9 -11 -11 -13t-13 1q-12 4 -28.5 14.5t-34.5 24l-36.5 28.5
l-35.5 29q-7 5 -12.5 6t-13.5 -8l-49 -67.5l-49 -67.5q-10 -19 10 -34z" />
    <glyph glyph-name="sf302.001" unicode="&#x6a9;" horiz-adv-x="784" arabic-form="initial" 
d="M-35 201q-1 -52 -1.5 -100t-1.5 -100h42h63q48 0 97.5 2.5t94 9t80 19t56.5 33.5q63 79 85.5 149t13.5 135.5t-46 128.5t-94 129q-1 0 -86 90t-264 251l200.5 90.5l158 69l140.5 61l147 66.5q4 0 22 18l39.5 41l40.5 44t25 27q11 14 5 17.5t-18 -2.5l-313 -117
l-219.5 -86.5t-144 -62t-87.5 -42.5t-50 -27.5l-31 -18.5q-11 -8 -23.5 -31t-23.5 -51t-18 -55.5t-5 -43.5q3 -18 17.5 -50t33 -62t37 -51t29.5 -18q9 2 12 19t7 44l73.5 -67.5l83 -77.5l85 -84t79.5 -87t66.5 -88t45.5 -85q-32 -9 -63 -16t-66 -11.5t-77.5 -6.5t-97.5 -2
h-74t-75 -1z" />
    <glyph glyph-name="sf322.003" unicode="&#x6a9;" horiz-adv-x="990" arabic-form="medial" 
d="M-33 200q-1 -52 -1.5 -100t-1.5 -100h42q25 0 64.5 1t86 3.5t94.5 7.5t90 12.5t73.5 18.5t44.5 26q37 46 59 88.5t33 84.5l53 -75l53 -73q25 -36 60.5 -55t76 -28t83.5 -10t83 -1q30 0 62 6q0 15 0.5 42.5l1 57.5t1 56.5t0.5 39.5q-8 1 -18 1h-19h-41q-76 0 -149 28.5
t-124 87.5l-89.5 105.5l-64 75l-49 56l-44.5 48.5l-52 52.5l-70 68l-98.5 94.5l-138.5 133l200.5 90.5l158 69l140.5 61l147 66.5q4 0 22 18l39.5 41l40.5 44t25 27q11 14 5 17.5t-18 -2.5l-313 -117l-219.5 -86.5t-144 -61.5t-87.5 -42t-50 -28t-31 -19q-11 -8 -23.5 -31
t-23.5 -51t-18 -55.5t-5 -43.5q3 -18 17.5 -50t33 -62t37 -51t29.5 -18q9 2 12 19t7 44l73.5 -67.5l83 -77.5l85 -84t79.5 -87t66.5 -88t45.5 -85q-40 -14 -97 -22t-125 -12t-143 -5.5t-150 -2.5z" />
    <glyph glyph-name="sf322.004" unicode="&#x6a9;" horiz-adv-x="2091" arabic-form="final" 
d="M70 249q1 -74 24.5 -127.5t63 -91.5t92 -61.5t111 -36.5t120 -18t119.5 -5q109 0 220 11t218.5 35.5t210.5 65t197 99.5q21 24 33.5 50t18.5 52.5t7.5 53.5t1.5 54q0 19 1.5 37.5t3.5 37.5q7 -9 22.5 -26.5t43.5 -52l70 -90l102 -140.5q27 -36 63 -55.5t76.5 -28t84 -9.5
t85.5 -1q14 0 32.5 2.5t31.5 4.5l2 195q-59 -2 -110 1.5t-96 17t-86 40.5t-80 73l-131 152l-127 142l-125.5 136l-127.5 136q-12 12 -11 17t15 12q56 25 134.5 56.5l164 63.5l169.5 63l152 55q45 16 67.5 28l22.5 12l68.5 71.5t47.5 56.5q8 12 2 15t-18 -2l-398.5 -144.5
l-400.5 -143.5q-59 -23 -87 -47t-42.5 -49.5t-22 -52.5t-24.5 -56q-10 -19 -0.5 -45.5t27.5 -56.5t40 -61.5t38 -60.5q6 -10 12 -7t9 12q4 14 5.5 27t2.5 26q37 -28 74.5 -76t68.5 -104t53 -113.5t28 -103.5q-73 -45 -169.5 -79t-204 -57t-220 -34.5t-216.5 -11.5
q-49 0 -104.5 3.5t-110 13.5t-104.5 29t-88 51t-61 78t-23 110q0 21 3.5 41.5t8.5 41.5q7 33 9 53t-1.5 23t-13.5 -13t-27 -56q-23 -57 -35 -118.5t-12 -119.5z" />
    <glyph glyph-name="sf302.002" unicode="&#x6af;" horiz-adv-x="855" arabic-form="initial" 
d="M634 1383l40.5 35.5l34.5 28.5l30 24.5t27 24.5q7 7 5 11.5t-15 -0.5l-336 -126.5l-345 -134.5q-8 -6 -27.5 -22l-42.5 -35.5l-44 -38t-32 -29.5q-14 -13 -11.5 -18t20.5 3l175 70.5l169.5 68l171.5 68zM-34 200q-1 -52 -1.5 -100t-1.5 -100h42h63q48 0 108.5 2.5t118 9
t104 19t67.5 33.5q63 79 85.5 149t13.5 135.5t-46 128.5t-94 129q-1 0 -86 90t-264 251l200.5 90.5l158 69l140.5 61l147 66.5q4 0 22 18l39.5 41l40.5 44t25 27q11 14 5 17.5t-18 -2.5l-313 -117l-219.5 -86.5t-144 -62t-87.5 -42.5t-50 -27.5l-31 -18.5q-11 -8 -23.5 -31
t-23.5 -51t-18 -55.5t-5 -43.5q3 -18 17.5 -50t33 -62t37 -51t29.5 -18q9 2 12 19t7 44l73.5 -68l83 -77l85 -83.5t79.5 -87.5t66.5 -88t45.5 -85q-68 -24 -165 -30t-209 -6h-74t-75 -1z" />
    <glyph glyph-name="sf322.001" unicode="&#x6af;" horiz-adv-x="990" arabic-form="medial" 
d="M628 1388l40.5 35.5l34.5 28.5l30 24.5t27 24.5q7 7 5 11.5t-15 -0.5l-336 -126.5l-345 -134.5q-8 -6 -27.5 -22l-42.5 -35.5l-44 -38t-32 -29.5q-14 -13 -11.5 -18t20.5 3l175 70.5l169.5 68l171.5 68zM-33 198q-1 -52 -1.5 -100t-1.5 -100h42h64t84 1t92.5 4.5t90 11.5
t75 20.5t47.5 31.5q37 46 59 88.5t33 84.5l53 -75l53 -73q25 -36 60.5 -55t76 -28t83.5 -10t83 -1q30 0 62 6q0 15 0.5 42.5l1 57.5t1 56.5t0.5 39.5q-8 1 -18 1h-19h-41q-76 0 -149 28.5t-124 87.5l-89.5 105.5l-64 75l-49 56l-44.5 48.5l-52 52.5l-70 68l-98.5 94.5
l-138.5 133l200.5 90.5l158 69l140.5 61l147 66.5q4 0 22 18l39.5 41l40.5 44t25 27q11 14 5 17.5t-18 -2.5l-313 -117l-219.5 -86.5t-144 -61.5t-87.5 -42t-50 -28t-31 -19q-11 -8 -23.5 -31t-23.5 -51t-18 -55.5t-5 -43.5q3 -18 17.5 -50t33 -62t37 -51t29.5 -18
q9 2 12 19t7 44l73.5 -67.5l83 -77.5l85 -84t79.5 -87t66.5 -88t45.5 -85q-40 -14 -97 -22t-125 -12t-143 -5.5t-150 -2.5z" />
    <glyph glyph-name="sf322.002" unicode="&#x6af;" horiz-adv-x="2091" arabic-form="final" 
d="M70 248q1 -74 24.5 -127.5t63 -91.5t92 -61.5t111 -36.5t120 -18t119.5 -5q109 0 220 11t218.5 35.5t210.5 65t197 99.5q21 24 33.5 50t18.5 52.5t7.5 53.5t1.5 54q0 19 1.5 37.5t3.5 37.5q7 -9 22.5 -26.5t43.5 -52l70 -90l102 -140.5q27 -36 63 -55.5t76.5 -28t84 -9.5
t85.5 -1q14 0 32.5 2.5t31.5 4.5l2 195q-59 -2 -110 1.5t-96 17t-86 40.5t-80 73l-131 152l-127 142l-125.5 136l-127.5 136q-12 12 -11 17t15 12q56 25 134.5 56.5l164 63.5l169.5 63l152 55q45 16 67.5 28l22.5 12l68.5 71.5t47.5 56.5q8 12 2 15t-18 -2l-398.5 -144.5
l-400.5 -143.5q-59 -23 -87 -47t-42.5 -49.5t-22 -52.5t-24.5 -56q-10 -19 -0.5 -45.5t27.5 -56.5t40 -61.5t38 -60.5q6 -10 12 -7t9 12q4 14 5.5 27t2.5 26q37 -28 74.5 -76t68.5 -104t53 -113.5t28 -103.5q-73 -45 -169.5 -79t-204 -57t-220 -34.5t-216.5 -11.5
q-49 0 -104.5 3.5t-110 13.5t-104.5 29t-88 51t-61 78t-23 110q0 21 3.5 41.5t8.5 41.5q7 33 9 53t-1.5 23t-13.5 -13t-27 -56q-23 -57 -35 -118.5t-12 -119.5zM1901 1434q26 20 16.5 24t-34.5 -7l-54.5 -20.5l-42.5 -16l-42 -16l-52 -20.5l-189 -70l-120.5 -45.5
l-67.5 -25.5t-31 -11l-16.5 -13.5l-39 -32.5l-47 -39.5l-39.5 -33.5q-20 -18 -15.5 -22.5t22.5 3.5q29 13 85.5 35.5l137.5 54l184.5 72l226.5 88.5l61 48.5z" />
    <glyph glyph-name="sf306" unicode="&#x644;" horiz-adv-x="334" arabic-form="initial" 
d="M-37 203v-202q32 -2 57 -1t46.5 5.5t40.5 12.5t39 20l21 42.5t26.5 56t25 63t15.5 63.5q0 80 -3.5 158t-9 156l-10.5 156t-8 157q12 25 28.5 52.5l31 51.5t23 41.5t5.5 22.5q-18 16 -45.5 34t-51.5 39t-39 46.5t-8 57.5q1 4 1.5 7t0.5 7q0 11 -7 11q-6 0 -20 -16
q-9 -17 -26 -41.5t-33 -50.5t-27.5 -52t-9.5 -46q0 -18 10 -34.5t22 -31t23.5 -27t14.5 -21.5q-1 -14 -3 -27.5t-3.5 -29t-1.5 -34.5q0 -18 3 -42l28 -289t24 -295q0 -4 -12 -7t-31 -4.5t-41 -3t-42 -2t-35 -1.5t-19 -2z" />
    <glyph glyph-name="sf325" unicode="&#x644;" horiz-adv-x="698" arabic-form="medial" 
d="M381 215q5 31 10 28.5t9 -28.5q8 -65 29 -107t54.5 -66t79.5 -33t105 -9q30 0 62 6q0 15 0.5 42.5l1 57.5t1 56.5t0.5 39.5q-16 1 -32.5 1.5t-35.5 0.5q-86 0 -136.5 50t-64.5 135q-36 214 -66 420t-55 404q-2 16 -7 18.5t-11 -18.5l-19 -81.5t-17.5 -89.5t-11.5 -91
t-1 -85q3 -57 9.5 -129.5t15 -152t19.5 -162t23 -159.5q-68 -35 -150 -48t-161 -13q-16 -1 -32 -1.5t-33 -0.5l-2 -199q28 -2 53.5 -1.5t49.5 2.5q53 7 105 19.5t95 36t73.5 61.5t39.5 96z" />
    <glyph glyph-name="sf277.011" unicode="&#x644;" horiz-adv-x="1326" arabic-form="final" 
d="M70 -139q4 -124 53.5 -213t131.5 -137.5t190 -54.5t230 36q99 45 168 104.5t111 138.5t57.5 179.5t7.5 227.5q32 -47 70.5 -77t82 -45.5t90.5 -18t96 4.5q0 38 1.5 73.5t1.5 73.5v49q-89 0 -150 29t-101.5 78.5t-63 115t-35 139.5t-18 151.5l-10.5 150.5
q-8 103 -13.5 203.5t-10.5 202.5q-2 18 -6 22.5t-9 0.5t-10 -15t-9 -25q-7 -25 -17.5 -75t-20 -108.5t-15 -116.5t-2.5 -100q9 -123 23.5 -260l27.5 -270.5t20 -254t1 -210.5q-80 -88 -188.5 -140.5t-228.5 -52.5q-108 1 -179 31.5t-112 80.5t-55.5 115t-9 134.5t28 139
t55.5 128.5q10 18 13 31t-0.5 17t-14.5 -4t-29 -32q-69 -105 -105 -217.5t-47 -229.5z" />
    <glyph glyph-name="sf307" unicode="&#x645;" horiz-adv-x="791" arabic-form="initial" 
d="M243 232l132.5 -97t107 -75.5t83.5 -48.5t63 -16l33.5 37.5t35.5 44.5t30.5 45.5t19.5 41.5q0 25 -0.5 67.5t-4.5 91.5t-13 98.5t-25.5 89.5t-42 64t-63.5 22q-38 0 -78 -19.5t-76.5 -45.5t-67.5 -52.5t-50 -39.5q-2 -2 -4 0.5l-4.5 5.5t-5.5 3t-8 -8l-46 -70.5
l-47 -69.5q-2 -5 -3 -14t-5 -13l-33.5 -29t-40 -23.5t-63.5 -15t-104 -3.5v-203q29 0 55.5 0.5t53.5 8.5q34 10 62 35t49 57t36 66.5t24 64.5zM397 374q14 13 37.5 27.5t49 22t50 4.5t39.5 -26q13 -25 20.5 -46.5t11.5 -42.5t6.5 -43.5l5.5 -47.5q-26 12 -53.5 29.5t-56 38
l-56.5 42.5z" />
    <glyph glyph-name="sf326" unicode="&#x645;" horiz-adv-x="1099" arabic-form="medial" 
d="M1069 -2q15 1 30.5 2.5t31.5 4.5q0 15 0.5 42.5l1 57.5t1 56.5t0.5 39.5q-20 0 -39 1t-36 4q-38 6 -75.5 17.5t-71.5 35.5q-46 32 -87.5 77.5t-82.5 102.5q-55 82 -100.5 103t-93.5 -6t-104.5 -96l-134.5 -168q-47 -27 -89.5 -41.5t-79.5 -21t-67.5 -8t-54.5 -1.5h-29
t-24 -1v-83t0.5 -54.5t1 -36t2.5 -27.5q65 -1 115 9.5t86.5 27t61.5 35.5t40 35.5t22 27t8 9.5q39 -31 82 -51.5t88.5 -35.5t93 -26.5l94.5 -23.5q22 0 39 14t30.5 33.5t24 40.5t19.5 34q26 -32 54.5 -56.5t64 -41t78.5 -25t99 -6.5zM586 351l30.5 -32l37.5 -39.5t34.5 -40
t20.5 -34.5q-33 8 -74 20t-81 26t-74.5 30t-53.5 32l59 34t62 17q20 0 39 -13z" />
    <glyph glyph-name="sf277.012" unicode="&#x645;" horiz-adv-x="889" arabic-form="final" 
d="M243 -331l-33.5 177l-22.5 121.5l-14 76.5t-7 42t-2.5 18t-0.5 5q0 17 20 33.5t50 30.5t65.5 24.5t67.5 15t55 2.5t28 -13q0 -23 -5.5 -44.5l-11.5 -43t-11.5 -43.5t-5.5 -44q0 -18 5 -43.5t20.5 -47t45 -35.5t78.5 -9q22 2 39 15.5t30 32t21.5 39.5t14 39t8.5 30t4 11
q50 -45 110 -53.5t128 -0.5q2 27 3 51t1 47v48v51q-56 -1 -108.5 15t-97.5 45.5t-80.5 71t-56.5 91.5q-1 5 -4 14t-7.5 18t-10 16t-11.5 7q-8 0 -13 -8t-9.5 -19t-8 -22.5t-7.5 -17.5q-82 -6 -148 -19t-116.5 -39.5t-84.5 -70.5t-52 -111q-18 -66 -31 -137t-3 -140
q7 -41 25 -117.5t35 -180.5t27 -232.5t3 -273.5q-1 -16 0.5 -27t5.5 -14t9 4t11 27q16 49 27.5 105.5t19 114.5t11.5 114t4.5 104.5t-2 87t-7.5 61.5z" />
    <glyph glyph-name="sf265.001.zz01" unicode="&#x6c1;" horiz-adv-x="906" arabic-form="initial" 
d="M497 -405q0 -25 7 -51.5t21 -49t35.5 -38t51.5 -17.5q22 0 39 9t28.5 24t17 33.5t5.5 37.5q2 13 -2 28.5t-11 29t-15.5 23t-15.5 9.5q-13 0 -20 -12.5t-11.5 -27t-9 -27t-13.5 -12.5q-12 0 -21.5 11.5t-16.5 26.5t-10.5 30.5t-3.5 24.5q-2 36 10 67.5t31.5 59.5t42 52
l42.5 45q8 9 9.5 15t-1.5 9t-9.5 2t-14.5 -7q-77 -57 -119 -135.5t-46 -159.5zM609 4q51 1 84 11t54 27q19 15 34 43.5t26 60.5t18 63t11 52q0 27 -6.5 61t-15.5 69t-19.5 68l-18.5 58q-6 17 -14.5 23t-22.5 -16l-20 -35l-21.5 -38.5t-19.5 -38.5t-14 -35q2 -11 9.5 -31
l16 -43t15.5 -45.5t7 -38.5q-8 -10 -34.5 -14t-61 -1t-72.5 14t-70 30.5t-53.5 47.5t-22.5 67v11q0 10 -3.5 16t-14.5 -7q-32 -38 -72 -71t-90 -57.5t-112.5 -38.5t-140.5 -13v-203q56 -2 111 9.5t103.5 38.5t88 69t65.5 101q20 -116 91 -165t185 -49z" />
    <glyph glyph-name="sf297" unicode="&#x6c1;" horiz-adv-x="785" arabic-form="medial" 
d="M513 -320l-33.5 41t-45 62.5t-39.5 76.5t-17 84q0 15 39 26.5t102 18.5t142 10t159 1v204q-75 -2 -148 -4.5t-135 -16t-109 -44t-69 -87.5l-36.5 -95.5t-31.5 -94.5q-19 18 -40 41.5t-38 50t-28.5 55.5t-11.5 58q18 10 33.5 30.5t28 46t23 53.5t18 54.5l13.5 48.5t10 35
q1 31 -8.5 75t-23 88t-28 83t-21.5 62q-2 7 -5.5 14.5t-7.5 11t-8.5 1t-7.5 -14.5l-30 -75l-28 -70q-2 -9 -2 -15t2 -15l24 -79.5l17.5 -56.5t13 -48.5t10.5 -54.5q-28 -16 -57 -24t-58 -11.5t-58 -3.5h-58v-201q33 -1 63.5 3.5t58.5 18.5q3 -95 28 -170t69.5 -138t106 -117
t137.5 -105q11 -7 21.5 0.5t19 24t16 39t13 46t9.5 44t6 33.5z" />
    <glyph glyph-name="sf277.013" unicode="&#x6c1;" horiz-adv-x="941" arabic-form="final" 
d="M550 371q5 -97 26 -165t60.5 -111.5t99.5 -65t144 -27.5q22 -1 44.5 -0.5t48.5 5.5q0 15 0.5 43l1 57.5t1 56t0.5 39.5q-68 0 -126 15t-102 46.5t-73 80.5t-39 116l-19.5 130l-16.5 113t-17 106t-21 109q-1 6 -3 11t-5 6.5t-6.5 -2t-6.5 -15.5q-10 -32 -19 -64t-19 -64
v-73l-120 -74.5t-120 -79.5q-14 -9 -33.5 -27t-41 -40.5t-43 -49t-38 -52t-27 -49t-10.5 -40.5q0 -19 12.5 -32.5t32.5 -22t44.5 -14t48 -8t43 -3t29.5 -0.5q45 0 86.5 6.5t76.5 23t62 44.5t43 71h2zM208 414l3 3t11 9.5l26 21.5l49 39.5l80 64.5l118 95q5 5 9 -4t7.5 -26
t6 -39t4.5 -42.5t3 -37.5t1 -23q-20 -24 -49 -38t-62 -21.5t-67 -9.5t-62.5 -1t-49.5 4t-28 5z" />
    <glyph glyph-name="sf305" unicode="&#x6be;" horiz-adv-x="888" arabic-form="initial" 
d="M815 210q7 56 -5 112.5t-38 111t-63 105t-79.5 94t-88 78.5t-87.5 58q-13 6 -22 9t-17 -14q-6 -13 -16 -42l-28 -83q-69 -34 -114 -89t-69 -114.5t-30 -115t3 -90.5q0 -8 -21.5 -14t-52 -9.5t-64 -5.5t-58.5 -2v-199q57 -1 104.5 2t91 13.5t86.5 30t90 52.5
q43 4 86.5 -5.5t85.5 -26.5t82 -39l77 -43q15 -9 24.5 -12t16.5 0t13.5 11.5t14.5 23.5l33 64t24 47.5t15 42.5t6 49zM493 268l20 63t14 46.5t10.5 44.5t10.5 58q20 -14 42 -38t43 -53t40 -61.5t33.5 -64.5t23 -60.5t8.5 -50.5q-25 12 -63.5 26.5t-76 30.5t-67 31t-38.5 28z
M214 367l28 37.5t32.5 36t37.5 27.5t43 11q30 0 49 -17t29.5 -42t13.5 -53t2 -50q-1 -1 -8.5 -6.5t-18.5 -12t-24 -12t-25 -7.5q-17 4 -41 12t-47.5 19.5t-43 25.5t-27.5 31z" />
    <glyph glyph-name="sf324" unicode="&#x6be;" horiz-adv-x="882" arabic-form="medial" 
d="M392 195q10 25 27 50.5t33 52t28 54t12 57.5q0 64 -6 123t-14.5 117t-18 116t-16.5 120q0 15 -8.5 12.5t-12.5 -10.5l-41 -70t-26.5 -49t-18.5 -39t-16.5 -40.5l-20.5 -52.5l-31 -75q-43 -88 -92.5 -177l-100.5 -183h-7h-26q-15 0 -33 -0.5t-30 -0.5q-9 0 -7 -200
q28 0 58 -0.5t58 -0.5q1 -3 0.5 -11t0.5 -14q23 -1 46.5 -0.5t44.5 1.5q-5 -54 11.5 -105.5t50 -96.5t82 -80.5t108.5 -58t129 -29.5t143 6q16 13 32.5 37.5t30 52t23 53t11.5 40.5q1 30 -10.5 58t-29.5 53.5t-39.5 49l-40.5 44.5q37 3 65.5 2.5l55.5 -1l55 -1t66 1.5v202
q-74 1 -137.5 -0.5t-125.5 -3.5t-125.5 -3.5t-136.5 -0.5zM254 1q60 -8 117 -23t108.5 -40t96.5 -61t80 -87q-56 -2 -117.5 11t-118 40t-101 67t-65.5 93zM344 628l22.5 -122.5t13 -71t6 -42.5t1.5 -36v-39q-12 -5 -42.5 -19l-68.5 -30.5t-79 -31.5t-74 -21
q66 88 119.5 188.5t101.5 224.5z" />
    <glyph glyph-name="sf324.001" unicode="&#x6be;" horiz-adv-x="1527" arabic-form="final" 
d="M668 10q0 -1 1.5 -5t4 -8.5t5.5 -8t5 -3.5q19 0 38 0.5t38 0.5q-3 -64 16.5 -119t55.5 -100t85 -78.5t106 -54.5t118.5 -29.5t121.5 -2.5q21 3 42 27.5t38 55.5t28 61t13 45q0 30 -10.5 58t-27 54t-37.5 50.5l-41 46.5q73 0 146.5 0.5t145.5 4.5q1 51 1.5 99t1.5 99
q-144 -2 -292 -1t-292 -5q44 44 70 85.5t38 84.5t13.5 90t-3.5 103l-20.5 139.5l-14.5 96t-10 61l-6 34.5q-4 22 -6.5 21.5t-13.5 -18.5l-39 -65t-28 -51.5t-22.5 -46.5l-22.5 -49.5l-27.5 -60l-38.5 -79.5l-93.5 -164l-91.5 -162q-30 -3 -72.5 -5.5t-92.5 -4t-104 -1.5
t-105 0.5t-97 3t-80 6.5q-2 0 -13 0.5t-19.5 -1.5t-9.5 -8t16 -18l213 -132q42 -26 87.5 -36t92.5 -12t94.5 0.5t94.5 1.5zM1218 -173q10 -12 16.5 -21t6 -14t-10.5 -6.5t-32 0.5q-52 5 -106 23t-102 47t-87 68.5t-61 86.5q53 -7 104.5 -20.5t99.5 -35.5t91 -53.5t81 -74.5z
M987 325q-26 -13 -58.5 -27.5t-68.5 -28t-73 -25.5t-73 -20q43 52 73.5 101t57.5 97t51 96l19.5 39.5t9.5 19.5q3 8 9.5 22l12.5 28l15 -78.5t12.5 -73.5t9 -73t3.5 -77z" />
    <glyph glyph-name="sf277.044" unicode="&#x6ba;" horiz-adv-x="1140" arabic-form="final" 
d="M160 -40q0 46 11 95t26 93t31 80.5t26 57.5q23 51 13.5 55t-38.5 -40q-47 -76 -79 -143.5t-50.5 -128.5t-25.5 -117.5t-2 -110.5q5 -84 37.5 -154.5t87.5 -121t129.5 -78.5t163.5 -28q61 0 129.5 14t134.5 45t125 81t103 121q29 81 40 162t11 166q36 -5 72 -7.5t70 3.5
v198q-61 -1 -104.5 14.5t-75.5 45.5t-56 72.5t-47 95.5q-2 6 -5.5 8t-6.5 -10l-43 -157q42 -110 66.5 -185.5t37 -128.5t15.5 -89t3 -66q-30 -44 -82 -77t-112.5 -55t-123 -33t-113.5 -11q-77 0 -144 22t-116.5 64.5t-78.5 105t-29 142.5z" />
    <glyph glyph-name="sf277" unicode="&#x627;" horiz-adv-x="518" arabic-form="final" 
d="M242 475q-11 101 -20 202l-18.5 201.5t-21 201.5t-27.5 202q-1 9 -4 12t-8 -11l-73 -184q25 -192 46 -386.5l42 -385.5q6 -93 41 -160t89 -107t122 -53.5t140 -0.5q0 15 0.5 42.5l1 57.5t1 56.5t0.5 39.5q-144 -1 -220 67t-91 206z" />
    <glyph glyph-name="sf277.014" unicode="&#x62f;" horiz-adv-x="1015" arabic-form="final" 
d="M676 301q7 -44 21 -99.5t46 -103.5q20 -30 46 -49t57 -30t66.5 -15t74.5 -4q14 0 27.5 2t30.5 5q2 15 3 31t1 38v52v74h-47q-16 0 -26 0.5t-18 1.5t-22 3q-56 10 -91 39t-57 69.5t-34.5 88t-22.5 95.5q-18 77 -51 148.5t-68 132.5l-35 66.5t-31 63.5q-3 6 -6.5 4t-5.5 -8
l-37 -176q34 -71 57 -123.5t38.5 -91.5t23.5 -65.5t12.5 -45t5.5 -31.5t2 -24q2 -26 -17 -47t-50 -37.5t-70 -29t-76.5 -20.5t-70.5 -12t-51 -4t-38 1t-39.5 4.5t-37 10t-30.5 17.5l-18.5 16.5t-14.5 17.5t-8.5 24t-1.5 36q2 32 -12 32q-11 0 -18 -28q-2 -15 -3.5 -34.5
l-3 -39.5l-3 -39t-2.5 -34q-3 -38 9 -70.5t35.5 -56t57 -36.5t73.5 -13q32 0 71 4t79 13.5t79 25t72.5 37.5t59 52t38.5 69l16 50.5t9.5 28t4.5 12z" />
    <glyph glyph-name="sf277.038" unicode="&#x688;" horiz-adv-x="1015" arabic-form="final" 
d="M676 301q7 -44 21 -99.5t46 -103.5q20 -30 46 -49t57 -30t66.5 -15t74.5 -4q14 0 27.5 2t30.5 5q2 15 3 31t1 38v52v74h-47q-16 0 -26 0.5t-18 1.5t-22 3q-56 10 -91 39t-57 69.5t-34.5 88t-22.5 95.5q-18 77 -51 148.5t-68 132.5l-35 66.5t-31 63.5q-3 6 -6.5 4t-5.5 -8
l-37 -176q34 -71 57 -123.5t38.5 -91.5t23.5 -65.5t12.5 -45t5.5 -31.5t2 -24q2 -26 -17 -47t-50 -37.5t-70 -29t-76.5 -20.5t-70.5 -12t-51 -4t-38 1t-39.5 4.5t-37 10t-30.5 17.5l-18.5 16.5t-14.5 17.5t-8.5 24t-1.5 36q2 32 -12 32q-11 0 -18 -28q-2 -15 -3.5 -34.5
l-3 -39.5l-3 -39t-2.5 -34q-3 -38 9 -70.5t35.5 -56t57 -36.5t73.5 -13q32 0 71 4t79 13.5t79 25t72.5 37.5t59 52t38.5 69l16 50.5t9.5 28t4.5 12zM404 1215q-7 -9 -24 -11t-38 -3t-44.5 0t-44.5 -1q-13 -1 -15.5 -5t10.5 -10l67 -36.5t35 -18t18.5 -7t19.5 -1.5
q27 0 60.5 2.5t67 8.5t65.5 16.5t56 24.5q27 24 47 53l30 43q3 48 -27.5 78t-76.5 30q-34 0 -63.5 -20t-53.5 -41q0 3 1.5 10.5t3.5 23.5t3 45.5t0 77.5q10 13 20.5 33t19.5 46q-19 18 -36.5 38t-23.5 43q-3 6 -8 3t-8 -6q-11 -17 -21.5 -35l-20.5 -36q0 -16 9.5 -26
t17.5 -24q-2 -53 0 -105.5t2 -106.5q-8 -22 -21 -43.5t-27 -39.5zM579 1292q18 1 38.5 -12.5t26.5 -40.5q-31 -15 -61.5 -21t-57.5 -7.5t-49 -1t-36 -0.5l28 27t34 27t38 20.5t39 8.5z" />
    <glyph glyph-name="sf277.039" unicode="&#x630;" horiz-adv-x="1015" arabic-form="final" 
d="M676 301q7 -44 21 -99.5t46 -103.5q20 -30 46 -49t57 -30t66.5 -15t74.5 -4q14 0 27.5 2t30.5 5q2 15 3 31t1 38v52v74h-47q-16 0 -26 0.5t-18 1.5t-22 3q-56 10 -91 39t-57 69.5t-34.5 88t-22.5 95.5q-18 77 -51 148.5t-68 132.5l-35 66.5t-31 63.5q-3 6 -6.5 4t-5.5 -8
l-37 -176q34 -71 57 -123.5t38.5 -91.5t23.5 -65.5t12.5 -45t5.5 -31.5t2 -24q2 -26 -17 -47t-50 -37.5t-70 -29t-76.5 -20.5t-70.5 -12t-51 -4t-38 1t-39.5 4.5t-37 10t-30.5 17.5l-18.5 16.5t-14.5 17.5t-8.5 24t-1.5 36q2 32 -12 32q-11 0 -18 -28q-2 -15 -3.5 -34.5
l-3 -39.5l-3 -39t-2.5 -34q-3 -38 9 -70.5t35.5 -56t57 -36.5t73.5 -13q32 0 71 4t79 13.5t79 25t72.5 37.5t59 52t38.5 69l16 50.5t9.5 28t4.5 12zM338 1299q-5 -8 -6 -13t5 -13q8 -11 25 -27.5t36.5 -33.5t39 -32t32.5 -22q17 -11 27 7q23 31 47 60t46 61q5 6 6 10.5
t-4 9.5q-24 25 -60.5 53t-72.5 59q-6 5 -12 5.5t-14 -9.5q-6 -6 -19.5 -22.5l-28.5 -34.5l-28.5 -34.5t-18.5 -23.5z" />
    <glyph glyph-name="sf277.015" unicode="&#x631;" horiz-adv-x="692" arabic-form="final" 
d="M568 4q15 -2 37 -3t44 -1q23 0 43 1t31 3l4 198q-48 1 -94 8t-85.5 24.5t-71.5 48t-52 78.5q-9 17 -14 12.5t-7 -15.5q-5 -13 -13 -45l-24 -92q-4 -38 6 -68t30.5 -54.5t48.5 -44t59 -36.5q2 -8 -3 -19t-10 -19q-35 -60 -82 -109t-101 -88t-112 -69t-114 -51t-108 -33.5
t-94 -17.5q-33 -6 -34.5 -14t33.5 -19q83 -14 163 -11t178 13q49 4 89 29t73 61.5t59.5 79.5t49.5 84q46 83 71 169z" />
    <glyph glyph-name="sf277.040" unicode="&#x691;" horiz-adv-x="693" arabic-form="final" 
d="M568 3q15 -2 37 -3t44 -1q23 0 43 1t31 3l4 198q-48 1 -94 8t-85.5 24.5t-71.5 48t-52 78.5q-9 17 -14 12.5t-7 -15.5q-5 -13 -13 -45l-24 -92q-4 -38 6 -68t30.5 -54.5t48.5 -44t59 -36.5q2 -8 -3 -19t-10 -19q-35 -60 -82 -109t-101 -88t-112 -69t-114 -51t-108 -33.5
t-94 -17.5q-33 -6 -34.5 -14t33.5 -19q83 -14 163 -11t178 13q49 4 89 29t73 61.5t59.5 79.5t49.5 84q23 42 40.5 84t30.5 85zM173 697q-7 -9 -23.5 -11.5t-38.5 -2.5q-21 0 -44.5 0.5t-44.5 -1.5q-13 -1 -15.5 -5t10.5 -10l67 -37t35 -18.5t19 -6.5t19 -1q28 0 61 2.5
t66.5 8.5t65 16t56.5 25q27 24 47 53l30 43q1 24 -6 44t-21.5 34t-34 22t-42.5 8q-34 0 -63.5 -20t-53.5 -41q0 4 1.5 10.5t3.5 23t3 46t0 77.5q10 13 20.5 33t19.5 46q-19 18 -36.5 38t-23.5 43q-3 6 -8 3t-8 -6q-11 -17 -21.5 -35l-20.5 -36q0 -16 9.5 -26t17.5 -24
q-2 -54 0 -106t2 -106q-8 -22 -21 -43.5t-27 -39.5zM348 774q18 1 38.5 -12.5t26.5 -40.5q-31 -15 -61.5 -21t-57.5 -7.5t-49 -1t-36 -0.5q12 12 28 26.5t34 27t37.5 21t39.5 8.5z" />
    <glyph glyph-name="sf277.041" unicode="&#x632;" horiz-adv-x="692" arabic-form="final" 
d="M202 754q-5 -8 -6 -13t5 -13q8 -11 25 -27.5t36.5 -33.5t39 -32t32.5 -22q17 -11 27 7q23 31 47 60t46 61q5 6 6 10.5t-4 9.5q-24 25 -60.5 53t-72.5 59q-6 5 -12 5.5t-14 -9.5q-6 -6 -19.5 -22.5l-28.5 -34.5l-28.5 -34.5t-18.5 -23.5zM568 4q15 -2 37 -3t44 -1
q23 0 43 1t31 3l4 198q-48 1 -94 8t-85.5 24.5t-71.5 48t-52 78.5q-9 17 -14 12.5t-7 -15.5q-5 -13 -13 -45l-24 -92q-4 -38 6 -68t30.5 -54.5t48.5 -44t59 -36.5q2 -8 -3 -19t-10 -19q-35 -60 -82 -109t-101 -88t-112 -69t-114 -51t-108 -33.5t-94 -17.5q-33 -6 -34.5 -14
t33.5 -19q83 -14 163 -11t178 13q49 4 89 29t73 61.5t59.5 79.5t49.5 84q46 83 71 169z" />
    <glyph glyph-name="sf277.042" unicode="&#x698;" horiz-adv-x="692" arabic-form="final" 
d="M36 642l32 -26.5t26.5 -20.5l25.5 -18t31 -20q5 -3 12 -6.5t14 -5.5t13.5 -1t11.5 7l49 63l50 64q32 -32 62 -58.5t65 -48.5q6 -4 12 -5t15 9l49 63.5l49 63.5q10 13 -4 23q-1 1 -3.5 3l-15 12l-39 31l-74.5 60q-4 3 -9.5 5.5t-13.5 -5.5l-55.5 -67l-29 -35t-11.5 -13.5
t-12.5 1t-28.5 15t-35.5 25l-35 28t-36.5 28.5q-6 5 -12 5.5t-14 -7.5l-49 -67.5l-49 -68.5q-11 -18 10 -33zM135 966q-5 -9 -6 -13.5t5 -13.5q8 -11 25 -27.5t36.5 -33.5t39 -32t32.5 -22q17 -9 27 7q23 31 47 60t46 61q5 7 6 11t-4 10q-24 24 -60.5 52l-73.5 59
q-5 5 -11 6t-14 -9l-19.5 -23.5l-28.5 -34.5l-28.5 -34.5zM568 4q15 -2 37 -3t44 -1q23 0 43 1t31 3l4 198q-48 1 -94 8t-85.5 24.5t-71.5 48t-52 78.5q-9 17 -14 12.5t-7 -15.5q-5 -13 -13 -45l-24 -92q-4 -38 6 -68t30.5 -54.5t48.5 -44t59 -36.5q2 -8 -3 -19t-10 -19
q-35 -60 -82 -109t-101 -88t-112 -69t-114 -51t-108 -33.5t-94 -17.5q-33 -6 -34.5 -14t33.5 -19q83 -14 163 -11t178 13q49 4 89 29t73 61.5t59.5 79.5t49.5 84q46 83 71 169z" />
    <glyph glyph-name="sf277.016" unicode="&#x648;" horiz-adv-x="867" arabic-form="final" 
d="M345 150q2 -36 21.5 -61t50.5 -42.5t70 -27.5t79 -15t78.5 -5.5t68.5 1.5q-39 -78 -105 -142t-146.5 -113t-169.5 -81.5t-173 -45.5q-38 -5 -45 -11t2 -12.5t27.5 -11.5t33.5 -6q43 -6 90.5 -6.5t93.5 2.5t88 9t75 13q33 9 61 27.5t58 56.5q27 35 50.5 71t44.5 75
t40.5 82t39.5 93h26t33.5 0.5t34.5 1.5t29 4q0 49 0.5 98t0.5 98q-45 0 -66 1t-36 3q-12 44 -28.5 94.5t-42.5 93.5t-63 70.5t-89 26.5q-36 0 -66.5 -17t-56 -45.5t-45.5 -64.5t-34 -73.5t-21.5 -74.5t-8.5 -66zM443 254q28 36 58 44t58 -3.5t51.5 -38t40.5 -60.5
q-23 -2 -57.5 3t-67.5 13.5t-57.5 19.5t-25.5 22z" />
    <glyph glyph-name="sf297.002" unicode="&#x6d2;" horiz-adv-x="1461" arabic-form="final" 
d="M485 -7q132 15 255.5 14l249.5 -2q95 -1 189 -2.5t190 -2.5q32 0 63 0.5t63 5.5v197q-105 -1 -223.5 1t-236.5 2t-227.5 -5.5t-197.5 -21.5q-34 -6 -63 -17t-56 -25.5t-53.5 -32l-54.5 -36.5q-8 -7 -30 -23.5t-59.5 -47.5t-90 -80t-120.5 -120q-20 -24 -10 -45.5t33 -38
t51.5 -27.5t47.5 -14q73 -9 158 -13t173.5 -4.5t175 1t163 4.5l137.5 5.5t98 3.5l43 26.5l54 35.5l54 37t44 32q12 9 10 12.5t-16 2.5q-174 -2 -307 -3t-234 -0.5t-172.5 3t-122.5 6t-84.5 9t-58 12.5t-43 16l-39.5 20q7 30 38 50.5t69 34t77 20.5t63 10z" />
    <glyph glyph-name="sf314" unicode="&#xfefb;" horiz-adv-x="1053" arabic-form="isolated" 
d="M443 164q-5 -2 -28 -4.5t-49 -5t-49 -4.5t-28 -2q-11 -3 -22 -29t-19.5 -58.5t-12.5 -63.5t-1 -43q25 1 65 3.5t88 4.5t99.5 4.5t99.5 4.5t89 3t67 2q24 60 41 121.5t23.5 122t1.5 118t-25 108.5l21.5 32.5t22.5 42.5t21 60.5t17 85.5t9.5 117t-0.5 156q-1 6 6 20
t18.5 32l24.5 38.5t23 40.5t14.5 38t-0.5 31l-43.5 40t-40 42.5t-25 48.5t2.5 58q6 21 -4 21q-3 0 -8.5 -5t-10.5 -12q-12 -14 -32 -40t-38 -54t-30 -53.5t-9 -38.5q-1 -20 4.5 -38t15 -34.5t21 -32l23.5 -30.5q-7 -62 -4.5 -125t4.5 -125t-0.5 -124t-19.5 -123
q-36 80 -72 149.5t-77 132t-89 119.5t-108.5 111.5t-136 109t-171.5 111.5q-12 8 -23.5 6.5t-15.5 -19.5q-7 -49 -15 -97t-5 -99q30 -57 69.5 -100.5t86.5 -85.5q15 -9 23 -4t12.5 16.5t6.5 25.5t4 24q120 -77 221.5 -205.5t195.5 -317.5l-80.5 -90l-56.5 -61.5t-38 -39
t-24.5 -22t-16 -10.5t-13.5 -5zM530 163l80 82.5l48 49t24.5 23t10.5 5.5q5 0 11.5 -21t12 -47.5t9.5 -51.5t4 -32q-48 -7 -98.5 -10t-101.5 2z" />
    <glyph glyph-name="sf297.003" unicode="&#x6d3;" horiz-adv-x="1461" arabic-form="final" 
d="M485 -7q132 15 255.5 14l249.5 -2q95 -1 189 -2.5t190 -2.5q32 0 63 0.5t63 5.5v197q-105 -1 -223.5 1t-236.5 2t-227.5 -5.5t-197.5 -21.5q-34 -6 -63 -17t-56 -25.5t-53.5 -32l-54.5 -36.5q-8 -7 -30 -23.5t-59.5 -47.5t-90 -80t-120.5 -120q-20 -24 -10 -45.5t33 -38
t51.5 -27.5t47.5 -14q73 -9 158 -13t173.5 -4.5t175 1t163 4.5l137.5 5.5t98 3.5l43 26.5l54 35.5l54 37t44 32q12 9 10 12.5t-16 2.5q-174 -2 -307 -3t-234 -0.5t-172.5 3t-122.5 6t-84.5 9t-58 12.5t-43 16l-39.5 20q7 30 38 50.5t69 34t77 20.5t63 10zM1028 560
q-2 -26 13 -43.5t33 -30.5q3 -4 1 -7q-15 -27 -27 -51.5t-16 -53.5q-2 -6 2.5 -5.5t6.5 4.5q22 32 52.5 52.5t66 35t72.5 25.5t73 23l29.5 44.5t24.5 40.5q3 6 0.5 7t-8.5 -1q-30 -12 -63.5 -23t-66.5 -13q-13 0 -34 3t-42.5 10t-39 19.5t-21.5 30.5q11 12 26 22.5
t31.5 14.5t33.5 1t32 -15q9 -9 19 3q5 8 11.5 22t12 27.5t9 25.5t3.5 18q-18 13 -39.5 17t-42.5 1t-40.5 -13t-33.5 -23q-16 -15 -27 -36t-20 -44t-16.5 -46t-14.5 -42z" />
    <glyph glyph-name="sf277.045" unicode="&#x624;" horiz-adv-x="867" arabic-form="final" 
d="M345 150q2 -36 21.5 -61t50.5 -42.5t70 -27.5t79 -15t78.5 -5.5t68.5 1.5q-39 -78 -105 -142t-146.5 -113t-169.5 -81.5t-173 -45.5q-38 -5 -45 -11t2 -12.5t27.5 -11.5t33.5 -6q43 -6 90.5 -6.5t93.5 2.5t88 9t75 13q33 9 61 27.5t58 56.5q27 35 50.5 71t44.5 75
t40.5 82t39.5 93h26t33.5 0.5t34.5 1.5t29 4q0 49 0.5 98t0.5 98q-45 0 -66 1t-36 3q-12 44 -28.5 94.5t-42.5 93.5t-63 70.5t-89 26.5q-36 0 -66.5 -17t-56 -45.5t-45.5 -64.5t-34 -73.5t-21.5 -74.5t-8.5 -66zM443 254q28 36 58 44t58 -3.5t51.5 -38t40.5 -60.5
q-23 -2 -57.5 3t-67.5 13.5t-57.5 19.5t-25.5 22zM465 854q-2 -26 13 -43.5t33 -30.5q3 -4 1 -7q-15 -27 -27 -51.5t-16 -53.5q-2 -6 2.5 -5.5t6.5 4.5q22 32 52.5 52.5t66 35t72.5 25.5t73 23l29.5 44.5t24.5 40.5q3 6 0.5 7t-8.5 -1q-30 -12 -63.5 -23t-66.5 -13
q-13 0 -34 3t-42.5 10t-39 19.5t-21.5 30.5q11 12 26 22.5t31.5 14.5t33.5 1t32 -15q9 -9 19 3q5 8 11.5 22t12 27.5t9 25.5t3.5 18q-18 13 -39.5 17t-42.5 1t-40.5 -13t-33.5 -23q-16 -15 -27 -36t-20 -44t-16.5 -46t-14.5 -42z" />
    <glyph glyph-name=".notdef" horiz-adv-x="169" 
 />
    <glyph glyph-name=".null" horiz-adv-x="0" 
 />
    <glyph glyph-name="nonmarkingreturn" horiz-adv-x="169" 
 />
    <glyph glyph-name="space" horiz-adv-x="169" 
 />
    <glyph glyph-name="sf256" unicode="&#x6f0;" horiz-adv-x="396" 
d="M34 632q-6 -11 -7.5 -17.5t6.5 -16.5q10 -14 32 -35.5t47.5 -43.5t51 -41.5t42.5 -29.5q22 -14 35 10l61 77.5t60 79.5q6 8 7.5 13.5t-5.5 12.5q-31 32 -78.5 68.5t-94.5 76.5q-7 7 -15 7.5t-18 -12.5q-8 -8 -26.5 -28.5t-38 -44.5l-36 -45.5z" />
    <glyph glyph-name="sf258" unicode="&#x6f1;" horiz-adv-x="302" 
d="M25 936q13 -39 27.5 -76l28 -74l26.5 -75.5t25 -78.5q13 -52 23 -103.5t18 -98.5t12.5 -87.5t7.5 -70.5q5 -60 5.5 -114.5t3.5 -110.5v-8.5t1 -14t4 -14.5t6 -11q7 -3 12 5t8 21q13 40 21.5 90t14.5 105.5t7 115t0.5 118.5t-5 115t-12.5 107q-12 65 -25.5 127.5
t-28.5 117.5t-30 101.5t-29 80t-26 53t-20 20.5q-9 3 -18 -12.5t-17.5 -41t-15.5 -56t-12.5 -58t-8.5 -48t-3 -24.5z" />
    <glyph glyph-name="sf259" unicode="&#x6f2;" horiz-adv-x="636" 
d="M247 61q12 44 18 82t8.5 74t3 74t1.5 82q2 62 0 111.5t-6.5 96t-12 93l-16.5 105.5q123 6 202.5 68t126.5 181q-1 -4 3.5 8t11 32t13 43.5t9 43t-0.5 30t-18 1.5q-20 -34 -39 -61t-45 -46.5t-62 -30.5t-89 -15q-38 3 -68.5 7.5t-55.5 13.5t-46 25.5t-38 41.5
q-12 15 -19 27l-11 19t-7.5 10t-9.5 5q-9 0 -16.5 -10t-11.5 -25l-22.5 -95t-23.5 -93q-1 -6 -1 -13t3 -19q5 -13 16 -39t23.5 -58.5l25.5 -69t23 -71.5q3 -7 6.5 -22.5t9 -34l10 -34.5t5.5 -22q29 -134 44 -268t17 -270q0 -33 4.5 -39.5t10.5 2t13 26t11 34.5z" />
    <glyph glyph-name="sf260" unicode="&#x6f3;" horiz-adv-x="994" 
d="M226 22q0 3 2 8.5l4 11.5l4 12t3 7l15.5 58t12.5 51.5l10 50.5t9 57t6.5 70t4.5 91q2 63 -6.5 126t-13.5 124q-1 1 -0.5 7t5.5 7q37 11 67 26.5t56 35.5t47 48t42 63q2 1 4 1q4 0 5 -1q11 -21 27 -37.5t36.5 -29t44.5 -19t50 -5.5q76 5 131 46q53 46 85.5 99.5
t56.5 105.5l21.5 69t13.5 71q0 15 -3.5 17t-8.5 -4t-12 -17.5t-14 -24.5l-8.5 -15t-9 -14.5l-8 -11.5t-4.5 -6q-27 -35 -61.5 -50t-87.5 -15q-39 0 -67 14t-53 47q-5 6 -8.5 18.5t-6 25t-5.5 21t-9 8.5q-10 0 -16 -8t-12.5 -22.5t-16.5 -34.5t-30 -45q-14 -20 -35.5 -38.5
t-46.5 -32.5t-52.5 -23.5t-53.5 -9.5q-43 0 -73.5 19t-52 47.5t-39 63t-36.5 67.5q-15 26 -26 32.5t-19.5 0t-14.5 -22t-11 -35.5l-15.5 -46t-14 -51t-9.5 -51t-1 -44q57 -104 93.5 -218t56.5 -232t26.5 -238.5t3.5 -237.5q-1 -5 -0.5 -6.5t3.5 -2.5q2 -1 6 4.5t6.5 11
t2.5 6.5z" />
    <glyph glyph-name="sf261" unicode="&#x6f4;" horiz-adv-x="904" 
d="M82 22q0 -1 0.5 -5t2 -8t3.5 -7t6 -3q6 0 10.5 5.5t8 13.5t5 16t2.5 11q10 38 17.5 73t13 69t9.5 69t7 74q0 134 -13 264t-41 263q-1 5 -1.5 12t-1.5 14t0 13t2 9q47 41 99.5 45.5t101.5 -17.5t88.5 -64t60.5 -93q2 -5 4 -13.5t4.5 -25.5t4 -45.5t1.5 -72.5q3 -5 6.5 -6
t7.5 1.5t7.5 7.5t5.5 10q21 53 50.5 103.5t64 98t71.5 92.5l74 88l48 98l33 69l20 44t11 26t3.5 13t-2.5 6q-13 5 -23 -1.5t-14 -11.5l-247 -290q-21 40 -50.5 83t-65.5 78t-80.5 58t-94.5 23q-60 0 -102.5 -26t-72.5 -67.5t-48.5 -94.5t-29.5 -108t-16.5 -107t-6 -92.5
t0 -64.5t-0.5 -21q12 -74 23 -149t19.5 -151t12 -152.5t2.5 -153.5z" />
    <glyph glyph-name="sf262" unicode="&#x6f5;" horiz-adv-x="922" 
d="M25 211q0 -42 15 -79.5t41.5 -67.5t62.5 -47.5t77 -17.5q33 0 62 13t54 33t45.5 46t37.5 51q4 -3 8.5 -9.5t9 -14.5t10 -15t7.5 -11q26 -32 64.5 -51.5t78.5 -19.5q42 0 80.5 17t70 44.5t55.5 65.5t36 79l21 75t13 49.5t9.5 43.5t12.5 57q1 38 -6.5 77t-22 75.5t-34 71.5
l-38.5 66l-77 109.5l-73.5 99.5l-66 83t-53.5 62l-40 42.5t-28.5 24.5t-18.5 2.5t-13 -22.5q-14 -52 -23.5 -108.5t-17.5 -110.5l-72.5 -96.5t-61 -88.5l-46 -71t-27.5 -44l-48 -90t-49 -104t-38.5 -110.5t-16.5 -108.5zM163 424q0 26 10.5 57t25 61.5t31.5 58.5t32 50
l68.5 105l44.5 67.5t26 36.5t13.5 14t6.5 0.5t4 -4.5q34 -34 70 -74.5l67 -78l55.5 -69l36.5 -46.5l23 -31t28.5 -43l30.5 -50t27.5 -51t19.5 -49t8 -43q0 -11 -16 -21t-36 -16.5t-39.5 -9.5t-29.5 -3q-54 2 -83 19t-42 41.5t-15.5 53.5l-4.5 53q0 4 -1.5 5.5t-4.5 1.5
q-10 -3 -17.5 -10.5t-13 -20l-12 -28t-17.5 -33.5q-12 -21 -26.5 -41.5t-35 -36.5t-44.5 -26.5t-56 -10.5q-37 0 -63 15t-41.5 39t-22.5 54.5t-7 63.5z" />
    <glyph glyph-name="sf263" unicode="&#x6f6;" horiz-adv-x="641" 
d="M445 166q-3 -36 -6 -62.5t-6.5 -47t-4.5 -34.5t0 -23q10 2 16.5 11t12 19t8 18.5t3.5 12.5l50 153t26 82q1 4 3 10.5t4 19.5t4.5 35.5t5.5 59l7 89.5t8.5 126t9 170.5t11.5 222.5q3 34 5.5 55.5t5 37.5t4.5 31t4 35q0 31 -5.5 31.5t-18.5 -18.5l-43.5 -81.5t-48.5 -67.5
t-64 -46t-90 -17q-58 0 -113.5 24.5t-93.5 72.5q-15 28 -22.5 49.5t-10 35.5t-5 22t-10.5 9q-8 0 -11 -9t-6 -14q-18 -54 -33.5 -107.5t-15.5 -111.5q0 -54 21 -95t54 -69t77 -42.5t91 -15.5t93 10t86 34q3 3 4 0q3 -39 3.5 -87.5t0 -102t-2 -110.5t-3.5 -112.5t-3 -107.5
t-1 -95z" />
    <glyph glyph-name="sf264" unicode="&#x6f7;" horiz-adv-x="787" 
d="M28 335q-3 -6 4 -15t17 -17.5t21.5 -17t19.5 -12.5q133 -85 231.5 -140.5t165.5 -87.5t103 -40.5t43 1.5l68.5 102l39 57.5l17.5 25t4 7.5q0 7 -6 14.5t-13.5 13t-16 9.5t-13.5 7q-20 8 -46.5 20l-57 27l-62.5 30.5t-62.5 32l-56.5 30.5t-44 26q-4 1 -16 8.5l-28 17
l-35 21.5l-36.5 23l-31.5 20.5t-20 14.5q-1 3 -2.5 6.5t2.5 4.5l320 307q3 1 10.5 12.5l18 27.5l21.5 33.5l20 33t15 25t7 11.5q6 9 10.5 18.5l8.5 18t5 15t0 9.5q0 1 -5.5 4.5t-18.5 -4.5l-120.5 -115.5l-153.5 -144.5l-186 -186q-1 -1 -5 -6.5l-8.5 -12l-9.5 -13.5t-8 -12
q-10 -15 -27 -44l-34 -61l-31.5 -60.5t-17.5 -44.5z" />
    <glyph glyph-name="sf265" unicode="&#x6f8;" horiz-adv-x="886" 
d="M745 0l57.5 112l57.5 112q1 24 -3.5 51.5t-13.5 49.5l-83.5 187.5l-83 186.5l-78 184t-66.5 175q-3 7 -5.5 11.5t-10.5 4.5q-7 0 -14.5 -6t-14 -14t-11 -17t-6.5 -14q-6 -10 -18 -35l-29 -60.5l-38 -79l-44.5 -92l-47.5 -97.5l-47 -95q-21 -40 -45 -91l-48 -103.5
l-47.5 -102.5l-40.5 -89q-4 -6 -11 -24l-14 -36.5t-11 -34t-1 -18.5q1 -4 6 -0.5t9 5.5l34 34.5l34.5 37t28.5 34.5t16 27l131 284l131 285l148 -341l144 -348l13.5 -41.5l13.5 -41.5q0 -3 3.5 -3.5t4.5 3.5z" />
    <glyph glyph-name="sf266" unicode="&#x6f9;" horiz-adv-x="608" 
d="M528 302l14.5 113t14 124l13.5 137.5t13 154.5v214q0 44 -14.5 90.5t-42.5 84t-67 62t-87 24.5t-89.5 -21t-75.5 -54.5t-60 -75.5t-43 -84l-27 -66t-26 -71t-19 -71t-7 -67q0 -50 22 -89t58 -65t80.5 -39.5t90.5 -13.5q43 0 82 9.5l80 20.5q2 1 5.5 1.5t3.5 -1.5v-158
l-15.5 -172t-10 -122.5t-6.5 -82.5t-3 -51t1 -25.5t3 -8.5q3 0 4 1q13 26 26.5 63.5l28.5 79.5l29 83.5t24 75.5zM124 944v2q4 25 22 44.5t41.5 33t49 21t43.5 7.5q35 0 62 -14.5t48 -40t33.5 -60t16.5 -74.5q-28 -12 -59.5 -13.5t-59.5 -0.5q-31 1 -61 7.5t-55 17.5
t-46 28.5t-35 41.5z" />
    <glyph glyph-name="sf270" unicode="&#x628;" horiz-adv-x="1600" 
d="M71 314q0 -81 24 -139.5t65.5 -99t96.5 -65t118 -38t130.5 -18t132.5 -4.5q205 0 401.5 42t380.5 135q32 16 46.5 44.5t24.5 60.5q2 7 7 26.5l10.5 41l10 40.5t5.5 27q6 45 2 88.5t-13.5 86.5t-24 85l-29.5 84q-2 4 -6 13.5t-11 9.5q-2 0 -3.5 -3t-9.5 -18l-24 -47
l-46 -90q8 -32 20.5 -66l24.5 -67t21 -64t9 -57q0 -5 -31.5 -21t-80.5 -35.5t-109 -38.5t-118 -29q-51 -9 -106.5 -17.5t-111.5 -14.5t-111 -10t-105 -4q-46 0 -102 3t-114 13t-113 29t-97.5 50.5t-68.5 78.5t-26 112q0 23 4 44l8.5 42.5l9 44t5.5 48.5q-10 -7 -21.5 -26
t-22.5 -45.5t-21 -58t-17 -63t-11 -60.5t-3 -50zM643 -404q-5 -8 -6 -13t5 -13q8 -11 25 -27.5t36.5 -33.5t39 -32t32.5 -22q17 -11 27 7q23 31 47 60t46 61q5 6 6 10.5t-4 9.5q-24 25 -60.5 53t-72.5 59q-6 5 -12 5.5t-14 -9.5q-6 -6 -19.5 -22.5l-28.5 -34.5l-28.5 -34.5
t-18.5 -23.5z" />
    <glyph glyph-name="sf270.001" unicode="&#x67e;" horiz-adv-x="1600" 
d="M71 314q0 -81 24 -139.5t65.5 -99t96.5 -65t118 -38t130.5 -18t132.5 -4.5q204 0 401.5 42.5t380.5 134.5q16 8 27 19.5t19.5 25t14 29t10.5 31.5l6.5 27l10 40.5l10.5 41t6 26.5q6 45 2.5 88.5t-13.5 86.5t-24.5 85l-29.5 84q-1 2 -2.5 6t-3.5 7.5t-5 6.5t-6 3
q-1 0 -2 -1t-3.5 -5.5l-7.5 -14l-14 -27l-22.5 -44.5l-33.5 -66q8 -32 20.5 -66l24.5 -67t21 -64t9 -57q0 -4 -14.5 -12.5t-39.5 -20t-58 -24.5t-70.5 -25.5t-77.5 -23.5t-79 -18q-51 -9 -106.5 -17.5t-111.5 -15t-111 -10t-105 -3.5q-46 0 -102 3t-114 13t-112.5 29
t-97.5 50.5t-69 78.5t-26 112q0 23 4 44l8.5 42.5l9 44t5.5 48.5q-10 -7 -21.5 -26t-22.5 -45.5t-21 -58t-17.5 -63t-11 -60.5t-2.5 -50zM767 -654q-5 -8 -6 -13t4 -13q8 -11 25 -27.5t37 -33.5t39.5 -32t32.5 -22q16 -10 27 6q23 32 47 60.5t46 61.5q5 6 6 10.5t-5 9.5
q-23 25 -60 53t-73 59q-5 5 -11.5 5.5t-14.5 -9.5l-18.5 -22.5l-28.5 -34.5l-28.5 -34.5t-18.5 -23.5zM598 -448l31.5 -26.5t26.5 -20.5l26 -18t31 -19q10 -6 25.5 -12.5t25.5 5.5l49 64t50 63q32 -32 62 -58.5t65 -48.5q6 -3 12 -4t14 9l49.5 63.5l49.5 63.5q5 6 3 12.5
t-7 10.5q-1 0 -3.5 2l-15 12l-39 31l-74.5 60q-4 4 -9.5 6.5t-13.5 -6.5l-55.5 -66.5l-29 -35t-11.5 -13.5l-2 -2q-21 7 -39 18t-35.5 24.5t-35 28.5t-36.5 29q-7 5 -12.5 5.5t-13.5 -8.5l-49 -67l-49 -68q-11 -19 10 -34z" />
    <glyph glyph-name="sf270.002" unicode="&#x62a;" horiz-adv-x="1600" 
d="M71 314q0 -81 24 -139.5t65.5 -99t96.5 -65t118 -38t130.5 -18t132.5 -4.5q204 0 401.5 42.5t380.5 134.5q16 8 27 19.5t19.5 25t14 29t10.5 31.5l6.5 27l10 40.5l10.5 41t6 26.5q6 45 2.5 88.5t-13.5 86.5t-24.5 85l-29.5 84q-1 2 -2.5 6t-3.5 7.5t-5 6.5t-6 3
q-1 0 -2 -1t-3.5 -5.5l-7.5 -14l-14 -27l-22.5 -44.5l-33.5 -66q8 -32 20.5 -66l24.5 -67t21 -64t9 -57q0 -4 -14.5 -12.5t-39.5 -20t-58 -24.5t-70.5 -25.5t-77.5 -23.5t-79 -18q-51 -9 -106.5 -17.5t-111.5 -15t-111 -10t-105 -3.5q-46 0 -102 3t-114 13t-112.5 29
t-97.5 50.5t-69 78.5t-26 112q0 23 4 44l8.5 42.5l9 44t5.5 48.5q-10 -7 -21.5 -26t-22.5 -45.5t-21 -58t-17.5 -63t-11 -60.5t-2.5 -50zM536 699l31.5 -26.5t26.5 -20.5l26 -18t31 -19q10 -7 25.5 -13t25.5 6l49 63l50 64q32 -32 62 -58.5t65 -48.5q6 -4 12 -5t15 10
l48.5 63.5l49.5 63.5q5 6 3.5 12t-7.5 10q-1 1 -3.5 3l-15 12l-39 31l-74.5 60q-4 3 -9.5 5.5t-13.5 -5.5l-55.5 -67l-29 -35t-11.5 -13l-2 -2q-21 7 -39 18t-35.5 24.5l-35 28t-36.5 28.5q-7 5 -12.5 6t-13.5 -8l-49 -67.5l-49 -67.5q-11 -19 10 -34z" />
    <glyph glyph-name="sf270.003" unicode="&#x679;" horiz-adv-x="1600" 
d="M71 314q0 -81 24 -139.5t65.5 -99t96.5 -65t118 -38t130.5 -18t132.5 -4.5q205 0 401.5 42t380.5 135q32 16 46.5 44.5t24.5 60.5q2 7 7 26.5l10.5 41l10 40.5t5.5 27q6 45 2 88.5t-13.5 86.5t-24 85l-29.5 84q-2 4 -6 13.5t-11 9.5q-2 0 -3.5 -3t-9.5 -18l-24 -47
l-46 -90q8 -32 20.5 -66l24.5 -67t21 -64t9 -57q0 -5 -31.5 -21t-80.5 -35.5t-109 -38.5t-118 -29q-51 -9 -106.5 -17.5t-111.5 -14.5t-111 -10t-105 -4q-46 0 -102 3t-114 13t-113 29t-97.5 50.5t-68.5 78.5t-26 112q0 23 4 44l8.5 42.5l9 44t5.5 48.5q-10 -7 -21.5 -26
t-22.5 -45.5t-21 -58t-17 -63t-11 -60.5t-3 -50zM722 723q-7 -9 -23.5 -11.5t-38.5 -2.5q-21 0 -44.5 0.5t-44.5 -1.5q-13 -1 -15.5 -5t10.5 -10l67 -37t35 -18.5t19 -6.5t19 -1q28 0 61 2.5t66.5 8.5t65 16t56.5 25q27 24 47 53l30 43q1 24 -6 44t-21.5 34t-34 22t-42.5 8
q-34 0 -63.5 -20t-53.5 -41q0 4 1.5 10.5t3.5 23t3 46t0 77.5q10 13 20.5 33t19.5 46q-19 18 -36.5 38t-23.5 43q-3 6 -8 3t-8 -6q-11 -17 -21.5 -35l-20.5 -36q0 -16 9.5 -26t17.5 -24q-2 -54 0 -106t2 -106q-8 -22 -21 -43.5t-27 -39.5zM897 800q18 1 38.5 -12.5
t26.5 -40.5q-31 -15 -61.5 -21t-57.5 -7.5t-49 -1t-36 -0.5q12 12 28 26.5t34 27t37.5 21t39.5 8.5z" />
    <glyph glyph-name="sf270.004" unicode="&#x62b;" horiz-adv-x="1600" 
d="M71 314q0 -81 24 -139.5t65.5 -99t96.5 -65t118 -38t130.5 -18t132.5 -4.5q204 0 401.5 42.5t380.5 134.5q16 8 27 19.5t19.5 25t14 29t10.5 31.5l6.5 27l10 40.5l10.5 41t6 26.5q6 45 2.5 88.5t-13.5 86.5t-24.5 85l-29.5 84q-1 2 -2.5 6t-3.5 7.5t-5 6.5t-6 3
q-1 0 -2 -1t-3.5 -5.5l-7.5 -14l-14 -27l-22.5 -44.5l-33.5 -66q8 -32 20.5 -66l24.5 -67t21 -64t9 -57q0 -4 -14.5 -12.5t-39.5 -20t-58 -24.5t-70.5 -25.5t-77.5 -23.5t-79 -18q-51 -9 -106.5 -17.5t-111.5 -15t-111 -10t-105 -3.5q-46 0 -102 3t-114 13t-112.5 29
t-97.5 50.5t-69 78.5t-26 112q0 23 4 44l8.5 42.5l9 44t5.5 48.5q-10 -7 -21.5 -26t-22.5 -45.5t-21 -58t-17.5 -63t-11 -60.5t-2.5 -50zM544 635l32 -26.5t26.5 -20.5l25.5 -18t31 -20q5 -3 12 -6.5t14 -5.5t13.5 -1t11.5 7l49 63l50 64q32 -32 62 -58.5t65 -48.5
q6 -4 12 -5t15 9l49 63.5l49 63.5q10 13 -4 23q-1 1 -3.5 3l-15 12l-39 31l-74.5 60q-4 3 -9.5 5.5t-13.5 -5.5l-55.5 -67l-29 -35t-11.5 -13.5l-2 -2.5q-21 7 -39 18.5t-35.5 25l-35 28t-36.5 28.5q-6 5 -12 5.5t-14 -7.5l-49 -67.5l-49 -68.5q-11 -18 10 -33zM643 959
q-5 -9 -6 -13.5t5 -13.5q8 -11 25 -27.5t36.5 -33.5t39 -32t32.5 -22q17 -9 27 7q23 31 47 60t46 61q5 7 6 11t-4 10q-24 24 -60.5 52l-73.5 59q-5 5 -11 6t-14 -9l-19.5 -23.5l-28.5 -34.5l-28.5 -34.5z" />
    <glyph glyph-name="sf277.019" unicode="&#x646;" horiz-adv-x="1099" 
d="M159 30q0 47 9 93t23.5 90.5t32.5 88l37 85.5q7 21 -1.5 21.5t-19.5 -14.5q-64 -91 -107.5 -195.5t-57.5 -216.5q-11 -97 6 -175t55 -137.5t94.5 -99.5t124.5 -60t143 -20t151 20t149 61.5t137 103.5q33 32 51 69.5t27 79t11 87.5l4 96q2 60 -7 124.5t-27.5 131t-46 133
t-61.5 130.5q-8 14 -11.5 15.5t-10.5 -21.5l-10.5 -37.5l-13 -47.5l-11.5 -44t-5 -26l49.5 -115.5t46 -125t34.5 -127.5t16 -123q-45 -47 -104 -82.5t-124.5 -58t-134 -31t-133.5 -2t-122 29.5t-100 63.5t-68 99t-25 137.5zM529 876q-5 -8 -6 -13t5 -13q8 -11 25 -27.5
t36.5 -33.5t39 -32t32.5 -22q17 -11 27 7q23 31 47 60t46 61q5 6 6 10.5t-4 9.5q-24 25 -60.5 53t-72.5 59q-6 5 -12 5.5t-14 -9.5q-6 -6 -19.5 -22.5l-28.5 -34.5l-28.5 -34.5t-18.5 -23.5z" />
    <glyph glyph-name="afii57414" unicode="&#x626;" horiz-adv-x="1293" 
d="M70 -30q0 -81 26 -151t74 -121t115 -80t149 -29q84 0 167 22.5t162 59t153 82t141 91.5q1 0 3.5 2.5l3.5 3.5q8 14 17 35l18.5 44l18.5 45t17 38q3 45 -15.5 67.5t-52.5 34.5t-81 19t-101 21q-32 7 -71 23.5t-72.5 40.5t-55 56t-18.5 70q16 27 45.5 62t66 69t78 62t83 40
t80.5 3.5t70 -47.5q9 -12 18 -31t16 -37t11.5 -31t5.5 -13t3.5 3t10.5 18t22.5 48l40.5 93q4 36 -5.5 69.5t-29.5 59t-50 41.5t-67 17q-53 0 -108.5 -25.5t-108 -67.5t-99 -97t-81.5 -113t-55.5 -116t-20.5 -107q-2 -42 20 -73.5t55.5 -54t73 -36.5t74.5 -20q28 -6 62 -10.5
t68.5 -11t65 -15.5t51.5 -24q-61 -43 -127.5 -81.5t-137 -68t-144.5 -47t-150 -17.5t-139.5 18t-109 55.5t-70.5 96t-25 138.5q0 39 6.5 77t17 75t23.5 73.5l25 72.5q6 20 5.5 28.5t-5.5 8t-12.5 -8t-15.5 -19.5q-30 -52 -54.5 -103t-42 -104t-27.5 -108t-11 -115zM803 1064
q-2 -26 13 -43.5t33 -30.5q3 -4 1 -7q-15 -27 -27 -51.5t-16 -53.5q-2 -6 2.5 -5.5t6.5 4.5q22 32 52.5 52.5t66 35t72.5 25.5t73 23l29.5 44.5t24.5 40.5q3 6 0.5 7t-8.5 -1q-30 -12 -63.5 -23t-66.5 -13q-13 0 -34 3t-42.5 10t-39 19.5t-21.5 30.5q11 12 26 22.5
t31.5 14.5t33.5 1t32 -15q9 -9 19 3q5 8 11.5 22t12 27.5t9 25.5t3.5 18q-18 13 -39.5 17t-42.5 1t-40.5 -13t-33.5 -23q-16 -15 -27 -36t-20 -44t-16.5 -46t-14.5 -42z" />
    <glyph glyph-name="sf271" unicode="&#x6cc;" horiz-adv-x="1293" 
d="M70 -30q0 -81 26 -151t74 -121t115 -80t149 -29q84 0 167 22.5t162 59t153 82t141 91.5q1 0 3.5 2.5l3.5 3.5q8 14 17 35l18.5 44l18.5 45t17 38q3 45 -15.5 67.5t-52.5 34.5t-81 19t-101 21q-32 7 -71 23.5t-72.5 40.5t-55 56t-18.5 70q16 27 45.5 62t66 69t78 62t83 40
t80.5 3.5t70 -47.5q9 -12 18 -31t16 -37t11.5 -31t5.5 -13t3.5 3t10.5 18t22.5 48l40.5 93q4 36 -5.5 69.5t-29.5 59t-50 41.5t-67 17q-53 0 -108.5 -25.5t-108 -67.5t-99 -97t-81.5 -113t-55.5 -116t-20.5 -107q-2 -42 20 -73.5t55.5 -54t73 -36.5t74.5 -20q28 -6 62 -10.5
t68.5 -11t65 -15.5t51.5 -24q-61 -43 -127.5 -81.5t-137 -68t-144.5 -47t-150 -17.5t-139.5 18t-109 55.5t-70.5 96t-25 138.5q0 39 6.5 77t17 75t23.5 73.5l25 72.5q6 20 5.5 28.5t-5.5 8t-12.5 -8t-15.5 -19.5q-30 -52 -54.5 -103t-42 -104t-27.5 -108t-11 -115z" />
    <glyph glyph-name="sf276.002" unicode="&#x62c;" horiz-adv-x="1345" 
d="M635 583q-78 9 -151 25t-135 24.5t-109.5 3t-74.5 -39.5q-3 -10 -13.5 -33.5l-21.5 -48.5l-21 -46.5t-11 -27.5q-3 -9 -2 -16t5 -11.5t10 -4.5q7 0 14 5q37 23 77.5 29.5t83.5 3t88 -15l92 -24.5q-95 -42 -168.5 -115t-124 -164.5t-77 -195t-26.5 -206.5
q0 -123 40 -223.5t112.5 -172t173 -111t222.5 -39.5q35 0 88.5 7.5t115 19.5t126.5 27t122.5 30t102.5 28.5t67 22.5q9 2 18 7t13 10t0 8.5t-22 3.5q-174 -3 -285.5 -2t-179.5 4t-100.5 7t-48.5 7q-60 7 -120.5 27.5t-116 52t-103 74t-83 93.5t-55.5 110.5t-20 124.5
q0 85 32.5 156t88 128.5t127.5 101.5t150.5 76t159 52.5t151.5 29.5q1 1 5.5 1.5t8.5 0.5q5 0 9.5 1t5.5 3q34 44 59.5 89.5t35.5 71.5q4 11 -10 11q-81 -2 -162 5t-163 15zM559 -147q-5 -8 -6 -13t5 -13q8 -11 25 -27.5t36.5 -33.5t39 -32t32.5 -22q17 -11 27 7
q23 31 47 60t46 61q5 6 6 10.5t-4 9.5q-24 25 -60.5 53t-72.5 59q-6 5 -12 5.5t-14 -9.5q-6 -6 -19.5 -22.5l-28.5 -34.5l-28.5 -34.5t-18.5 -23.5z" />
    <glyph glyph-name="sf276.003" unicode="&#x686;" horiz-adv-x="1345" 
d="M635 583q-78 9 -151 25t-135 24.5t-109.5 3t-74.5 -39.5q-3 -10 -13.5 -33.5l-21.5 -48.5l-21 -46.5t-11 -27.5q-3 -9 -2 -16t5 -11.5t10 -4.5q7 0 14 5q37 23 77.5 29.5t83.5 3t88 -15l92 -24.5q-95 -42 -168.5 -115t-124 -164.5t-77 -195t-26.5 -206.5
q0 -123 40 -223.5t112.5 -172t173 -111t222.5 -39.5q35 0 88.5 7.5t115 19.5t126.5 27t122.5 30t102.5 28.5t67 22.5q9 2 18 7t13 10t0 8.5t-22 3.5q-174 -3 -285.5 -2t-179.5 4t-100.5 7t-48.5 7q-60 7 -120.5 27.5t-116 52t-103 74t-83 93.5t-55.5 110.5t-20 124.5
q0 85 32.5 156t88 128.5t127.5 101.5t150.5 76t159 52.5t151.5 29.5q1 1 5.5 1.5t8.5 0.5q5 0 9.5 1t5.5 3q34 44 59.5 89.5t35.5 71.5q4 11 -10 11q-81 -2 -162 5t-163 15zM626 -332q-5 -8 -6 -13t4 -13q8 -11 25 -27.5t37 -33.5t39.5 -32t32.5 -22q16 -10 27 6
q23 32 47 60.5t46 61.5q5 6 6 10.5t-5 9.5q-23 25 -60 53t-73 59q-5 5 -11.5 5.5t-14.5 -9.5l-18.5 -22.5l-28.5 -34.5l-28.5 -34.5t-18.5 -23.5zM457 -126l31.5 -26.5t26.5 -20.5l26 -18t31 -19q10 -6 25.5 -12.5t25.5 5.5l49 64t50 63q32 -32 62 -58.5t65 -48.5
q6 -3 12 -4t14 9l49.5 63.5l49.5 63.5q5 6 3 12.5t-7 10.5q-1 0 -3.5 2l-15 12l-39 31l-74.5 60q-4 4 -9.5 6.5t-13.5 -6.5l-55.5 -66.5l-29 -35t-11.5 -13.5l-2 -2q-21 7 -39 18t-35.5 24.5t-35 28.5t-36.5 29q-7 5 -12.5 5.5t-13.5 -8.5l-49 -67l-49 -68q-11 -19 10 -34z
" />
    <glyph glyph-name="sf276.004" unicode="&#x62d;" horiz-adv-x="1345" 
d="M635 583q-78 9 -151 25t-135 24.5t-109.5 3t-74.5 -39.5q-3 -10 -13.5 -33.5l-21.5 -48.5l-21 -46.5t-11 -27.5q-3 -9 -2 -16t5 -11.5t10 -4.5q7 0 14 5q37 23 77.5 29.5t83.5 3t88 -15l92 -24.5q-95 -42 -168.5 -115t-124 -164.5t-77 -195t-26.5 -206.5
q0 -123 40 -223.5t112.5 -172t173 -111t222.5 -39.5q35 0 88.5 7.5t115 19.5t126.5 27t122.5 30t102.5 28.5t67 22.5q9 2 18 7t13 10t0 8.5t-22 3.5q-174 -3 -285.5 -2t-179.5 4t-100.5 7t-48.5 7q-60 7 -120.5 27.5t-116 52t-103 74t-83 93.5t-55.5 110.5t-20 124.5
q0 85 32.5 156t88 128.5t127.5 101.5t150.5 76t159 52.5t151.5 29.5q1 1 5.5 1.5t8.5 0.5q5 0 9.5 1t5.5 3q34 44 59.5 89.5t35.5 71.5q4 11 -10 11q-81 -2 -162 5t-163 15z" />
    <glyph glyph-name="sf276.005" unicode="&#x62e;" horiz-adv-x="1345" 
d="M635 583q-78 9 -151 25t-135 24.5t-109.5 3t-74.5 -39.5q-3 -10 -13.5 -33.5l-21.5 -48.5l-21 -46.5t-11 -27.5q-3 -9 -2 -16t5 -11.5t10 -4.5q7 0 14 5q37 23 77.5 29.5t83.5 3t88 -15l92 -24.5q-95 -42 -168.5 -115t-124 -164.5t-77 -195t-26.5 -206.5
q0 -123 40 -223.5t112.5 -172t173 -111t222.5 -39.5q35 0 88.5 7.5t115 19.5t126.5 27t122.5 30t102.5 28.5t67 22.5q9 2 18 7t13 10t0 8.5t-22 3.5q-174 -3 -285.5 -2t-179.5 4t-100.5 7t-48.5 7q-60 7 -120.5 27.5t-116 52t-103 74t-83 93.5t-55.5 110.5t-20 124.5
q0 85 32.5 156t88 128.5t127.5 101.5t150.5 76t159 52.5t151.5 29.5q1 1 5.5 1.5t8.5 0.5q5 0 9.5 1t5.5 3q34 44 59.5 89.5t35.5 71.5q4 11 -10 11q-81 -2 -162 5t-163 15zM457 938q-5 -8 -6 -13t5 -13q8 -11 25 -27.5t36.5 -33.5t39 -32t32.5 -22q17 -11 27 7q23 31 47 60
t46 61q5 6 6 10.5t-4 9.5q-24 25 -60.5 53t-72.5 59q-6 5 -12 5.5t-14 -9.5q-6 -6 -19.5 -22.5l-28.5 -34.5l-28.5 -34.5t-18.5 -23.5z" />
    <glyph glyph-name="sf293.002" unicode="&#x633;" horiz-adv-x="1852" 
d="M70 -133q0 -102 30 -180t86.5 -131t137 -79.5t182.5 -25.5q68 -3 147.5 19t151.5 62t125.5 94.5t70.5 117.5q20 75 28.5 142.5t10.5 143.5q42 -7 81.5 -8.5t75.5 6.5t68.5 28.5t61.5 58.5q8 -7 33.5 -16.5t59.5 -20.5t74 -21.5t78 -18.5t71.5 -13t53.5 -4q8 15 19.5 40
l23.5 53l23.5 55t18.5 46q0 63 -13.5 125.5t-32.5 120.5q-6 20 -10 18t-12 -19l-37.5 -78.5l-37.5 -79.5q4 -19 9.5 -40.5l10.5 -40.5q-12 0 -45.5 7t-71 16.5t-71 20t-43.5 18.5q8 25 20 44.5t16 42.5q2 13 -2 17.5t-10.5 2.5t-13.5 -8t-12 -13l-43.5 -61.5t-45 -49.5
t-55.5 -33.5t-74 -12.5q-65 0 -111.5 14.5t-81.5 43.5t-61.5 73.5t-51.5 103.5q-1 3 -3 5t-4 -4l-26 -83l-13.5 -45.5t-5 -20.5t-0.5 -6q0 -26 19 -75t41 -113.5t38.5 -139.5t12.5 -153q-18 -27 -50.5 -50t-72 -41.5t-83 -32.5t-84.5 -23t-75.5 -13t-56.5 -3
q-77 0 -146 20.5t-121.5 61.5t-83.5 102.5t-31 142.5q0 46 9 89.5t24 86.5t34 85l39 84q11 23 11.5 31.5t-5.5 7t-16 -11.5t-19 -23q-35 -50 -65 -104t-52 -112t-34.5 -119t-12.5 -123z" />
    <glyph glyph-name="sf293.003" unicode="&#x634;" horiz-adv-x="1852" 
d="M70 -133q0 -102 30 -180t86.5 -131t137 -79.5t182.5 -25.5q68 -3 147.5 19t151.5 62t125.5 94.5t70.5 117.5q20 75 28.5 142.5t10.5 143.5q42 -7 81.5 -8.5t75.5 6.5t68.5 28.5t61.5 58.5q8 -7 33.5 -16.5t59.5 -20.5t74 -21.5t78 -18.5t71.5 -13t53.5 -4q8 15 19.5 40
l23.5 53l23.5 55t18.5 46q0 63 -13.5 125.5t-32.5 120.5q-6 20 -10 18t-12 -19l-37.5 -78.5l-37.5 -79.5q4 -19 9.5 -40.5l10.5 -40.5q-12 0 -45.5 7t-71 16.5t-71 20t-43.5 18.5q8 25 20 44.5t16 42.5q2 13 -2 17.5t-10.5 2.5t-13.5 -8t-12 -13l-43.5 -61.5t-45 -49.5
t-55.5 -33.5t-74 -12.5q-65 0 -111.5 14.5t-81.5 43.5t-61.5 73.5t-51.5 103.5q-1 3 -3 5t-4 -4l-26 -83l-13.5 -45.5t-5 -20.5t-0.5 -6q0 -26 19 -75t41 -113.5t38.5 -139.5t12.5 -153q-18 -27 -50.5 -50t-72 -41.5t-83 -32.5t-84.5 -23t-75.5 -13t-56.5 -3
q-77 0 -146 20.5t-121.5 61.5t-83.5 102.5t-31 142.5q0 46 9 89.5t24 86.5t34 85l39 84q11 23 11.5 31.5t-5.5 7t-16 -11.5t-19 -23q-35 -50 -65 -104t-52 -112t-34.5 -119t-12.5 -123zM1094 734l32 -26.5t26.5 -20.5l25.5 -18t31 -20q5 -3 12 -6.5t14 -5.5t13.5 -1t11.5 7
l49 63l50 64q32 -32 62 -58.5t65 -48.5q6 -4 12 -5t15 9l49 63.5l49 63.5q10 13 -4 23q-1 1 -3.5 3l-15 12l-39 31l-74.5 60q-4 3 -9.5 5.5t-13.5 -5.5l-55.5 -67l-29 -35t-11.5 -13.5l-2 -2.5q-21 7 -39 18.5t-35.5 25l-35 28t-36.5 28.5q-6 5 -12 5.5t-14 -7.5l-49 -67.5
l-49 -68.5q-11 -18 10 -33zM1193 1058q-5 -9 -6 -13.5t5 -13.5q8 -11 25 -27.5t36.5 -33.5t39 -32t32.5 -22q17 -9 27 7q23 31 47 60t46 61q5 7 6 11t-4 10q-24 24 -60.5 52l-73.5 59q-5 5 -11 6t-14 -9l-19.5 -23.5l-28.5 -34.5l-28.5 -34.5z" />
    <glyph glyph-name="sf293.001" unicode="&#x635;" horiz-adv-x="2141" 
d="M73 -134q-3 -94 25 -166t77.5 -123.5t117 -82t142.5 -40.5t154 0t152 40.5t136.5 80t107.5 118.5q18 40 28 74.5t15 72t8 81.5l7 102q50 -17 132 -26.5t177 -11t194.5 6t185.5 26t150 47.5t87 71q5 13 16.5 35.5l25.5 48.5l28 52t23 46q9 16 7.5 28.5t-5.5 23.5
q-33 84 -75.5 136.5t-91.5 79.5t-103 30.5t-109.5 -10t-112 -41.5t-109.5 -65q-46 -31 -90.5 -70t-85 -79l-75.5 -75.5t-61 -58.5q-45 -1 -80.5 17.5t-64 49t-50.5 68.5t-39 76q-3 10 -5.5 13t-5 1.5t-4.5 -6t-4 -10.5l-24 -71t-13.5 -42t-5.5 -22t0 -12q3 -13 13 -40
l23 -63.5t26.5 -80.5t25 -92.5t18 -98.5t4.5 -98q-38 -38 -86 -66.5t-102 -47.5t-112.5 -29.5t-116.5 -12.5q-84 2 -146.5 20.5t-107.5 49t-73.5 71.5t-45.5 88q-14 44 -13 98.5t15 114t39.5 121.5t60.5 120q16 27 2 27q-5 0 -14 -6t-18 -18q-78 -102 -124 -222.5
t-50 -247.5zM1236 200q53 49 114 97t124.5 83.5t127 53t121.5 5.5t108.5 -58t88.5 -138q-75 -28 -163.5 -43.5t-180 -20t-179.5 1t-161 19.5z" />
    <glyph glyph-name="sf293.004" unicode="&#x636;" horiz-adv-x="2141" 
d="M73 -134q-3 -94 25 -166t77.5 -123.5t117 -82t142.5 -40.5t154 0t152 40.5t136.5 80t107.5 118.5q18 40 28 74.5t15 72t8 81.5l7 102q50 -17 132 -26.5t177 -11t194.5 6t185.5 26t150 47.5t87 71q5 13 16.5 35.5l25.5 48.5l28 52t23 46q9 16 7.5 28.5t-5.5 23.5
q-33 84 -75.5 136.5t-91.5 79.5t-103 30.5t-109.5 -10t-112 -41.5t-109.5 -65q-46 -31 -90.5 -70t-85 -79l-75.5 -75.5t-61 -58.5q-45 -1 -80.5 17.5t-64 49t-50.5 68.5t-39 76q-3 10 -5.5 13t-5 1.5t-4.5 -6t-4 -10.5l-24 -71t-13.5 -42t-5.5 -22t0 -12q3 -13 13 -40
l23 -63.5t26.5 -80.5t25 -92.5t18 -98.5t4.5 -98q-38 -38 -86 -66.5t-102 -47.5t-112.5 -29.5t-116.5 -12.5q-84 2 -146.5 20.5t-107.5 49t-73.5 71.5t-45.5 88q-14 44 -13 98.5t15 114t39.5 121.5t60.5 120q16 27 2 27q-5 0 -14 -6t-18 -18q-78 -102 -124 -222.5
t-50 -247.5zM1236 200q53 49 114 97t124.5 83.5t127 53t121.5 5.5t108.5 -58t88.5 -138q-75 -28 -163.5 -43.5t-180 -20t-179.5 1t-161 19.5zM1330 889q-5 -8 -6 -13t5 -13q8 -11 25 -27.5t36.5 -33.5t39 -32t32.5 -22q17 -11 27 7q23 31 47 60t46 61q5 6 6 10.5t-4 9.5
q-24 25 -60.5 53t-72.5 59q-6 5 -12 5.5t-14 -9.5q-6 -6 -19.5 -22.5l-28.5 -34.5l-28.5 -34.5t-18.5 -23.5z" />
    <glyph glyph-name="sf336" unicode="&#x637;" horiz-adv-x="1546" 
d="M436 -99q162 0 310 15t267 38t200.5 49t108.5 49q41 59 71.5 97.5t49.5 67t26 52t1 51.5q-60 126 -145 178.5t-184.5 44.5t-210 -69t-221.5 -161q16 51 21 106.5t3 113.5t-9.5 118t-16 119.5t-16 118.5t-10.5 115l39.5 73t38.5 73q-1 16 -14 30t-31.5 27.5l-38.5 27.5
t-34.5 31.5t-20 38.5t4.5 49q6 16 5.5 21t-5 2.5t-11.5 -9.5l-14 -14q-15 -21 -27 -39.5t-22.5 -36.5l-21 -36.5l-23.5 -40.5q-7 -26 -1.5 -47.5t18 -40.5t29.5 -35.5t35 -31.5q0 -34 -1 -65t-1 -65q16 -131 31 -230t24 -176.5t11.5 -138.5t-4.5 -115q-25 -19 -45 -41
t-38.5 -46l-36.5 -48t-38 -47q-77 -2 -136.5 3.5t-105 13.5t-78 16.5t-54.5 13.5q-26 5 -35.5 2t-7 -11t15 -19.5t30.5 -23.5q17 -11 42 -29l54.5 -37.5l60.5 -39t60.5 -34.5t55.5 -23t45 -5zM1069 381q45 0 84.5 -17t71 -45t55 -62.5t36.5 -68.5q-32 -12 -97 -29.5
t-161.5 -34.5t-224 -30t-284.5 -16l109 96.5t127 98t139 76t145 32.5z" />
    <glyph glyph-name="sf336.002" unicode="&#x638;" horiz-adv-x="1546" 
d="M436 -99q162 0 310 15t267 38t200.5 49t108.5 49q41 59 71.5 97.5t49.5 67t26 52t1 51.5q-60 126 -145 178.5t-184.5 44.5t-210 -69t-221.5 -161q16 51 21 106.5t3 113.5t-9.5 118t-16 119.5t-16 118.5t-10.5 115l39.5 73t38.5 73q-1 16 -14 30t-31.5 27.5l-38.5 27.5
t-34.5 31.5t-20 38.5t4.5 49q6 16 5.5 21t-5 2.5t-11.5 -9.5l-14 -14q-15 -21 -27 -39.5t-22.5 -36.5l-21 -36.5l-23.5 -40.5q-7 -26 -1.5 -47.5t18 -40.5t29.5 -35.5t35 -31.5q0 -34 -1 -65t-1 -65q16 -131 31 -230t24 -176.5t11.5 -138.5t-4.5 -115q-25 -19 -45 -41
t-38.5 -46l-36.5 -48t-38 -47q-77 -2 -136.5 3.5t-105 13.5t-78 16.5t-54.5 13.5q-26 5 -35.5 2t-7 -11t15 -19.5t30.5 -23.5q17 -11 42 -29l54.5 -37.5l60.5 -39t60.5 -34.5t55.5 -23t45 -5zM1069 381q45 0 84.5 -17t71 -45t55 -62.5t36.5 -68.5q-32 -12 -97 -29.5
t-161.5 -34.5t-224 -30t-284.5 -16l109 96.5t127 98t139 76t145 32.5zM914 881q-5 -8 -6 -13t5 -13q8 -11 25 -27.5t36.5 -33.5t39 -32t32.5 -22q17 -11 27 7q23 31 47 60t46 61q5 6 6 10.5t-4 9.5q-24 25 -60.5 53t-72.5 59q-6 5 -12 5.5t-14 -9.5q-6 -6 -19.5 -22.5
l-28.5 -34.5l-28.5 -34.5t-18.5 -23.5z" />
    <glyph glyph-name="sf276.001" unicode="&#x639;" horiz-adv-x="1371" 
d="M74 -267q-6 -123 37.5 -224.5t121 -175t180 -114t214.5 -40.5q63 0 129 9.5t129 23.5q100 22 173 41t122.5 34.5t77.5 27t39 18.5q4 3 4 5t-2.5 3t-6.5 1h-5q-69 0 -138.5 -0.5t-138.5 -0.5q-67 0 -130 1t-117.5 4t-98.5 9.5t-73 17.5q-83 21 -161 62t-138.5 100t-97 135
t-36.5 168q0 89 36 163.5t93.5 135t129 108t143 82.5t136 57t106.5 33l20.5 35l23.5 41l24 41.5t21 37.5q4 6 8 15t4.5 16.5t-4 10t-17.5 -4.5q-42 -19 -84.5 -41.5t-86 -41.5t-88.5 -31.5t-93 -12.5q-58 0 -115 14.5t-107 40.5t-89.5 62.5t-60.5 80.5q45 65 115 94.5
t145 29.5q60 0 120 -10.5l120 -21.5q32 -3 38.5 7t-0.5 24t-21.5 28t-24.5 20q-41 28 -78.5 45.5t-71.5 26.5t-64.5 12t-56.5 3q-60 0 -104 -13t-77.5 -40t-57.5 -68t-43 -96q-12 -35 -19 -69.5t-7 -71.5q0 -38 16 -72t39.5 -63.5t52 -53t53.5 -40.5t43 -27t22 -12v-3
q-103 -125 -163 -268.5t-60 -307.5z" />
    <glyph glyph-name="sf276.006" unicode="&#x63a;" horiz-adv-x="1371" 
d="M74 -267q-4 -82 14.5 -155t55 -134.5t89 -110t115 -83t133.5 -53t146 -18.5q63 0 129.5 9.5t128.5 23.5q101 22 173.5 41t122 34.5t77.5 27t39 18.5q4 3 4 5t-2.5 3t-6.5 1h-5q-69 0 -139 -0.5t-138 -0.5q-67 0 -130 0.5t-117.5 4t-98.5 10t-73 17.5q-55 14 -108.5 37.5
t-101.5 54.5t-89 70t-71 85.5t-46.5 101t-16.5 116.5q0 66 21 125t56 109.5t82 93.5t99.5 78.5t107.5 64t106.5 50t95.5 36t76 22.5l20.5 35l23.5 41l24 42l21 37q4 6 8 15t5 16.5t-4 10t-18 -4.5q-42 -19 -84.5 -41.5t-86 -41.5t-89 -31.5t-92.5 -12.5q-38 0 -76.5 6.5
t-75.5 18.5t-70.5 29.5t-62.5 39.5t-51 48.5t-36 55.5q22 32 51.5 55.5t63.5 38.5t70.5 22.5t74.5 7.5q60 0 120 -10.5l120 -21.5q22 -2 31.5 2.5t10.5 11.5t-4 16.5t-13 19t-17 17.5t-16 12q-41 29 -78 46t-71.5 26t-65 12t-56.5 3q-60 0 -104 -13.5t-77.5 -40t-57.5 -67.5
t-43 -96q-12 -35 -19 -69.5t-7 -71.5q0 -38 16 -72t40 -63.5t52 -53t53 -40.5t43 -27t22 -12v-3q-51 -62 -92.5 -129.5t-70.5 -139.5t-44.5 -149t-15.5 -158zM195 1241q-5 -8 -6 -13t5 -13q8 -11 25 -27.5t36.5 -33.5t39 -32t32.5 -22q17 -11 27 7q23 31 47 60t46 61
q5 6 6 10.5t-4 9.5q-24 25 -60.5 53t-72.5 59q-6 5 -12 5.5t-14 -9.5q-6 -6 -19.5 -22.5l-28.5 -34.5l-28.5 -34.5t-18.5 -23.5z" />
    <glyph glyph-name="sf278" unicode="&#x641;" horiz-adv-x="1628" 
d="M71 274q2 -92 35.5 -154t89 -102t127 -60.5t149 -29t154.5 -8.5q78 0 145 3q174 11 337 52t318 120q28 15 52.5 56t42 90.5t26.5 98t8 78.5q3 30 -3 75.5t-20.5 95.5t-36.5 100.5t-51.5 91t-65.5 67t-77 28.5q-32 2 -62 -12t-55.5 -37.5t-45 -52.5t-31.5 -57l-35 -85
t-18 -88q0 -34 13.5 -64t36.5 -52.5t53 -35.5t63 -13q30 0 53 7t43 21.5t37.5 36.5t35.5 51q12 -9 23 -37.5t18.5 -61.5t12 -64t4.5 -46q-35 -26 -87.5 -48t-116.5 -40.5t-137 -32.5t-147.5 -23.5t-148 -14.5t-139.5 -5q-57 0 -123 4.5t-129.5 18.5t-120 38.5t-95 65
t-54.5 98t1 137.5q15 58 17.5 79.5t-4 17t-20 -30t-29.5 -61.5q-22 -51 -33 -106t-10 -109zM1245 686q15 0 32 -8.5t31 -21.5t24 -28.5t11 -29.5q-17 -8 -41.5 -17.5t-42.5 -9.5q-7 -2 -25 6.5t-36 20.5t-29.5 25t-5.5 20q2 3 9.5 10t19 14.5t25.5 13t28 5.5zM1103 1170
q-5 -8 -6 -13t5 -13q8 -11 25 -27.5t36.5 -33.5t39 -32t32.5 -22q17 -11 27 7q23 31 47 60t46 61q5 6 6 10.5t-4 9.5q-24 25 -60.5 53t-72.5 59q-6 5 -12 5.5t-14 -9.5q-6 -6 -19.5 -22.5l-28.5 -34.5l-28.5 -34.5t-18.5 -23.5z" />
    <glyph glyph-name="sf277.018" unicode="&#x642;" horiz-adv-x="1183" 
d="M502 -307q-83 -6 -145 14.5t-105.5 59t-68.5 92t-33 115t0 127t31 128.5q16 44 16 60t-8.5 13.5t-21.5 -19.5t-23 -39q-52 -111 -67 -236q-14 -114 1.5 -199.5t53.5 -146t94.5 -97t125 -52.5t144.5 -12.5t153.5 23t152 53.5t139.5 80q87 67 129.5 157.5t41.5 222.5
q-4 39 -8 96.5t-12.5 121t-24 126t-42 113t-66 81.5t-95.5 31q-62 0 -102 -25.5t-66 -66t-42.5 -90.5l-31.5 -99q-14 -46 -4 -90t37 -79t67 -56.5t86 -21.5q27 0 53.5 7.5t49 21.5t40.5 34t29 46l16 -61t17 -74t14 -78.5t8 -75.5q-54 -40 -116.5 -76.5t-131 -65
t-140.5 -45.5t-145 -18zM709 362q5 9 17.5 17.5t27.5 15.5t30 11t25 3q40 0 76 -28t59 -88q-26 -14 -58 -19.5t-64.5 1t-62 27.5t-50.5 60zM563 851l31.5 -26.5t26.5 -20.5l26 -18t31 -19q10 -7 25.5 -13t25.5 6l49 63l50 64q32 -32 62 -58.5t65 -48.5q6 -4 12 -5t15 10
l48.5 63.5l49.5 63.5q5 6 3.5 12t-7.5 10q-1 1 -3.5 3l-15 12l-39 31l-74.5 60q-4 3 -9.5 5.5t-13.5 -5.5l-55.5 -67l-29 -35t-11.5 -13l-2 -2q-21 7 -39 18t-35.5 24.5l-35 28t-36.5 28.5q-7 5 -12.5 6t-13.5 -8l-49 -67.5l-49 -67.5q-11 -19 10 -34z" />
    <glyph glyph-name="sf270.007" unicode="&#x6a9;" horiz-adv-x="2015" 
d="M1186 689q15 -20 23 3q1 3 2.5 10t3 15.5t3 16t1.5 10.5q39 -32 76 -80t67 -102.5t51.5 -111t30.5 -106.5q-77 -47 -175 -82t-206 -58t-220 -34.5t-217 -11.5q-66 0 -132 6t-125 21.5t-108 43t-80.5 70.5t-41 103t9.5 141q5 21 7.5 38t0.5 23t-9.5 -4t-22.5 -43
q-25 -57 -40 -118t-15 -124q0 -81 23 -139t62.5 -98t93 -64.5t115 -37.5t127.5 -17t131 -4q192 0 382.5 38.5t363.5 125.5q45 22 71.5 44.5t41.5 48t21 56.5t10 70q7 66 -5 134t-45 143.5t-88 161t-134 186.5q-3 3 -5.5 6t-3 6t2 6.5t11.5 7.5l125 53.5l143 57.5l148.5 57
l142.5 52q26 9 43 16t31 15l66 68.5l66 68.5q8 12 2 15t-18 -2l-190 -69.5l-178 -66l-178.5 -65.5l-191.5 -69q-59 -23 -87 -47t-42.5 -49.5t-22 -52.5t-24.5 -56q-6 -11 -4 -29q7 -24 20 -49t28.5 -50l31.5 -49.5t30 -48.5z" />
    <glyph glyph-name="sf270.006" unicode="&#x6af;" horiz-adv-x="2015" 
d="M1854 1437q26 20 16.5 24t-34.5 -7l-54.5 -20.5l-42.5 -16l-42 -16l-52 -20.5l-131 -48.5l-93 -34.5l-62 -23.5l-39 -15l-23 -8.5t-14 -5l-31 -25t-25 -21l-46.5 -39.5l-39.5 -33.5q-20 -18 -15.5 -22.5t22.5 3.5q29 13 78.5 33l121.5 48.5l168.5 66l219.5 85.5l61 48.5z
M1186 662q15 -20 23 3q1 3 2.5 10t3 15.5t3 16t1.5 10.5q39 -32 76 -80t67 -102.5t51.5 -111t30.5 -106.5q-77 -47 -175 -82t-206 -58t-220 -34.5t-217 -11.5q-66 0 -132 6t-125 21.5t-108 43t-80.5 70.5t-41 103t9.5 141q5 21 7.5 38t0.5 23t-9.5 -4t-22.5 -43
q-25 -57 -40 -118t-15 -124q0 -81 23 -139t62.5 -98t93 -64.5t115 -37.5t127.5 -17t131 -4q192 0 382.5 38.5t363.5 125.5q45 22 71.5 44.5t41.5 48t21 56.5t10 70q7 66 -5 134t-45 143.5t-88 161t-134 186.5q-3 3 -5.5 6t-3 6t2 6.5t11.5 7.5l125 53.5l143 57.5l148.5 57
l142.5 52q26 9 43 16t31 15l66 68.5l66 68.5q8 12 2 15t-18 -2l-190 -69.5l-178 -66l-178.5 -65.5l-191.5 -69q-59 -23 -87 -47t-42.5 -49.5t-22 -52.5t-24.5 -56q-6 -11 -4 -29q7 -24 20 -49t28.5 -50l31.5 -49.5t30 -48.5z" />
    <glyph glyph-name="sf288.001" unicode="&#x644;" horiz-adv-x="1098" 
d="M71 -140q0 -88 28.5 -162.5t80.5 -128t124.5 -83t161.5 -27.5q91 3 169 29t141 69.5t110.5 102.5t78.5 128t44.5 145.5t8.5 154.5q0 101 -8.5 202t-20 202l-23.5 202t-20 202l47.5 88t23.5 46q4 10 7.5 14.5t4 7.5t-2.5 7.5t-11 15.5q-15 14 -41 29.5t-48.5 35t-34.5 45
t-1 58.5q14 43 -7 22q-16 -16 -30.5 -37t-28 -44.5l-26.5 -48l-25 -46.5q-8 -28 -1 -50.5t21 -41t31.5 -33.5l31.5 -27q0 -24 -1.5 -56.5t-2.5 -66t-1.5 -65t1.5 -52.5q7 -54 17 -121l20 -140l20 -149t17 -148.5t10 -138.5t0 -118q-48 -70 -123.5 -118t-162 -71t-173.5 -19
t-157.5 39t-114.5 102.5t-44 171.5q0 39 7 81t18.5 82.5t27.5 78.5t34 69q9 17 10 27.5t-3.5 12.5t-14.5 -5t-22 -24q-37 -51 -65 -112.5t-47 -123t-28 -117.5t-7 -96z" />
    <glyph glyph-name="sf289.001" unicode="&#x645;" horiz-adv-x="784" 
d="M163 -48q-7 53 4 92.5t35.5 68t59.5 47t77.5 29.5t89 15t93.5 4q29 0 56.5 -0.5t53.5 -1.5q33 29 50.5 78.5t31.5 107.5q-23 30 -53.5 62t-64.5 61t-70.5 52.5t-72 35.5t-68 10.5t-59.5 -22.5q-8 -17 -18 -41t-19 -48.5t-16.5 -47t-10.5 -36.5q1 -10 7 -13t17 -3
q10 0 25.5 1.5t33.5 1t36.5 -5t36.5 -16.5q-86 -15 -148 -50t-102.5 -86t-62.5 -115.5t-29 -137.5t-0.5 -152t22.5 -159q20 -107 31.5 -254.5l27.5 -343.5q1 -29 5 -37t7.5 -4t7 16t5.5 22q11 102 16 184t5 153q0 70 -3.5 132.5t-9.5 125l-13 129.5t-14 146z" />
    <glyph glyph-name="sf265.001" unicode="&#x6c1;" horiz-adv-x="558" 
d="M3 197q0 -50 18.5 -86.5t50 -61t72 -36.5t85.5 -12q24 0 54.5 6.5t62.5 19.5t62 32.5t51 45.5l49.5 111t28 68t13 35.5t4.5 14.5q1 32 -8.5 70.5t-28 77.5t-43.5 75.5t-54 64t-61.5 44t-64.5 14.5q-41 1 -77.5 -26.5t-67.5 -72t-56.5 -99t-44 -108.5t-30 -100.5
t-15.5 -74.5v-2zM105 333q0 23 11 50t29 50t41.5 38.5t47.5 15.5q36 0 72.5 -25.5t66.5 -63.5t51 -81t26 -79q1 -8 -19.5 -15.5t-47 -13.5t-52.5 -10t-35 -4q-34 0 -68 6t-61.5 21t-44.5 42t-17 69z" />
    <glyph glyph-name="sf298" unicode="&#x6be;" horiz-adv-x="878" 
d="M876 168q0 55 -15 109.5t-41 106t-61 98.5t-74.5 87t-81.5 71.5t-82 52.5q-13 7 -19 7t-12 -16l-11.5 -32.5t-13.5 -36t-12 -31.5t-7 -18q-46 -24 -86 -60t-70 -81t-47 -97t-17 -107q0 -83 61 -138q-8 -6 -37 -23.5l-68.5 -40l-86 -47l-88.5 -45.5q-4 -1 -4 -6q0 -4 4 -5
h129q60 0 124 12q28 4 54.5 14.5t51 23.5t47 27.5l42.5 27.5l107.5 -39.5t76 -31.5t60 -30l61.5 -33q25 25 47 62t38.5 76.5t25 77.5t5.5 65zM558 190l33.5 101.5t26.5 110.5q14 -9 34 -31.5t40.5 -52t40 -64t34.5 -68t23 -63.5t5 -51l-123 53.5t-70.5 32.5t-33.5 19t-10 13
zM283 296l26 34t33.5 35.5t39.5 28t44 11.5q29 0 47 -17t27.5 -42t12 -53.5t1.5 -50.5q-7 -6 -17 -13t-21 -13.5t-22 -10t-18 -1.5q-17 7 -38 14t-43 16.5t-41 24t-31 37.5z" />
    <glyph glyph-name="sf277.037" unicode="&#x6ba;" horiz-adv-x="1099" 
d="M159 30q0 47 9 93t23.5 90.5t32.5 88l37 85.5q7 21 -1.5 21.5t-19.5 -14.5q-64 -91 -107.5 -195.5t-57.5 -216.5q-11 -97 6 -175t55 -137.5t94.5 -99.5t124.5 -60t143 -20t151 20t149 61.5t137 103.5q33 32 51 69.5t27 79t11 87.5l4 96q2 60 -7 124.5t-27.5 131t-46 133
t-61.5 130.5q-8 14 -11.5 15.5t-10.5 -21.5l-10.5 -37.5l-13 -47.5l-11.5 -44t-5 -26l49.5 -115.5t46 -125t34.5 -127.5t16 -123q-45 -47 -104 -82.5t-124.5 -58t-134 -31t-133.5 -2t-122 29.5t-100 63.5t-68 99t-25 137.5z" />
    <glyph glyph-name="sf268.003" unicode="&#x622;" horiz-adv-x="536" 
d="M304 953q7 -86 16 -179.5l18.5 -191l19 -197t17.5 -196.5l10 -119t12 -129q1 -9 3.5 -12.5t6.5 2.5q32 66 45.5 149t12.5 180q0 6 -3 49.5t-8 109t-12 147l-14 164t-14.5 159.5t-14.5 134q-3 23 -5 42.5t-2.5 37.5l-1 36t-0.5 39q0 7 -0.5 14t-2 10t-4.5 0.5t-9 -12.5
q-9 -15 -19 -42t-19 -60t-17.5 -68.5t-14.5 -66.5zM112 1454q37 22 80 39t94 17q22 0 41.5 -6l40.5 -12.5t43.5 -12.5t50.5 -6q52 0 104.5 22t99.5 57.5t84.5 80t59.5 90.5q12 26 5 26.5t-24 -19.5q-19 -22 -46.5 -45t-60.5 -41.5t-70 -30.5t-76 -12q-23 0 -45 5l-44 10.5
l-44 10.5t-44 5q-75 -2 -141 -43t-126 -110q-11 -12 -12 -22.5t10 -10.5q6 0 20 8z" />
    <glyph glyph-name="sf268" unicode="&#x627;" horiz-adv-x="312" 
d="M70 1062v-7q0 -6 1 -18l3 -37.5t6 -67t11 -106.5l16 -156l22 -215q10 -100 19.5 -226.5t24.5 -278.5q1 -9 3.5 -12.5t6.5 2.5q32 66 45.5 148t12.5 170v11q0 9 -1 30.5t-4 63t-8.5 108.5t-15 168l-23.5 241l-34 328q0 30 0.5 54t0.5 53q-7 -1 -10 -6l-6 -10
q-9 -15 -19 -42t-19.5 -60t-17.5 -68t-14 -67z" />
    <glyph glyph-name="sf274" unicode="&#x62f;" horiz-adv-x="791" 
d="M72 -27q-2 -11 2 -16.5t11 -7t15.5 -1t15.5 1.5q62 8 124 15l118 13t105 10.5t85.5 7.5t58 5t23.5 3q6 2 15 21t19.5 47t20.5 62t18 68t13 64t5 50q0 75 -23 149.5t-63 143t-92.5 126t-112.5 97.5q-7 4 -18.5 12t-23.5 14.5t-22 8.5t-13 -8q-15 -43 -24 -82.5t-14 -77.5
q1 -15 8.5 -35.5t20 -42t29 -42.5t34.5 -38t37 -27t36 -10q6 0 10 3t5.5 5.5t3.5 4t7 -1.5q16 -14 32 -36t30 -49.5t26 -58t22 -62t17 -61t12 -54.5l-271 -22.5l-271 -22.5l-17.5 -97.5t-9.5 -52t-3.5 -21.5t-0.5 -5z" />
    <glyph glyph-name="sf274.002" unicode="&#x688;" horiz-adv-x="791" 
d="M72 -27q-2 -11 2 -16.5t11 -7t15.5 -1t15.5 1.5q62 8 124 15l118 13t105 10.5t85.5 7.5t58 5t23.5 3q6 2 15 21t19.5 47t20.5 62t18 68t13 64t5 50q0 75 -23 149.5t-63 143t-92.5 126t-112.5 97.5q-7 4 -18.5 12t-23.5 14.5t-22 8.5t-13 -8q-15 -43 -24 -82.5t-14 -77.5
q1 -15 8.5 -35.5t20 -42t29 -42.5t34.5 -38t37 -27t36 -10q6 0 10 3t5.5 5.5t3.5 4t7 -1.5q16 -14 32 -36t30 -49.5t26 -58t22 -62t17 -61t12 -54.5l-271 -22.5l-271 -22.5l-17.5 -97.5t-9.5 -52t-3.5 -21.5t-0.5 -5zM285 1167q-7 -9 -24 -11t-38 -3t-44.5 0t-44.5 -1
q-13 -1 -15.5 -5t10.5 -10l67 -36.5t35 -18t18.5 -7t19.5 -1.5q27 0 60.5 2.5t67 8.5t65.5 16.5t56 24.5q27 24 47 53l30 43q3 48 -27.5 78t-76.5 30q-34 0 -63.5 -20t-53.5 -41q0 3 1.5 10.5t3.5 23.5t3 45.5t0 77.5q10 13 20.5 33t19.5 46q-19 18 -36.5 38t-23.5 43
q-3 6 -8 3t-8 -6q-11 -17 -21.5 -35l-20.5 -36q0 -16 9.5 -26t17.5 -24q-2 -53 0 -105.5t2 -106.5q-8 -22 -21 -43.5t-27 -39.5zM460 1244q18 1 38.5 -12.5t26.5 -40.5q-31 -15 -61.5 -21t-57.5 -7.5t-49 -1t-36 -0.5l28 27t34 27t38 20.5t39 8.5z" />
    <glyph glyph-name="sf274.003" unicode="&#x630;" horiz-adv-x="791" 
d="M72 -27q-2 -11 2 -16.5t11 -7t15.5 -1t15.5 1.5q62 8 124 15l118 13t105 10.5t85.5 7.5t58 5t23.5 3q6 2 15 21t19.5 47t20.5 62t18 68t13 64t5 50q0 75 -23 149.5t-63 143t-92.5 126t-112.5 97.5q-7 4 -18.5 12t-23.5 14.5t-22 8.5t-13 -8q-15 -43 -24 -82.5t-14 -77.5
q1 -15 8.5 -35.5t20 -42t29 -42.5t34.5 -38t37 -27t36 -10q6 0 10 3t5.5 5.5t3.5 4t7 -1.5q16 -14 32 -36t30 -49.5t26 -58t22 -62t17 -61t12 -54.5l-271 -22.5l-271 -22.5l-17.5 -97.5t-9.5 -52t-3.5 -21.5t-0.5 -5zM268 1199q-5 -8 -6 -13t5 -13q8 -11 25 -27.5
t36.5 -33.5t39 -32t32.5 -22q17 -11 27 7q23 31 47 60t46 61q5 6 6 10.5t-4 9.5q-24 25 -60.5 53t-72.5 59q-6 5 -12 5.5t-14 -9.5q-6 -6 -19.5 -22.5l-28.5 -34.5l-28.5 -34.5t-18.5 -23.5z" />
    <glyph glyph-name="sf331" unicode="&#x631;" horiz-adv-x="548" 
d="M-164 -292q-33 -6 -34.5 -14t33.5 -19q41 -7 81.5 -9.5t81.5 -2t85 4.5t93 9q33 3 61.5 15.5t53.5 31.5t47 43.5t41.5 51.5t36 56l31.5 56q38 68 62.5 139.5t27.5 143.5t-20 143t-80 140q-5 5 -10 9t-10 4.5t-10 -2.5t-8 -13l-27.5 -84.5t-15.5 -48t-6 -21.5t0 -5
q5 -9 16.5 -25.5t25 -38t26.5 -45.5t22.5 -49t12.5 -49.5t-3 -46.5q-34 -61 -81 -111t-101.5 -89.5t-112.5 -70t-115 -52t-109.5 -34t-94.5 -17.5z" />
    <glyph glyph-name="sf331.001" unicode="&#x691;" horiz-adv-x="548" 
d="M-164 -292q-33 -6 -34.5 -14t33.5 -19q83 -14 163 -11t178 13q49 4 89 29t73 61.5t59.5 79.5t49.5 84q38 68 62.5 139.5t27.5 143.5t-20 143t-80 140q-5 4 -10 8.5t-10.5 5.5t-10 -2.5t-7.5 -13.5l-27.5 -84.5t-15.5 -48l-6.5 -21.5t0.5 -5q8 -15 28 -44t39 -64.5
t30.5 -74t2.5 -71.5q-51 -91 -129.5 -158t-165.5 -112.5t-171.5 -71t-147.5 -32.5zM196 815q-7 -9 -23.5 -11.5t-38.5 -2.5q-21 0 -44.5 0.5t-44.5 -1.5q-13 -1 -15.5 -5t10.5 -10l67 -37t35 -18.5t19 -6.5t19 -1q28 0 61 2.5t66.5 8.5t65 16t56.5 25q27 24 47 53l30 43
q1 24 -6 44t-21.5 34t-34 22t-42.5 8q-34 0 -63.5 -20t-53.5 -41q0 4 1.5 10.5t3.5 23t3 46t0 77.5q10 13 20.5 33t19.5 46q-19 18 -36.5 38t-23.5 43q-3 6 -8 3t-8 -6q-11 -17 -21.5 -35l-20.5 -36q0 -16 9.5 -26t17.5 -24q-2 -54 0 -106t2 -106q-8 -22 -21 -43.5
t-27 -39.5zM371 892q18 1 38.5 -12.5t26.5 -40.5q-31 -15 -61.5 -21t-57.5 -7.5t-49 -1t-36 -0.5q12 12 28 26.5t34 27t37.5 21t39.5 8.5z" />
    <glyph glyph-name="sf331.002" unicode="&#x632;" horiz-adv-x="548" 
d="M-164 -292q-33 -6 -34.5 -14t33.5 -19q41 -7 81.5 -9.5t81.5 -2t85 4.5t93 9q33 3 61.5 15.5t53.5 31.5t47 43.5t41.5 51.5t36 56l31.5 56q38 68 62.5 139.5t27.5 143.5t-20 143t-80 140q-5 5 -10 9t-10 4.5t-10 -2.5t-8 -13l-27.5 -84.5t-15.5 -48t-6 -21.5t0 -5
q5 -9 16.5 -25.5t25 -38t26.5 -45.5t22.5 -49t12.5 -49.5t-3 -46.5q-34 -61 -81 -111t-101.5 -89.5t-112.5 -70t-115 -52t-109.5 -34t-94.5 -17.5zM247 844q-5 -8 -6 -13t5 -13q8 -11 25 -27.5t36.5 -33.5t39 -32t32.5 -22q17 -11 27 7q23 31 47 60t46 61q5 6 6 10.5t-4 9.5
q-24 25 -60.5 53t-72.5 59q-6 5 -12 5.5t-14 -9.5q-6 -6 -19.5 -22.5l-28.5 -34.5l-28.5 -34.5t-18.5 -23.5z" />
    <glyph glyph-name="sf331.003" unicode="&#x698;" horiz-adv-x="548" 
d="M-164 -292q-33 -6 -34.5 -14t33.5 -19q41 -7 81.5 -9.5t81.5 -2t85 4.5t93 9q33 3 61.5 15.5t53.5 31.5t47 43.5t41.5 51.5t36 56l31.5 56q38 68 62.5 139.5t27.5 143.5t-20 143t-80 140q-5 5 -10 9t-10 4.5t-10 -2.5t-8 -13l-27.5 -84.5t-15.5 -48t-6 -21.5t0 -5
q5 -9 16.5 -25.5t25 -38t26.5 -45.5t22.5 -49t12.5 -49.5t-3 -46.5q-34 -61 -81 -111t-101.5 -89.5t-112.5 -70t-115 -52t-109.5 -34t-94.5 -17.5zM1 772l32 -26.5t26.5 -20.5l25.5 -18t31 -20q5 -3 12 -6.5t14 -5.5t13.5 -1t11.5 7l49 63l50 64q32 -32 62 -58.5t65 -48.5
q6 -4 12 -5t15 9l49 63.5l49 63.5q10 13 -4 23q-1 1 -3.5 3l-15 12l-39 31l-74.5 60q-4 3 -9.5 5.5t-13.5 -5.5l-55.5 -67l-29 -35t-11.5 -13.5t-12.5 1t-28.5 15t-35.5 25l-35 28t-36.5 28.5q-6 5 -12 5.5t-14 -7.5l-49 -67.5l-49 -68.5q-11 -18 10 -33zM100 1096
q-5 -9 -6 -13.5t5 -13.5q8 -11 25 -27.5t36.5 -33.5t39 -32t32.5 -22q17 -9 27 7q23 31 47 60t46 61q5 7 6 11t-4 10q-24 24 -60.5 52l-73.5 59q-5 5 -11 6t-14 -9l-19.5 -23.5l-28.5 -34.5l-28.5 -34.5z" />
    <glyph glyph-name="sf337" unicode="&#x648;" horiz-adv-x="777" 
d="M316 193q0 -35 16 -68t41.5 -59t59 -42.5t68.5 -16.5q29 1 50.5 10.5t37 24t26 32t18 34.5t12.5 32t9 25q7 -3 12 -13.5t8 -26t4 -34.5t-0.5 -38t-5.5 -37t-10 -30q-9 -21 -32.5 -53.5t-61.5 -70t-90.5 -77.5t-119 -75t-147.5 -63t-177 -41q-27 -3 -30.5 -10.5
t27.5 -17.5q45 -15 91.5 -17.5t92.5 0.5t92 8.5t92 7.5q37 6 72.5 29.5t67.5 58.5t61.5 78.5t54 88.5t44 89t33.5 80q13 38 23 80t13.5 86t0.5 87.5t-13.5 84t-29 76t-46.5 64.5q-41 33 -77.5 44.5t-68 7t-58.5 -22.5t-50 -45.5t-41.5 -61.5t-32 -70t-23 -72t-13.5 -66z
M415 298q22 22 43.5 31t42 8t40 -10.5t37 -25t33 -36t28.5 -43.5q-36 -15 -63 -21t-52 1.5t-50.5 30.5t-58.5 65z" />
    <glyph glyph-name="sf269" unicode="&#x6d2;" horiz-adv-x="2203" 
d="M496 97q-33 3 -69 7.5t-70 13.5t-65 24.5t-55 42.5q-4 4 -6.5 9t1.5 9q15 17 28.5 28.5t27.5 19.5t29.5 13t36 8.5t47 6.5l61.5 7q54 8 107 31t100.5 56t87 72.5t66.5 81.5q5 7 10.5 19t12.5 22.5t16 18t20 7.5q7 0 13.5 -8.5t15.5 -34t22 -70l33 -116.5q5 -4 14 8
t19.5 32t21.5 44.5t19.5 46.5t14 38.5t5.5 21.5l-28 90l-18.5 59t-12 35.5t-7.5 20t-5.5 11.5t-6.5 11q-23 17 -47 11.5t-44 -35.5q-29 -53 -59 -93t-64.5 -71t-75 -55t-91.5 -45l-75.5 -28.5l-79 -30.5t-76 -37t-66.5 -49q-8 -7 -27.5 -25.5t-49.5 -51.5t-68.5 -81.5
t-83.5 -114.5q-5 -7 -5 -14q0 -6 2.5 -11.5t6 -10.5l6.5 -9q17 -23 39.5 -37t48 -23t52.5 -14.5t52 -11.5q38 -7 102.5 -11t147.5 -5t180.5 1t202 5.5t212.5 9t210.5 12t197 13.5t172.5 13.5t135.5 12t86.5 9.5q7 4 8 5l35.5 23l41.5 26l41.5 26.5t38 27.5t29 26.5
t15.5 23.5q-19 -1 -39.5 -4t-41 -7t-41 -7.5t-39.5 -5.5l-274.5 -15.5l-210.5 -11.5l-159.5 -8.5t-122 -5.5t-98 -3t-88.5 -1.5t-92 0t-109 1t-139 1t-183 0.5z" />
    <glyph glyph-name="sf325.001" horiz-adv-x="1300" 
d="M768 919q24 -150 35.5 -234.5t15.5 -122.5q5 -47 -16 -96.5t-54 -96.5t-71.5 -87t-68.5 -67q-52 -47 -109 -86.5t-116 -73.5t-117.5 -62l-113.5 -52q-32 -15 -37 -21.5t4 -8t26 0t30 3.5l175.5 35t107 23t56.5 14.5t23 9.5q67 26 121.5 72t96.5 106t71.5 131t45.5 147
q4 -10 7.5 -31t7 -44.5l6.5 -45t5 -32.5q16 -87 42 -143t64 -89t90 -47.5t121 -18.5q14 -1 28 -1.5t28 -0.5q15 0 30.5 1.5t32.5 3.5v199q-77 -1 -131 6.5t-91.5 26t-61 48t-38.5 73.5q-36 105 -63 212.5t-47.5 214.5t-36 213l-29.5 208q-4 41 -9 58t-10 18t-10 -9.5t-9 -24
t-7 -26.5t-4 -16q-16 -72 -24 -143.5t4 -143.5zM265 762q16 -17 29.5 -25t23 -1.5t14.5 29.5t4 67q8 -10 29.5 -32.5t48.5 -56t57.5 -77t56.5 -95.5t45 -113t24 -128q10 -177 42 -4q12 65 7 137t-24.5 143t-52 137t-75.5 120l-48 57.5l-63.5 73l-73 78t-76 72.5t-73 56.5
t-63.5 30.5q-14 0 -17.5 -10t-3.5 -31v-54q0 -32 -6 -77q1 -35 23 -78t53 -85t63.5 -77.5t55.5 -56.5z" />
    <glyph glyph-name="sf268.001" horiz-adv-x="536" 
d="M294 1062v-7q0 -6 1 -18l3 -37.5t6 -67t11 -106.5l16 -156l22 -215q10 -100 19.5 -226.5t24.5 -278.5q1 -9 3.5 -12.5t6.5 2.5q32 66 45.5 148t12.5 170v11q0 9 -1 30.5t-4 63t-8.5 108.5t-15 168l-23.5 241l-34 328q0 30 0.5 54t0.5 53q-7 -1 -10 -6l-6 -10
q-9 -15 -19 -42t-19.5 -60t-17.5 -68t-14 -67zM394 1540q-91 0 -173 28.5t-149 89.5q-12 10 -17.5 2t-7.5 -20l-11.5 -46l-11.5 -46q0 -9 -2 -17t3 -15q45 -45 69 -93.5t32 -105.5q2 -6 3 -13t3 -10t5 0.5t9 18.5l16 55l16 55q48 -13 92.5 -22.5t93.5 -9.5q68 0 124.5 18
t104.5 54.5t89.5 91t78.5 126.5q2 6 2 7q0 5 -4 6t-12 -7q-75 -69 -162.5 -108t-190.5 -39z" />
    <glyph glyph-name="sf308" unicode="&#x61f;" horiz-adv-x="706" 
d="M414 34q-3 -17 -1 -20.5t6.5 -0.5t10 10t9.5 13q36 72 54 140t25 117.5t7 77.5q0 26 0 19q0 61 -10 93.5t-32.5 51.5t-56.5 33.5t-83 39.5q-33 16 -69 40.5t-66.5 57t-50 72.5t-19.5 87q20 29 48 51t57 37t58 22.5t50 8.5q37 2 72 -10.5t61.5 -36t42 -54.5t14.5 -66
q0 -11 3.5 -14.5t8.5 -3.5q11 0 15 11q9 14 25 42.5t30.5 60t23.5 62.5t3 50q-13 33 -34.5 62t-48.5 50t-59.5 32.5t-67.5 11.5q-95 0 -160.5 -39.5t-110.5 -104t-72 -145t-45 -160.5q-2 -82 26 -140t75.5 -102t109.5 -75.5t128 -61.5q33 -31 44 -71t8.5 -82t-12.5 -85
t-17 -81zM318 -242q-5 -9 -6.5 -14.5t4.5 -12.5q9 -12 26.5 -28.5l37 -34t39.5 -32.5t34 -22q17 -12 27 7l48.5 60.5t47.5 62.5q4 6 5 10.5t-4 10.5q-24 25 -61.5 53t-74.5 61q-6 5 -12 5.5t-14 -10.5q-6 -6 -20 -23l-29 -35l-28.5 -34.5z" />
    <glyph glyph-name="sf333" unicode="&#x61b;" horiz-adv-x="349" 
d="M43 550q14 -36 43 -57.5t61.5 -26t66 9t58.5 47.5l32.5 64.5t15.5 53.5q0 9 -6 26t-14 33.5t-19.5 29t-21.5 12.5q-11 -3 -20.5 -18.5t-19 -35l-18.5 -38.5t-17 -26q-19 -2 -31 8t-18.5 25.5t-9.5 34t-3 32.5q1 38 11.5 71.5t28 65t38 62l40.5 61.5q15 24 16 33.5t-6 9.5
q-8 0 -20.5 -7.5t-24.5 -18.5q-40 -47 -76.5 -103t-61.5 -115t-33.5 -119.5t9.5 -113.5zM54 207q-5 -9 -6 -14t5 -13q8 -11 25.5 -28.5t38 -35.5t41 -33.5t34.5 -22.5q17 -11 28 7q24 33 48.5 63t47.5 64q5 6 6.5 10.5t-4.5 9.5q-25 26 -63 55t-75 61q-6 6 -12.5 6.5
t-14.5 -10.5q-6 -6 -21 -22.5t-30.5 -35.5t-28.5 -36.5t-19 -24.5z" />
    <glyph glyph-name="sf272" unicode=":" horiz-adv-x="327" 
d="M32 666q-5 -8 -6 -13.5t5 -14.5q8 -11 25.5 -28t38 -34.5l41 -33.5t34.5 -23q17 -12 28 7l48.5 62t47.5 64q5 6 6.5 11t-4.5 10q-25 26 -63 55t-75 62q-6 4 -12.5 4.5t-14.5 -9.5q-6 -6 -21 -22.5t-30.5 -36l-28.5 -36.5t-19 -24zM32 225q-5 -9 -6 -14t5 -13
q8 -12 25.5 -29t38 -34.5t41 -33t34.5 -23.5q17 -12 28 8l48.5 62t47.5 63q5 7 6.5 11t-4.5 10q-25 26 -63 55t-75 61q-6 6 -12.5 6t-14.5 -10q-6 -6 -21 -22.5t-30.5 -36l-28.5 -36.5t-19 -24z" />
    <glyph glyph-name="sf273" unicode="," horiz-adv-x="337" 
d="M301 160q-11 36 -35.5 60t-55 32t-64 -1t-60.5 -39l-40 -57t-20 -49q-1 -9 2 -26t9.5 -33.5t15.5 -29.5t19 -14q10 0 21.5 14t22.5 32l21.5 34.5t19.5 22.5q18 0 28 -10.5t15 -26.5t5.5 -33.5t-0.5 -31.5q-6 -36 -20.5 -67t-34 -59t-43 -54.5t-45.5 -54.5
q-17 -21 -19.5 -30t4.5 -10q6 -2 19 4t27 16q43 39 85 88t73 103t46 110.5t4 109.5z" />
    <glyph glyph-name="sf275" unicode="!" horiz-adv-x="313" 
d="M163 659q1 -51 -4 -100t-9 -104q-1 -39 6 -39q3 0 8.5 8.5t10.5 21.5q37 91 56 190t19 200t-22 199t-69 185q-5 6 -15 22t-22.5 28.5t-25 14t-20.5 -21.5q-28 -70 -38 -99.5t-11 -35.5q-2 -6 -1 -9t3 -7q35 -54 60.5 -107.5t41 -108t23.5 -113.5t9 -124zM46 135
q-6 -7 -6.5 -11.5t5.5 -12.5q7 -10 22.5 -25.5t34.5 -31.5l37 -30t31 -20q15 -11 24 6l44.5 56.5t43.5 57.5q5 5 5.5 9.5t-5.5 8.5q-21 24 -55.5 50t-67.5 55q-6 6 -12 6q-5 0 -13 -10q-5 -5 -18.5 -20l-27.5 -32t-26 -33t-16 -23z" />
    <glyph glyph-name="sf257" unicode="%" horiz-adv-x="814" 
d="M128 0l274.5 481l199 348.5l121.5 212.5t41 73l-78 45l-636 -1118l49.5 -29t28.5 -13zM513 326q-4 -6 -5.5 -10.5t3.5 -11.5q7 -10 22.5 -25l32.5 -30t34.5 -27.5t29.5 -18.5q15 -12 23 5l42.5 52.5t40.5 54.5q4 5 5.5 9t-3.5 9q-22 22 -54 46.5t-63 52.5q-7 5 -12 5
t-12 -9q-6 -6 -17 -20l-25 -30.5l-26 -30.5t-16 -21zM56 858q-5 -8 -5.5 -12t4.5 -11q7 -11 22 -26t32.5 -30t34 -27t28.5 -19q16 -9 25 7l41.5 52.5t40.5 53.5q9 11 2 18q-22 23 -54.5 47.5t-63.5 50.5q-6 6 -12 6q-4 0 -10 -9q-7 -5 -18 -20t-24.5 -30.5l-26 -30
t-16.5 -20.5z" />
    <glyph glyph-name="sf258.001" unicode="&#x66d;" horiz-adv-x="958" 
d="M763 513q14 -2 43 2t56.5 13t49 22.5t21.5 33.5q0 17 -16.5 28.5t-41 18t-51 9.5t-45.5 3q-9 0 -15 -0.5t-10 -0.5l-246 -58q54 32 106 69l106 79q43 41 63 75.5t22 58t-13 34.5t-40 5.5t-59 -30t-72 -70.5l-64 -102l-66 -105q16 71 25 119.5l14.5 79t7 47.5t3.5 24
q-2 74 -22 114t-44 42.5t-43.5 -32.5t-19.5 -109q0 -11 2 -28t8.5 -48l17.5 -80.5t31 -124.5q-8 9 -23 31l-32 46l-32 45.5t-20 30.5q-39 55 -78.5 87t-71 43t-51.5 2.5t-20 -32.5q0 -23 23.5 -60t80.5 -85l108 -66l108 -64l-141.5 28.5t-82.5 15t-42 5t-18 0.5
q-70 0 -109.5 -20t-42 -44t32.5 -44.5t113 -21.5q34 3 71 10t74 16t73.5 19t69.5 18l-114 -76.5t-112 -81.5q-43 -44 -61 -78.5t-17.5 -56t16 -30.5t41.5 -2t59.5 30.5t67.5 65.5l66.5 107l65.5 107l-24 -127l-25 -129q-2 -67 10 -106t28 -53.5t34.5 -7.5t32.5 32t20.5 65
t-0.5 91q-12 60 -26.5 118.5l-28.5 116.5l71.5 -112.5t77.5 -104.5q65 -62 109.5 -74.5t58 9t-8 67.5t-87.5 101q-49 35 -99.5 65l-102.5 61l125 -23z" />
    <glyph glyph-name="sf259.001" unicode="@" horiz-adv-x="1070" 
d="M50 571q0 -94 28.5 -168t78.5 -130t117.5 -93.5t144.5 -59t159.5 -28t163.5 1.5q-4 3 -11.5 11t-16 16l-16 14.5t-12.5 7.5q-102 3 -201.5 29.5t-178 81t-127 137.5t-48.5 199q-2 94 34 168.5t97 126.5t141.5 80t169.5 28q85 0 156 -28t121 -78.5t77.5 -121.5t27.5 -158
q0 -34 -6.5 -80.5t-24 -90t-47 -74.5t-74.5 -31q-46 0 -64 33.5t-20 84.5t9 113.5t25.5 122t27.5 108t15 71.5q-66 26 -130 23t-121.5 -27.5t-107 -67.5t-86 -96.5t-56.5 -114.5t-20 -121q0 -48 19.5 -81t50.5 -50.5t69 -21t75 7.5t68.5 36.5t50.5 64.5q2 -38 6.5 -71
t17.5 -57t38.5 -38.5t69.5 -14.5q67 0 118 36.5t87.5 92.5t55.5 121.5t19 122.5q0 102 -33.5 185.5t-93.5 143t-143.5 92.5t-184.5 33q-102 3 -195.5 -35t-164.5 -105t-113 -158t-42 -193zM671 753q-4 -50 -7.5 -105t-19.5 -102.5t-48.5 -79t-91.5 -31.5t-91 35.5t-32 93.5
q0 63 23.5 104.5t63.5 63.5t92.5 26.5t110.5 -5.5z" />
    <glyph glyph-name="sf260.002" unicode="[" horiz-adv-x="502" 
d="M70 -294h361v92h-236v1293h237v92h-361v-1385h-1v-92z" />
    <glyph glyph-name="sf262.001" horiz-adv-x="796" 
d="M70 307h656v78h-656v-78zM304 597q-5 -7 -5.5 -10.5t4.5 -10.5q6 -9 19.5 -22t29.5 -27t31 -25.5t26 -17.5q14 -8 22 6l38 48t36 49q8 8 2 16q-20 20 -49 42t-58 47q-5 5 -10 5q-4 0 -10 -8q-5 -5 -16 -18l-23 -27.5l-22.5 -27.5t-14.5 -19zM305 113q-5 -7 -5.5 -10.5
t4.5 -10.5q6 -9 19.5 -22t29.5 -27t31 -25.5t26 -17.5q14 -8 22 6l38 48t36 49q8 8 2 16q-20 20 -49 42t-58 47q-5 5 -10 5q-4 0 -10 -8q-5 -5 -16 -18l-23 -27.5l-22.5 -27.5t-14.5 -19z" />
    <glyph glyph-name="sf263.001" unicode="$" horiz-adv-x="747" 
d="M56 425q0 -61 20.5 -107t54.5 -78t80 -53t100 -32v-155h39v155q1 0 20.5 2.5t43.5 4.5l5 -158h33v169q46 19 89.5 45.5t78 62t56 80.5t21.5 96q0 52 -24.5 91.5t-63 71.5t-83.5 57.5l-86 47.5q0 43 -0.5 97.5t-2.5 112t-2.5 113t-0.5 100.5q7 2 20 2.5t26.5 -1t27.5 -5.5
t22 -11q25 -21 33 -43t9 -51q0 -3 1.5 -8.5l2.5 -9t5 -3t12 9.5q20 38 37 77.5t17 80.5q0 43 -23 65.5t-56 30.5t-70 5.5t-69 -11.5v88h-42v-102q-14 -9 -30 -15.5t-32 -17.5l-5 135h-37v-162q-8 -4 -28.5 -20.5t-45 -41.5l-53.5 -55t-52.5 -66t-38.5 -75t-15 -76
q1 -47 27 -83.5t62.5 -65.5t80.5 -52l79 -43q0 -28 1 -79t3 -106t2.5 -104t0.5 -73q-41 7 -78 23t-66.5 40.5t-50 59.5t-26.5 75q-7 34 -12.5 39t-9 -6t-6 -32t-1.5 -36zM408 574q1 -21 1 -58.5v-83.5v-92v-83h-31q-16 0 -31 -1l-4 179.5t-2 171.5l34.5 -17.5t32.5 -15.5z
M631 354q-14 -17 -35 -32t-46 -27.5t-50 -21.5t-49 -9q-1 71 -2.5 143.5t-2.5 144.5q25 -12 58 -34t62 -49t47.5 -57t17.5 -58zM327 1114q3 4 10.5 8.5t18 8t19.5 6t15 3.5q5 -101 6.5 -200t4.5 -197q-18 7 -34 15t-30 17q-5 89 -6 173.5t-4 165.5zM285 1097
q4 -78 6.5 -151.5t2.5 -148.5l-34 18.5t-49 32.5t-52 47t-43 61q18 27 44.5 52t52.5 44.5t46 32t26 12.5z" />
    <glyph glyph-name="sf264.001" unicode="=" horiz-adv-x="857" 
d="M50 753v-106h757v106h-757zM50 455v-105h757v105h-757z" />
    <glyph glyph-name="sf268.002" unicode="-" horiz-adv-x="946" 
d="M50 612v-104h846v104h-846z" />
    <glyph glyph-name="sf269.001" horiz-adv-x="689" 
d="M336 279l282 -279l66 66l-279 279l282 279l-65 67l-284 -278l-272 271l-64 -64l268 -275l-267 -264l61 -61h6l266 259v0z" />
    <glyph glyph-name="sf270.005" unicode="(" horiz-adv-x="380" 
d="M333 -239q12 -10 22.5 -9.5t16 7.5t4.5 18.5t-11 23.5q-60 72 -101.5 150.5t-67.5 161.5t-38.5 169t-15.5 172q-3 89 7.5 177t35 171t63 158.5t91.5 138.5q8 13 7.5 23t-7 15t-16.5 3.5t-21 -11.5q-138 -132 -207.5 -302t-69.5 -359q0 -212 78.5 -387t229.5 -320z" />
    <glyph glyph-name="sf271.001" unicode="+" horiz-adv-x="948" 
d="M425 152h105v367h368v106h-368v375h-105v-375h-375v-106h375v-367z" />
    <glyph glyph-name="sf273.001" unicode="/" horiz-adv-x="1090" 
d="M990 1284q0 2 -13 9.5l-29.5 17.5t-33 18.5l-24.5 12.5l-790 -1394q6 -4 20.5 -12.5l30 -17.5l28.5 -16t18 -9z" />
    <glyph glyph-name="sf274.001" unicode="&#x6d4;" horiz-adv-x="578" 
d="M3 0h72h92t100 0.5t96.5 1t81 1t52.5 0.5l80 196l-476 1z" />
    <glyph glyph-name="sf264.002.24428116" unicode="#" horiz-adv-x="948" 
d="M50 455v-105h192l-19 -227l105 -9l21 236h195l-20 -221l106 -9l21 230h247v105h-238l15 192h223v106h-212l18 217l-104 9l-21 -226h-196l19 212l-105 10l-20 -222h-227v-106h218l-17 -192h-201zM374 647h196l-17 -192h-195z" />
    <glyph glyph-name="glyph170" horiz-adv-x="1024" 
d="M410 1207q-2 -17 -10.5 -30.5t-15.5 -28.5q-11 -23 -17 -47t-14 -47q-8 -20 -18 -38.5t-16 -38.5q-23 -73 -37 -147.5t-33 -148.5q-11 -42 -27 -82.5t-30 -81.5q-13 -13 -11.5 -22.5t9.5 -14.5t18.5 -4.5t16.5 9.5q11 18 19.5 38.5t19.5 39.5q18 32 38 64t37 64
q36 66 57 141.5t16 151.5q-2 19 -6.5 37.5t-6.5 37.5q-2 35 1.5 71.5t9.5 70.5q41 -20 68.5 -52t47.5 -70t35 -80t32 -81q38 -91 82 -179t94 -173q13 -22 29 -41.5t28 -41.5q4 -7 5.5 -14t6.5 -14q7 -7 14 -7q8 0 13.5 4t7.5 11.5t-3 15.5l-1 1q0 1 -1 2q1 -2 1.5 -2.5
t1.5 -2.5q-8 29 -28.5 53t-35.5 50q-30 52 -57.5 105.5l-53.5 107.5q-23 47 -43.5 94l-40.5 95q-13 32 -27.5 63t-31.5 62q-12 23 -24 43.5t-29 39.5q-20 20 -43 33q-26 14 -42.5 18.5t-26.5 -1.5t-14.5 -23t-7.5 -46l-6 -57t-1 -57q2 -26 8 -51t6 -52q0 -22 -2.5 -43.5
t-7.5 -43.5q-11 -51 -32.5 -96t-46.5 -88l-50 -85.5t-43 -90.5q4 2 8 4.5t8 4.5q-9 1 -9.5 -7t4 -16t11.5 -10t13 11q18 39 34 86.5t27 90.5q9 37 16.5 74.5l15 75.5t16.5 75t23 73q6 17 14.5 31.5t14.5 31.5q8 23 14 47t17 47q10 21 20 40t12 43q-2 10 -7.5 14.5t-12.5 4
t-13 -6t-7 -14.5zM373 834q0 2 -0.5 3t-0.5 3v-12q0 2 0.5 2.5t0.5 2.5l-18 -15q33 2 65 6t64 6q16 1 34 1t36.5 1t36.5 3.5t33 9.5q8 5 10.5 12t0.5 13.5t-8.5 10t-16.5 2.5q-28 -12 -63.5 -11.5t-64.5 -1.5l-33 -4l-33 -4q-10 -1 -25.5 -0.5t-29 -1.5t-22 -9.5t-5.5 -24.5
q2 -11 9 -15t14.5 -2.5t12.5 8t3 17.5z" />
    <glyph glyph-name="sf266.002" unicode="&#x621;" horiz-adv-x="621" 
d="M4 355q-3 -24 3.5 -44t19 -36.5t28.5 -31t33 -27.5q7 -5 2 -13q-27 -48 -49.5 -93.5t-30.5 -99.5q-2 -10 5.5 -9.5t11.5 6.5q41 60 97.5 99t122 65.5t135 46t135.5 42.5q32 46 55.5 83.5l45.5 72.5q5 13 -0.5 15.5t-16.5 -2.5l-56.5 -22.5t-60.5 -21t-62 -16.5t-61 -8
q-23 -1 -62.5 4.5t-79.5 19t-72 36.5t-39 58q20 24 47.5 42t58 26t62 3t58.5 -28q11 -10 19 -10t17 14q10 16 21.5 41.5t21.5 51t16.5 48t6.5 33.5q-33 24 -73 31t-79 0.5t-74.5 -24t-60.5 -42.5q-29 -29 -50.5 -68t-38.5 -81t-30.5 -84z" />
    <glyph glyph-name="sf270.008" unicode=")" horiz-adv-x="377" 
d="M44 1138q-12 10 -22.5 9.5t-16 -7.5t-4.5 -18.5t11 -23.5q60 -72 101.5 -150.5t67.5 -161.5t38.5 -169t15.5 -172q3 -89 -7.5 -177t-35 -171t-63 -158.5t-91.5 -138.5q-8 -13 -7.5 -23t7 -15t16.5 -3.5t21 11.5q138 132 207.5 302t69.5 359q0 212 -78.5 387t-229.5 320z
" />
    <glyph glyph-name="sf260.003" unicode="]" horiz-adv-x="502" 
d="M432 1182h-361v-92h236v-1293h-237v-92h361v1385h1v92z" />
    <glyph glyph-name="sf300.009" 
d="M195 216q-21 -5 -51 -8t-62 -5t-63 -2.5t-54 -0.5v-200q23 -1 54.5 0.5t64.5 5.5t63.5 11t50.5 17l40 85t31 70t20 65.5t7 71.5q1 50 -13 108t-33.5 112.5t-40 100l-32.5 70.5q-2 5 -8 6t-9 -6l-35 -78.5l-35 -77.5q-9 -17 0 -34q12 -36 30.5 -74.5t35.5 -78t28.5 -79.5
t10.5 -79zM14 -463q-3 -46 18.5 -79.5t53 -49t66 -9.5t57.5 40q14 21 18.5 48t1 50t-14 39t-25.5 16q-13 0 -20 -12t-11.5 -27t-9 -27.5t-13.5 -12.5q-30 -1 -42.5 18.5t-14.5 46.5t3.5 54.5t12.5 42.5q21 46 53.5 85t61.5 70q8 9 9 15t-2.5 9t-10.5 2t-15 -7
q-39 -29 -70.5 -66t-54.5 -78t-36 -84.5t-15 -83.5z" />
    <glyph glyph-name="sf303" horiz-adv-x="906" 
d="M497 -405q0 -25 7 -51.5t21 -49t35.5 -38t51.5 -17.5q22 0 39 9t28.5 24t17 33.5t5.5 37.5q2 13 -2 28.5t-11 29t-15.5 23t-15.5 9.5q-13 0 -20 -12.5t-11.5 -27t-9 -27t-13.5 -12.5q-12 0 -21.5 11.5t-16.5 26.5t-10.5 30.5t-3.5 24.5q-2 36 10 67.5t31.5 59.5t42 52
l42.5 45q8 9 9.5 15t-1.5 9t-9.5 2t-14.5 -7q-77 -57 -119 -135.5t-46 -159.5zM609 4q51 1 84 11t54 27q19 15 34 43.5t26 60.5t18 63t11 52q0 27 -6.5 61t-15.5 69t-19.5 68l-18.5 58q-6 17 -14.5 23t-22.5 -16l-20 -35l-21.5 -38.5t-19.5 -38.5t-14 -35q2 -11 9.5 -31
l16 -43t15.5 -45.5t7 -38.5q-8 -10 -34.5 -14t-61 -1t-72.5 14t-70 30.5t-53.5 47.5t-22.5 67v11q0 10 -3.5 16t-14.5 -7q-32 -38 -72 -71t-90 -57.5t-112.5 -38.5t-140.5 -13v-203q56 -2 111 9.5t103.5 38.5t88 69t65.5 101q20 -116 91 -165t185 -49z" />
    <glyph glyph-name="c" unicode="c" horiz-adv-x="774" 
d="M36 246q0 -52 14.5 -97t43 -78t70.5 -52t99 -19q102 0 186 45.5t151 115.5q8 8 24.5 26.5l35.5 41.5t37 47.5t31 46.5q11 19 13.5 33.5t-4 18.5t-21 -3t-37.5 -31q-23 -29 -54 -56t-69 -47.5t-81 -33t-90 -12.5q-75 0 -127 32t-79 87q-22 42 -24.5 97.5t15 106t56 85.5
t98.5 35q28 0 49.5 -8.5t42.5 -26.5q4 -4 12 -13t16 -19t15.5 -18t9.5 -8q3 0 9.5 14.5t15.5 37l18.5 47.5l17.5 47l13 36.5t5 15.5q0 24 -10.5 46.5t-28 38.5t-39.5 25t-45 7q-51 -5 -100.5 -40.5t-94.5 -89t-83.5 -119.5t-65 -132t-39 -126.5t-6.5 -103.5z" />
    <glyph glyph-name="d" horiz-adv-x="933" 
d="M487 215q-1 -33 0.5 -71t12.5 -70t35 -53t68 -21q48 0 90.5 21.5t78 55t64.5 74t50 78.5q12 22 17 38.5t2.5 22t-12.5 -3t-28 -35.5q-14 -20 -35.5 -39t-46.5 -33t-50 -20.5t-47 -0.5q-24 6 -38 29t-20 53t-6 60q0 31 4 51q10 111 24.5 225t31.5 231.5l34.5 240
t33.5 251.5q-3 0 -7.5 -3.5t-18 -19l-41 -48.5l-76.5 -91q-11 -96 -23 -190.5l-24 -188.5q-77 6 -147 -11.5t-129.5 -52t-108 -84.5t-82 -109t-51 -124.5t-15.5 -131.5q2 -76 30 -122t70.5 -66t94.5 -17t102.5 25t94 61t68.5 89zM537 615q-1 -46 -3 -94t-9.5 -94t-22 -86.5
t-41 -71.5t-67 -50.5t-99.5 -21.5q-44 -2 -73.5 15t-47.5 46.5t-26 67t-8 77.5q17 86 58.5 136.5t96.5 73t118 21.5t124 -19z" />
    <glyph glyph-name="e" unicode="e" horiz-adv-x="816" 
d="M30 298q0 -64 21 -118t59 -94t90 -63t116 -23q72 0 141.5 34t130 87t109.5 117t79 126q9 18 9.5 27.5t-5 10.5t-14.5 -5.5t-18 -19.5q-34 -42 -68 -74.5t-72.5 -54.5t-83 -35t-98.5 -15q-43 -2 -85.5 10.5t-77 33t-55.5 45.5t-21 48q0 2 13.5 10.5t34.5 20l45.5 24.5
t48.5 28q39 22 94 59t104.5 82t85 94.5t35.5 100.5q0 57 -33.5 80t-84.5 23q-58 0 -119.5 -23.5t-111.5 -58.5q-58 -42 -107 -93t-85 -110.5t-56.5 -127.5t-20.5 -146zM173 391q-7 47 3 104t37 107.5t70 84.5t102 34q29 0 51 -16.5t22 -50.5q0 -38 -27.5 -77t-70 -74
t-93 -64t-94.5 -48z" />
    <glyph glyph-name="f" unicode="f" horiz-adv-x="791" 
d="M751 730q0 31 -9 78.5t-28 92.5t-49 76.5t-72 31.5q-39 0 -74 -25t-64.5 -65.5t-53.5 -90t-41.5 -99.5t-26.5 -94.5t-9 -72.5q-1 -128 2 -251t2 -250q-59 -6 -108.5 -22.5t-99.5 -58.5q-11 -10 -18.5 -21t-9 -17.5t7.5 -7t32 10.5q46 18 95.5 17.5t91.5 -24.5
q3 -39 6.5 -90.5t3 -108t-9.5 -112t-31.5 -102t-62 -77.5t-101.5 -38q-20 -3 -40 -0.5t-38 4.5q-16 2 -16 -8q0 -18 18.5 -31t42.5 -21t47.5 -11.5t34.5 -2.5q68 6 117.5 38.5t82.5 81.5t52.5 109.5t30.5 124.5t14.5 124.5t4.5 108.5q69 9 126.5 28t114.5 55q12 7 25 15.5
t17.5 15.5t-2.5 10.5t-34 2.5q-28 -2 -68 -4.5t-77 -2.5t-66 4.5t-36 18.5q-2 34 -1 62t25 56q35 40 80.5 105t86 140t65.5 153t20 144zM457 782q31 15 55 9.5t42 -24t29.5 -45.5t18 -56t9 -56t1.5 -45q2 -41 -7.5 -83.5t-28.5 -82.5t-45 -76t-56 -64l-14 145t-8.5 123.5
t-1.5 120t6 134.5z" />
    <glyph glyph-name="g" unicode="g" horiz-adv-x="812" 
d="M599 48q-91 -65 -153 -113.5t-101.5 -84t-62 -57.5l-34.5 -34q-32 -37 -61 -83t-50 -95.5t-31 -101t-5 -102t27 -97t66 -84.5q62 -26 116 -19.5t101 37t87 81t72 111.5t58 129t44 132.5t29.5 122.5t14.5 100l29 304.5l21 218.5l14.5 147.5l9 91.5t5 50t1.5 24
q-41 25 -93.5 36t-108 9.5t-109.5 -15.5t-97 -40q-53 -31 -115 -87.5t-115.5 -127t-88.5 -151t-33 -159.5q1 -70 34 -113.5t84 -63.5t111.5 -17t117.5 28q37 16 69.5 40t59.5 49.5t48 51.5t35 45q6 12 11 11t5 -14q0 -14 -0.5 -39.5t-1.5 -51.5t-3 -45.5t-7 -23.5zM212 -506
q-3 51 13.5 99.5t47.5 93.5t71.5 86.5t84.5 80t88.5 72.5l81.5 64q-7 -44 -9 -103.5t-6 -123.5t-15.5 -127t-37.5 -114.5t-69.5 -86.5t-113.5 -42q-52 -6 -87 22t-49 79zM161 358q7 43 35 78.5t69 61t91.5 41t102 20t100 -4t85.5 -30.5q0 -14 -3 -43l-6.5 -60.5t-7 -59
t-4.5 -38.5q-23 -33 -66 -60t-94 -43t-104 -19.5t-97 11t-72 49.5t-29 97z" />
    <glyph glyph-name="i" unicode="i" horiz-adv-x="551" 
d="M288 475q12 48 26.5 112.5t35.5 146.5q9 78 -4.5 110.5t-39.5 32.5t-61.5 -25t-71 -61t-67.5 -75t-50 -68q-21 -31 -23.5 -43t6 -9.5t24 15t32.5 30.5q17 19 35 33.5t38 13.5q14 0 17 -23t-1 -55t-12.5 -67l-15.5 -62q-20 -93 -40.5 -178.5t-24 -151.5t17.5 -107.5
t83 -48.5q48 -5 92.5 16t81 52t63 64t39.5 53q26 36 39.5 62.5t13 36.5t-15 1t-42.5 -42q-11 -15 -23.5 -29.5t-26 -26.5t-30.5 -19t-37 -6q-56 1 -75.5 30t-19 74t13 101t23.5 113zM472 1141l-159 163l-149 -140q10 -10 29 -32t42.5 -46.5t48 -47.5t45.5 -35q5 4 13 11
t24 22.5l41 41z" />
    <glyph glyph-name="h" unicode="h" horiz-adv-x="954" 
d="M463 1661q-27 0 -62 -26t-74.5 -71.5t-81 -108.5t-81.5 -137l-6.5 -84t-9 -107.5l-13 -154.5t-17.5 -225l-24.5 -318l-33.5 -434q2 -9 7 -8t6 3q41 39 75 76.5l69 79.5q6 87 13.5 172.5t13.5 172.5q12 27 28.5 55.5t37 49.5t44.5 31t50 3q44 -12 64 -45t26 -78.5
t2.5 -101t-9 -111t-7.5 -108.5t7 -95t34 -68.5t74 -29.5q59 3 108 33t87.5 71.5t67.5 86.5t46 78q20 39 13.5 48.5t-37.5 -24.5l-29.5 -35t-31 -34.5t-36.5 -28.5t-44 -15t-40.5 8t-27.5 29t-16.5 40t-5.5 43q0 32 6.5 83t11.5 108t4.5 114t-15.5 102.5t-48 74.5t-93 29
q-49 0 -87 -12t-69 -34t-59 -55t-56 -77q2 47 5.5 89.5t9.5 84.5q45 29 102 93.5t108 149t85.5 183t34.5 197.5q0 30 -4 71t-18 78t-38.5 63t-65.5 26zM341 1458q30 4 50.5 -19t32.5 -56t16.5 -67t4.5 -54q0 -43 -9.5 -85.5t-31 -87.5t-56 -95t-82.5 -107l14 159.5
t13.5 133.5t19 130t28.5 148z" />
    <glyph glyph-name="j" unicode="j" horiz-adv-x="763" 
d="M32 -552q-2 -31 0.5 -69t13 -72t33.5 -60.5t61 -34.5q89 -15 168.5 44t141 170t104 264.5t58.5 331.5l18 11l27.5 17l27.5 17.5t18 11.5q11 7 18 15t7 13q0 12 -30 3q-20 -6 -34 -13.5t-40 -18.5q1 12 6 48.5t11 89t12 115.5t9.5 126.5t2.5 123t-8.5 105t-23 72.5
t-41.5 26q-39 -3 -73.5 -32.5t-65.5 -70t-56.5 -85.5l-44.5 -78q-15 -21 -18 -35.5t2.5 -18t18.5 5t33 33.5l31.5 39.5t31.5 32.5t27.5 8.5t19.5 -32.5q6 -120 2.5 -233t-21.5 -229q-3 -9 -7.5 -34.5t-17.5 -52.5q-87 -57 -162 -117t-130.5 -127.5t-90 -143.5t-39.5 -166z
M154 -474q-9 43 3 86.5t37.5 83.5t59.5 77t70.5 69t71.5 56.5l61 41.5q-3 -53 -5.5 -107t-8.5 -108.5t-16.5 -108.5t-28.5 -106t-55 -79t-76.5 -26t-72 30.5t-40.5 90.5zM434 1067l79 -67l79 -68l70.5 75.5l70.5 74.5l-80.5 71.5l-78.5 68.5z" />
    <glyph glyph-name="k" unicode="k" horiz-adv-x="954" 
d="M186 108q5 22 9 60t7.5 81t6 82.5t5.5 64.5q52 0 86.5 -28t58.5 -70t43 -91.5t42.5 -91.5t55.5 -70t82 -28q43 0 88.5 16.5t87.5 43.5t80 59.5t67 63.5q14 16 16.5 25t-3 11.5t-17.5 -0.5t-26 -12l-56 -33.5t-61 -15.5q-51 0 -85.5 25.5t-60 63.5t-46 85t-43.5 89
t-52 74.5t-73 43.5q-2 2 -1 3l4 4l73.5 58.5l78 63l67.5 56.5t44 40q15 18 19.5 35t0 27.5t-16.5 13t-30 -9.5l-64 -47l-57.5 -44.5l-58 -47l-63.5 -54l-76 -66l-95 -82.5l21 172q57 66 117 149t110 176.5t81 195t31 203.5q0 30 -3.5 70t-15.5 76.5t-35.5 62.5t-62.5 26
q-28 0 -48.5 -7.5t-38.5 -22.5t-37 -39.5l-44 -59.5l-57.5 -78.5t-39.5 -62t-27 -53.5t-19.5 -54t-16.5 -63.5l-19 -82.5l-89 -1119l78 56.5zM248 781q16 169 29 279t25 181.5t22 114.5l18 79q20 7 36.5 -9t29 -41t19.5 -53t10 -42q8 -72 -4 -140.5t-39 -132t-64.5 -123
t-81.5 -113.5z" />
    <glyph glyph-name="l" unicode="l" horiz-adv-x="757" 
d="M100 424q-5 -87 -1.5 -162.5t22 -131.5t57.5 -89.5t105 -36.5q76 -4 140 31t117.5 91t95.5 126t73 134q11 22 15 37t1 19t-15 -5.5t-33 -35.5l-60 -70.5t-64.5 -61.5t-74.5 -42t-89 -12q-31 1 -59.5 17t-49 41t-32.5 55.5t-9 61.5q5 46 8.5 94t5.5 93q58 67 116 144
t105.5 162t79.5 177t36 189q2 24 1 64.5t-7 85.5t-18.5 88.5t-33.5 76t-53.5 47t-76.5 -0.5q-4 -1 -16.5 -14t-29 -33l-36 -43.5l-36 -44.5l-28 -36.5t-12.5 -20.5q-20 -84 -33.5 -154t-24.5 -135.5t-20 -131t-17.5 -140.5l-18 -164l-21.5 -202q-11 -11 -24.5 -26.5
t-41.5 -50.5q-11 -14 -12 -21t2.5 -8.5t11.5 1.5t16 10q6 6 19.5 15.5t19.5 12.5zM262 647q20 209 50.5 393.5t66.5 343.5q28 -9 44.5 -43t26.5 -76t13 -83.5t1 -64.5q-3 -67 -23 -132t-49.5 -125t-63.5 -114t-66 -99z" />
    <glyph glyph-name="m" unicode="m" horiz-adv-x="1218" 
d="M977 -18q26 2 51.5 15t48.5 31.5t45 40.5t40 43q31 33 24.5 38t-41.5 -16q-18 -10 -41 -15.5t-42 -1t-31.5 19.5t-11.5 47q6 58 15 112l18.5 107l18.5 106t14 110q1 27 -6 58.5t-24 59t-42 45.5t-60 17q-41 -1 -74.5 -23t-62 -54t-53 -67.5t-45.5 -61.5q-2 26 -8.5 59
t-20 62.5t-36.5 49.5t-57 20q-27 -2 -54 -17t-53 -36.5t-48.5 -47t-40 -48.5l-30 -40.5t-16.5 -20.5q2 12 4 27.5t1 35.5q0 30 -5.5 62.5t-17.5 59t-30 44t-43 17.5q-21 0 -49 -22.5t-57.5 -55t-56.5 -69.5t-44 -67q-26 -46 -20 -54t43 34q33 37 59 40.5t45 -15.5
t29.5 -56.5t11.5 -84.5q2 -45 -3 -96.5t-13 -102.5t-17 -99t-18 -86l-15 -63t-7 -31q-1 -4 17 5t41.5 22t45.5 27.5t29 23.5q18 94 29 163l19 119t14.5 85.5t14.5 62.5q15 42 39.5 65.5t74.5 24.5q33 2 63 -21.5t33 -63.5q6 -50 2.5 -111.5t-13 -125.5t-22 -126.5
l-23.5 -113.5q0 -2 -0.5 -11t-0.5 -18q0 -11 2 -9q64 38 91 56t34 28q1 3 5 24t8.5 48t8.5 54.5t5 43.5q11 72 22 136t29.5 112t48 76t78.5 28q30 2 50 -14.5t30 -40.5t12.5 -52.5t-1.5 -52.5q-11 -72 -19 -142.5t-19 -142.5q-5 -29 -5.5 -60t7 -56t25.5 -41t51 -12z" />
    <glyph glyph-name="n" unicode="n" horiz-adv-x="880" 
d="M566 488l-44 -361q1 -57 19.5 -91t62.5 -34q31 2 62.5 23t61.5 51.5t55.5 66t43.5 63.5q18 27 21 40.5t-3 15.5t-18.5 -7t-27.5 -27q-20 -22 -44 -35.5t-45 -13.5q-20 0 -34 17.5t-15 59.5q0 40 9 99l20 138q5 24 9.5 57.5t6 69.5t-3 71.5t-18 64.5t-39.5 47.5t-68 20.5
q-42 0 -81 -26t-70.5 -61t-54.5 -68.5t-33 -46.5q0 9 -0.5 28.5t-3.5 41.5t-9 46t-16.5 42.5t-27 30.5t-40.5 11q-27 0 -53.5 -11t-50 -28t-44 -37.5t-34.5 -39.5q-10 -14 -17.5 -26t-9.5 -18t6 -4t32 18q30 18 54 19t41 -11.5t26 -36t9 -55.5q3 -54 -1.5 -119t-12 -130.5
t-17 -126t-17.5 -106.5t-11.5 -74t-1.5 -25q1 -4 18 11t39 39.5t44.5 54.5t34.5 56q12 42 18.5 97t15.5 111t23 107.5t39 87.5q29 41 65 49t66.5 -7t49.5 -49.5t14 -79.5z" />
    <glyph glyph-name="glyph188" horiz-adv-x="0" 
 />
    <glyph glyph-name="glyph189" horiz-adv-x="0" 
 />
    <glyph glyph-name="a" unicode="a" horiz-adv-x="906" 
d="M469 184q1 -29 8.5 -61.5t23 -59.5t40.5 -45t63 -18q33 0 69.5 18.5t69 44t58.5 51t39 40.5q36 45 36 51q0 4 -11 -2t-35 -22q-22 -13 -44 -24t-48 -11q-34 0 -53 23t-26 61.5t-5 88t10.5 104.5t21 109.5l24.5 102.5t23 85l17 56q-53 23 -116 29.5t-126 0t-121 -24
t-101 -41.5q-68 -37 -116 -89.5t-79 -115.5t-46 -134.5t-15 -146.5q0 -44 12.5 -83t37 -68t60.5 -45.5t83 -16.5q40 0 73.5 13t63 33.5t56.5 45.5zM536 514q-4 -46 -17.5 -93.5t-38 -86.5t-61.5 -64t-91 -25q-30 0 -61 12t-55 33.5t-39.5 53.5t-15.5 71q0 78 36.5 132
t94.5 83.5t128 36t137 -10.5q-3 -33 -7 -68t-10 -74z" />
    <glyph glyph-name="b" unicode="b" horiz-adv-x="853" 
d="M608 703q-56 3 -107 -17t-98 -56.5t-90 -84.5t-81 -105q37 278 66.5 554.5t63.5 553.5l-38.5 -47.5l-37 -46.5l-38.5 -49l-44 -57l-32.5 -295.5l-26.5 -240l-21 -190l-16 -144.5q-1 -15 -3.5 -41.5l-5.5 -58.5l-6 -65t-6.5 -61t-7 -45t-7.5 -17q-6 1 -13 3.5t-14 3
t-11 -2t-3 -13.5q11 -44 43 -77t72.5 -54.5t86 -33t84.5 -12.5q50 -2 107 12.5t112.5 43.5t106.5 69.5t90 90.5t63 108t26 122q1 47 -12 92t-40.5 79.5t-68.5 57.5t-93 24zM484 522q51 -2 96 -31t72 -73.5t29.5 -96.5t-28.5 -98q-57 -35 -117 -51t-122 -20t-126 2.5
t-126 18.5q25 50 52.5 112t64.5 115.5t86.5 88.5t118.5 33z" />
    <glyph glyph-name="o" unicode="o" horiz-adv-x="698" 
d="M619 353q25 57 37 110.5t2 116.5q-5 49 -26 96.5t-53.5 87t-74.5 67.5t-89 40t-96 4.5t-96 -40.5q-20 -14 -25 -37t-5 -47q-56 -63 -97 -146.5t-57 -173.5t-3.5 -179t64.5 -164q44 -65 110.5 -80.5t139.5 12.5q48 22 89.5 60t75 83.5t59.5 94.5t45 95zM310 200
q-59 4 -97.5 29t-60 64t-27.5 88t-0.5 98.5t21.5 96.5t39 83q9 17 12 11t1 -17q-1 -1 -1 -9v-7q0 -7 7 -5q59 35 122.5 29.5t117 -38.5t87 -88t32.5 -120q-1 -38 -27 -76.5t-64 -69t-81.5 -50t-80.5 -19.5z" />
    <glyph glyph-name="q" unicode="q" horiz-adv-x="826" 
d="M528 756q-71 -5 -135.5 -31.5t-120.5 -69t-101.5 -99t-77 -120.5t-47.5 -133t-12 -137q8 -59 37.5 -95.5t71 -54t89.5 -17t94 16.5t85.5 47t63.5 73q0 4 -6.5 -42l-17.5 -126l-26 -185.5l-31.5 -220.5l-34.5 -231.5t-36 -218.5q44 31 86.5 68.5l83.5 75.5q24 88 57.5 173
t71.5 166t77.5 156.5l76.5 145.5q15 25 17.5 37.5t-2.5 14.5t-16 -5.5t-24 -22.5q-20 -22 -40 -49t-42.5 -60.5l-50.5 -75l-62 -92.5l57 393.5l43 282l30 189.5l19.5 117t10.5 65t3 31q-42 23 -93 28t-98 6zM325 198q-29 0 -55 11t-46.5 29.5t-34 43.5t-16.5 55
q-9 65 11 118t58 89.5t90.5 57t110.5 20.5q7 0 25.5 -1l38 -2t35 -3t17.5 -4q-5 -29 -9 -70.5t-12 -87t-21.5 -90.5t-38 -81.5t-62 -59.5t-91.5 -25z" />
    <glyph glyph-name="p" unicode="p" horiz-adv-x="919" 
d="M430 632l-5 52.5t-12 57.5t-27 45.5t-50 17.5q-24 -1 -51 -17t-55 -42t-56.5 -57t-52 -62l-42.5 -58t-29 -43q-20 -30 -10 -43t33 5q12 11 28.5 32l34.5 42.5t36.5 38t35.5 17.5q27 1 39 -35.5t14.5 -93.5t-3.5 -125.5t-14 -130t-17 -109l-12 -62.5q-35 -9 -58.5 -17
t-37.5 -14q-28 -11 -36.5 -18.5t-4 -13.5t19 -9.5t33.5 -5.5h15h23t23.5 -0.5t17.5 -0.5l-20 -137.5l-18 -119.5l-18.5 -113.5l-20.5 -120l-23.5 -139t-26.5 -171.5l153 111q28 123 45 214.5t29.5 172l25 157.5t30.5 167q114 10 211 63.5t167.5 135t107.5 183t30 208.5
q-5 43 -21.5 79.5t-44.5 63t-64.5 41t-79.5 12.5q-38 -3 -72.5 -18t-64.5 -37t-56.5 -49t-48.5 -54zM415 457q23 48 58.5 77t74 38t76.5 0t67 -35t44 -68.5t8 -100.5q-15 -68 -53 -113.5t-90 -75t-111 -47t-116 -29.5q10 83 19.5 171t22.5 183z" />
    <glyph glyph-name="r" unicode="r" horiz-adv-x="832" 
d="M700 212l46.5 47t43.5 53q18 28 9.5 35t-27.5 -16q-28 -27 -52.5 -48t-55.5 -39q-42 -23 -104.5 -38t-122 -9.5t-102 35.5t-45.5 97q0 15 13.5 40t32.5 50.5t40 50t38 39.5q18 18 55 51.5l106 91.5l19.5 17.5t18.5 19.5q21 24 15 31t-33 5q-39 -4 -82 -6.5t-81 -2.5
t-69.5 3t-49.5 12q15 19 17 49.5t-7 59.5t-30 50t-52 21q-20 0 -43 -14t-45 -36t-42.5 -49.5t-36 -56t-25 -54t-9.5 -43.5q0 -20 9 -35t22.5 -27t30 -20t31.5 -14q-6 -11 -21.5 -37l-33.5 -56l-35 -58.5t-25 -44.5q-13 -24 -9.5 -35.5t15 -13t24.5 4.5t20 16l134 202
q38 1 81 -0.5t88 -0.5l-65 -79t-68.5 -89t-55 -97.5t-25.5 -103.5q-2 -36 9.5 -66.5t33 -53t51 -35.5t63.5 -13q41 0 94.5 22.5t107.5 54t102.5 68.5t81.5 65z" />
    <glyph glyph-name="s" unicode="s" horiz-adv-x="658" 
d="M43 178q37 -78 100 -128.5t156 -50.5q53 0 111 21t106.5 58.5t80 88.5t31.5 113q0 63 -34 104t-83.5 68.5t-106.5 47.5t-103 42q-14 9 -37 22t-41.5 30t-26.5 35.5t7 37.5q35 25 78 42.5t88 22t89 -6.5t78 -42q15 -19 22.5 -24.5t11.5 -1.5t4.5 16t0.5 29q-1 53 -24 97.5
t-61 70t-86.5 27.5t-99.5 -31q-40 -26 -77 -57t-68 -73t-52.5 -97.5t-27.5 -128.5q-3 -36 10.5 -62.5t37.5 -45.5t55.5 -33.5t64.5 -26.5l64.5 -23.5t55.5 -24.5q15 -7 38 -19t45 -28.5t37.5 -36t15.5 -41.5q-53 -27 -110.5 -35.5t-115 0t-112.5 30.5t-100 57
q-17 12 -25 11.5t-9 -8.5t2.5 -21t9.5 -25z" />
    <glyph glyph-name="t" unicode="t" horiz-adv-x="559" 
d="M352 186q-39 -1 -58.5 22.5t-26.5 61t-3 85t11 93t15 84.5t10 62h148v98h-130q-1 14 8.5 63l22.5 115t26 139t16.5 134.5t-5 101.5t-37.5 40q-37 0 -76.5 -30t-75 -71.5t-63 -84.5t-40.5 -69q-8 -14 -10 -25t1 -16.5t10.5 -3t20.5 15.5q4 3 15 15l25 26t30 27t29 18
t21 -1.5t6 -30.5q-2 -31 -8.5 -78.5t-15 -99l-17 -101t-15.5 -84.5h-150l2 -98h125q0 -23 -10 -76.5l-21.5 -120t-19.5 -138t-3 -130t26.5 -95t70.5 -34.5q45 2 87.5 25.5t81 58.5t72 76.5t58.5 79.5q18 26 22.5 43.5t-1.5 23t-20 -1t-32 -28.5q-16 -15 -29 -30t-26 -27
t-29.5 -21t-37.5 -13z" />
    <glyph glyph-name="u" unicode="u" horiz-adv-x="863" 
d="M503 209q1 -21 3.5 -55.5t11.5 -69t27.5 -59.5t50.5 -25q33 0 66 24.5t61.5 59t52 71t36.5 60.5q21 38 12 40.5t-34 -25.5q-15 -16 -32.5 -27t-41.5 -11q-30 0 -46.5 24t-24 63.5t-5.5 92t8 108t15.5 111t19 102.5t17.5 82.5t10 50.5q-9 -3 -26.5 -12t-35.5 -20.5
l-33.5 -21.5t-22.5 -15q-8 -5 -11 -12t-5 -14q-20 -100 -37 -203t-48 -218q-11 -39 -40.5 -66.5t-63 -34t-64 12.5t-43.5 73q-4 52 2.5 102.5t17 100t18.5 100t8 100.5q0 20 -3.5 41t-12.5 38t-24.5 28.5t-38.5 11.5q-31 0 -59 -12.5t-53 -31.5t-47 -42l-41 -42
q-7 -10 -12 -18.5t-4 -13t8 -4t23 10.5q23 14 48.5 22.5t46.5 1t31.5 -33.5t4.5 -83q-23 -114 -35 -186.5t-18 -115t-7 -62t-1 -26.5q0 -27 8.5 -59.5t26 -59.5t42.5 -44t59 -14q28 2 54.5 15t53.5 38.5t57.5 63z" />
    <glyph glyph-name="v" unicode="v" horiz-adv-x="724" 
d="M100 809q-26 -42 -48 -92.5t-22 -100.5q0 -28 8 -62t23 -58l157 -232.5t147 -238.5q11 -21 20.5 -22.5t20.5 23.5l142 307t88 204t45 129t13 83q0 45 -22.5 63t-67.5 2q-28 -10 -55.5 -30t-53 -44.5t-45.5 -52t-34 -52.5q-10 -22 -9.5 -31.5t27.5 6.5q14 10 33.5 17
t38.5 7q21 0 37 -9t22 -31q1 -49 -9 -94t-27.5 -89t-38 -86.5t-38.5 -86.5q-64 108 -122.5 192l-106 151.5t-79.5 122t-44 105.5z" />
    <glyph glyph-name="w" unicode="w" horiz-adv-x="1064" 
d="M731 638q-10 -9 -18.5 -22.5t-8.5 -26.5q0 -18 13 -17.5t26 6.5q8 4 26 11t40.5 14t44 11t36 1t19 -15t-8.5 -38q-18 -44 -41 -89l-46 -87.5l-45.5 -81l-39.5 -66.5q-10 -14 -16 -7t-12 20q-10 19 -20 53t-20 75.5l-20 87l-19 89.5l-17.5 82t-15.5 64q-8 26 -15.5 35
t-15 6t-15.5 -15.5t-16 -27.5l-70.5 -142l-62.5 -131.5l-49 -106t-30 -66.5q-6 -10 -10.5 -13t-10.5 9q-11 19 -26.5 67t-33 108t-34.5 126l-30 121l-22 93t-9 44q-7 38 -23 -1l-28 -54t-27.5 -58t-21 -60t-8.5 -60q11 -74 24.5 -133.5t34 -120t47.5 -129.5l64 -161
q12 -28 22.5 -32.5t28.5 19.5q36 48 64 100.5t52.5 107l48 108.5t50.5 105q32 -80 52 -160.5t47 -161.5q22 -63 37 -90.5t31 -26.5t35.5 27.5t47.5 73.5q82 125 147.5 250.5t127.5 265.5l23 51.5t16.5 54.5t-9 44t-55.5 18q-31 0 -64.5 -15.5t-65 -38.5t-59 -48.5
t-46.5 -45.5z" />
    <glyph glyph-name="x" unicode="x" horiz-adv-x="1058" 
d="M739 -1q42 0 78.5 14.5t69 37t61.5 51l55 56.5q19 23 22 35t-5 14.5t-24 -3.5t-34 -18q-37 -24 -74 -23t-70.5 18.5t-62.5 46t-49 59.5q-14 19 -28 42.5t-27 48.5t-22 51.5t-9 54.5q41 46 92 86.5t105 64.5q30 31 54.5 64t54.5 64q28 28 23 36.5t-43 -7.5
q-90 -38 -166 -100.5t-141 -140.5q-19 42 -45.5 84.5t-60 77.5t-75.5 56.5t-94 21.5q-20 0 -41 -13.5t-40.5 -31.5t-35.5 -38l-28 -35q-9 -8 -19.5 -20t-19.5 -25q-13 -18 -10 -30t27 0q57 19 102.5 1t82.5 -55.5t64.5 -85.5l48.5 -88q-29 -62 -73.5 -116t-98 -96.5
t-113.5 -73t-121 -44.5l-10.5 -3.5t-6.5 -3.5t1.5 -5t14.5 -6q12 -4 30.5 -7l36 -6t30.5 -4t17 -1q32 0 65 15t71 48t82.5 85t101.5 126q14 -45 35 -95t51.5 -90.5t72.5 -67t98 -26.5z" />
    <glyph glyph-name="y" unicode="y" horiz-adv-x="835" 
d="M169 -602q0 -33 3.5 -74.5t17.5 -78t40 -61.5t70 -25q49 0 97 31t92.5 83.5t83.5 122.5t71 148t54.5 159.5t33.5 157.5l73 949q-8 0 -34.5 -23.5t-54.5 -54t-51 -60t-24 -41.5q-9 -71 -13 -136t-12 -121.5t-24 -101.5t-48 -75q-18 -17 -46.5 -24t-57 -5.5t-54.5 13.5
t-40 36q-17 43 -18.5 100t3 115.5t11 111t6.5 87.5q0 16 -1 43.5t-8.5 54t-22 46t-40.5 19.5q-31 0 -63 -22t-60.5 -54t-52.5 -65.5l-39 -54.5q-13 -21 -22 -39t-9 -26q0 -7 12 0.5t41 38.5q21 23 43.5 35.5t40 11t28 -19.5t10.5 -55q0 -53 -7 -105.5l-14.5 -105
t-12.5 -105.5t-2 -104q12 -62 57 -95t108 -33q48 0 87 14t71 38t61 55t58 66v-13t-2 -24.5l-6.5 -58l-13.5 -115.5q-68 -44 -140 -100t-132.5 -125.5t-101 -153t-46.5 -181.5zM294 -502q0 70 27 127t69.5 105t95.5 88t106 76q-5 -98 -13 -200.5t-32 -192.5
q-18 -64 -57 -101.5t-80.5 -41.5t-75 29t-40.5 111z" />
    <glyph glyph-name="z" unicode="z" horiz-adv-x="959" 
d="M236 41q44 0 85 -6.5t83 -14t83.5 -14t84.5 -6.5q96 0 175 53.5t154 143.5q18 21 22.5 31t-1 11t-19 -5.5t-31.5 -17.5q-46 -25 -74.5 -36.5t-59.5 -11.5q-30 0 -75.5 8t-126.5 21l-76 12.5t-77 10t-78 3.5t-79 -8q28 42 74 78.5t99 69.5t107 62.5t99 58.5q44 30 86.5 66
t81 73l73 73l61.5 65q15 17 18.5 25t-1 10t-15 -2t-23.5 -14q-35 -24 -92 -26.5t-117 5.5t-111.5 20t-74.5 15q-61 9 -113 -7.5t-94.5 -48.5t-77 -77t-62.5 -95q-10 -19 -18 -37.5t-9 -26.5t10 -1t40 39q38 46 82.5 66t102.5 14q63 -8 126 -15t127 -16q-153 -67 -264 -160.5
t-185 -207.5q-29 -43 -48 -75l-31.5 -54l-20.5 -36.5t-13 -24.5q-13 -24 -4.5 -28t26.5 5q42 21 81.5 27t89.5 6z" />
    <glyph glyph-name="A" unicode="A" horiz-adv-x="967" 
d="M650 508l32 -88.5l27.5 -73l27.5 -68.5t32 -74l40.5 -89.5l53.5 -114.5q2 1 9 17t16 39.5l19 51.5l18 52.5t12.5 43t2.5 22.5q-89 187 -153 340.5t-106.5 271.5t-66.5 199.5t-34 124.5q-16 67 -46 68.5t-52 -63.5l-69 -203.5t-64 -175t-65 -154.5t-71.5 -143.5
t-84.5 -140t-103 -144.5q0 -20 0.5 -46t1.5 -54.5l2 -55.5t2 -48q52 46 95 105t79 124.5t66 134t55 133.5q19 3 54 4.5t74.5 2.5t80 1.5t72.5 0.5h43zM611 614h-58q-34 0 -69.5 0.5l-68 1t-50.5 -0.5l40 112l31 92l28 84.5t32 88.5q11 -44 24 -90t26.5 -89l26 -81l21.5 -65
q10 -28 15.5 -40t1.5 -13z" />
    <glyph glyph-name="B" unicode="B" horiz-adv-x="886" 
d="M859 399q2 61 -26.5 111t-75 87.5t-104 62.5t-112.5 36l76.5 62t74.5 74t56 85t22 96q0 66 -33 111.5t-86.5 73t-120.5 39.5t-134 12t-127.5 -10.5t-101.5 -26.5q-36 -51 -58 -95t-34 -84q-3 -95 -4.5 -198t-3.5 -209t-4.5 -213t-7.5 -212q0 -25 -6 -45t-17 -45
q-12 -29 -3 -48t31.5 -31t55 -18.5t68 -9t69.5 -3t61 -1.5q54 -2 115.5 9t121.5 33.5t115.5 57t98 79.5t68 100.5t26.5 119.5zM144 145q5 6 8.5 39t6 79.5t4.5 100t3.5 100t3 79.5t3.5 40q37 7 93 4.5t118 -15t124.5 -36t113 -59t82.5 -84t33 -111.5q1 -27 -18 -49.5
t-53 -39.5t-79 -30t-95 -21q-67 -10 -134 -12q-66 -2 -124.5 1t-89.5 14zM185 1068q9 7 33.5 13t58 9t73.5 2t79 -7q40 -6 78 -20t68 -37.5t50 -57t25 -78.5q-3 -32 -33.5 -56t-76 -41t-101 -29t-107 -20t-94 -13t-63.5 -9q0 14 0.5 41t2 59.5t2.5 69t2.5 70t2 61t0.5 43.5z
" />
    <glyph glyph-name="C" unicode="C" horiz-adv-x="898" 
d="M109 515q0 54 15.5 113t45.5 116.5t71 110t90.5 93t106.5 65t117 26.5q24 1 50.5 -5t47.5 -20.5t36.5 -35.5t23.5 -47q10 -45 23 -47.5t30 44.5q4 25 9.5 44l9.5 33t7 25.5t3 24.5q0 39 -17 69.5t-45 52.5t-63.5 33t-70.5 9q-80 -5 -153.5 -43t-137.5 -99.5t-116 -141
t-88.5 -165.5t-56 -173.5t-19.5 -165.5q-3 -96 22 -173t71.5 -130t109.5 -84.5t133 -40t146 6.5t147 54q74 40 127.5 106t81.5 157q7 29 7 39q0 13 -6 13.5t-17.5 -8.5t-25.5 -26q-47 -52 -108 -89.5t-131 -55.5q-56 -15 -113.5 -14t-110.5 14.5t-99.5 40t-80 66.5t-53 92
t-19.5 116z" />
    <glyph glyph-name="D" unicode="D" horiz-adv-x="953" 
d="M927 642q0 98 -32.5 185.5t-89 159.5t-133 126.5t-163.5 87t-180.5 40.5t-185.5 -12l-35 -41.5l-34.5 -38.5l-29 -32.5t-18.5 -24.5v-498q0 -250 2 -506q0 -23 10.5 -44.5t37.5 -27.5q96 -21 197 -13t196 41.5t179.5 91t147 134t98 170.5t33.5 202zM158 1083
q70 15 140.5 5.5t136.5 -38.5t126 -75t107.5 -103.5t81 -124.5t47 -137.5t4.5 -143t-45 -140.5q-56 -66 -132.5 -107.5t-162.5 -66.5t-175 -37t-170 -19q5 3 10.5 13.5t10.5 24t8.5 28t3.5 26.5q4 54 5 128t0.5 156.5t-2 169.5t-1.5 168q0 82 1 152t6 121z" />
    <glyph glyph-name="E" unicode="E" horiz-adv-x="1149" 
d="M270 1197q-44 -4 -75.5 -22.5t-55.5 -46t-42 -61l-36 -67.5q-36 -73 -34.5 -89.5t46.5 40.5q17 27 46 46t64.5 31t76 18.5t80 10t75.5 5t63 3.5l-41 -38t-22.5 -22.5t-9.5 -13t-3 -8.5l-20 -303h-50l-124 -127h168l-39 -550q0 -1 24 -1.5t66 -0.5q40 0 96 0.5t116 1.5
l119.5 2t108.5 2t81.5 1.5t38.5 0.5l63 69l62 70l-635 8l30 399q19 1 50.5 2t70 1.5t79.5 1.5t79 1.5t68.5 1.5t48.5 2l111 108q-125 7 -248 5.5t-249 1.5q8 100 12.5 161.5t6.5 96.5t2.5 50.5t1 25t1.5 19.5t4 34l461 -2q7 7 15.5 17l22 26.5l33 40.5l47.5 60
q-106 -3 -213 -0.5t-214 4.5t-214 -0.5t-213 -15.5z" />
    <glyph glyph-name="F" unicode="F" horiz-adv-x="1159" 
d="M351 9q10 10 29 32l38 45l35 43l22 27q0 9 1.5 28.5t5.5 63l11 118.5t17 195q25 0 76 1.5t108 1.5h141h54q4 0 9 1.5t17.5 12t37 33.5l67.5 65q-21 1 -57.5 1.5t-82.5 0.5t-97 0.5l-99.5 1t-91 1.5t-71.5 3l31 381q117 6 231.5 2t232.5 -2q15 13 31 31.5t31.5 38.5
t29.5 40t26 35q-102 1 -212.5 4.5t-221.5 5t-217.5 -2t-200.5 -16.5q-49 -7 -83.5 -29t-61 -54t-47.5 -71.5l-43 -81.5q-22 -45 -17 -54t35 27q4 7 13 18.5t19.5 22.5t21 19.5t19.5 10.5q42 19 86.5 30.5t88.5 17.5t87 8t83 2q0 -5 -10.5 -15t-23.5 -20.5t-24.5 -21
t-12.5 -17.5l-24 -309h-50l-126 -128h168l-19 -238.5l-13.5 -162t-8 -96.5t-2.5 -42q-2 -11 0.5 -15t13.5 7z" />
    <glyph glyph-name="G" unicode="G" horiz-adv-x="1118" 
d="M591 540q-24 -38 -44 -62.5t-33 -47.5q-6 -9 -9 -16t-1.5 -12.5t9 -8t24.5 -2.5q15 0 35.5 1t49 2t67 0.5t88.5 -3.5q-46 -82 -113.5 -134t-142.5 -73.5t-149.5 -12t-133.5 50t-95 113t-34 177.5q1 74 30 146t76 133t108 108.5t125.5 74t129 28t118.5 -29.5t93 -97.5
t53 -176.5q1 -18 10 -9.5t22 30.5t28.5 52t30.5 55q-2 70 -22 133t-57.5 109.5t-92 72.5t-126.5 21q-92 -6 -172 -43t-147 -95.5t-120 -133.5t-90.5 -157.5t-58 -167.5t-22.5 -163q0 -78 20 -150.5t61.5 -128.5t105 -90t150.5 -34q88 0 159 30.5t127 82.5t99.5 121.5
t77.5 146.5q3 2 14.5 3.5t27 1t32.5 -2.5t31 -6t23 -10.5t8 -16.5q-6 -35 -15 -67t-20 -66l-23 -71.5t-24 -84.5q-6 -21 -7 -29t2 -6.5t10.5 9t17.5 16.5q75 140 121.5 244t64.5 157q8 29 -1 50.5t-43 26.5q-123 15 -233.5 14.5t-219.5 -2.5z" />
    <glyph glyph-name="H" unicode="H" horiz-adv-x="1040" 
d="M809 0l136 132q-1 3 0.5 19t4.5 57.5t9 115.5t14 193t18.5 290t23.5 408l-37 -27.5l-45.5 -35l-40.5 -30.5t-21 -15l-22 -416q-19 0 -55 0.5t-80.5 1.5t-93.5 1.5t-94.5 1.5t-83 1.5t-59.5 0.5l30 528l-145 -105l-24 -422h-95l-124 -123q16 -1 46 -1.5l62 -1t60 -1
t42 -2.5l-27 -558h3l130 133l33 426h417l55 57z" />
    <glyph glyph-name="I" unicode="I" horiz-adv-x="359" 
d="M209 139l75 1082l-145 -105q-3 -51 -8.5 -127t-10 -169.5t-11 -198t-12.5 -212l-11.5 -212t-6.5 -120.5q-1 -11 -1.5 -32t-2.5 -44l67.5 69t66.5 69z" />
    <glyph glyph-name="J" unicode="J" horiz-adv-x="969" 
d="M308 -1q58 0 108 22t91.5 59.5t74.5 87.5t56.5 106t37.5 115t18 114q-4 305 0 453t9 148q32 2 64 3.5t63 4.5q2 4 18 19.5l35.5 35l37.5 38.5t23 28q-65 0 -126.5 0.5l-121.5 1l-120 1t-122 0.5h-172q-48 0 -79.5 -11t-55.5 -33t-44 -53.5l-44 -71.5q-23 -39 -14.5 -46.5
t39.5 20.5l34 23.5t40 19.5q55 10 120 15.5t130 7.5t127.5 1.5t113.5 -2.5q-33 -69 -44.5 -143t-11.5 -149q0 -56 4 -118.5t6 -127t-0.5 -129.5t-15.5 -126q-17 -36 -41.5 -61.5t-53.5 -41.5t-61 -23t-64 -7q-72 0 -129 27.5t-91 74.5t-41 110t21 134q16 33 21 52.5t0.5 24
t-18 -8t-34.5 -43.5q-36 -55 -53.5 -117.5t-17 -124t19 -117.5t54 -99t88 -68.5t121.5 -25.5z" />
    <glyph glyph-name="K" unicode="K" horiz-adv-x="1028" 
d="M191 652l36 584l-51 -37.5l-36.5 -27.5l-29 -22.5l-29.5 -22.5q-2 -128 -8 -270.5t-14.5 -289l-17.5 -291t-16 -276.5l132 138l28 363q55 7 101.5 -18.5t87.5 -70t78.5 -101.5l74.5 -112.5t75.5 -103t81.5 -72.5q37 -21 80 -22t84.5 12.5t77.5 39.5t60 58
q21 33 15.5 36.5t-42.5 -15.5q-41 -11 -78 -4.5t-70.5 24.5t-63 45.5t-56 58.5t-49.5 63.5l-43 60.5l-63.5 90.5t-54.5 73t-58 59t-74 47.5l77 66l62.5 51l54.5 43l53.5 42.5t58 50l69.5 64.5q53 48 89.5 100.5t68.5 118.5q8 20 9.5 27.5t-1.5 6.5t-9.5 -8l-14.5 -15
q-84 -84 -175 -159.5l-180 -143.5l-171.5 -128t-148.5 -113z" />
    <glyph glyph-name="L" unicode="L" horiz-adv-x="934" 
d="M164 140l26 1077l-149 -106l-16 -1105q94 -3 177 -4t171.5 -1.5t189.5 -0.5h231l57.5 67.5l57.5 68.5q-104 3 -196 3q-91 0 -179 -0.5t-178 -0.5t-192 2z" />
    <glyph glyph-name="M" unicode="M" horiz-adv-x="1042" 
d="M859 2l31.5 48.5l33.5 50.5l27.5 42.5t13.5 24.5l5.5 172t5 145t4 121t3.5 101q3 76 5 134t5 109t8 99.5t14 105.5q3 36 0.5 50.5t-10.5 12.5t-21 -19t-31 -44q-18 -28 -35 -72t-39 -94.5t-51 -102t-70 -93t-96.5 -68t-130.5 -27.5q-87 18 -147.5 72t-99.5 128
t-58.5 159.5t-25.5 166.5q-1 9 -5.5 12t-10.5 -4q-16 -12 -36 -44t-39 -66.5t-33.5 -64t-18.5 -35.5q-4 -87 -7 -160t-5 -142l-4 -140.5t-4 -155t-5 -185l-7 -231.5q28 36 61.5 74t57.5 72l28 613l63 -86t73 -76.5t87.5 -53.5t104.5 -17q68 4 122.5 35.5t99 79t81.5 106
l70 115.5q-5 -109 -9.5 -221.5t-8 -223l-7 -217l-6.5 -204.5q0 -10 5 -12t12 10z" />
    <glyph glyph-name="N" unicode="N" horiz-adv-x="978" 
d="M192 871l95.5 -136l114 -161.5l120 -170l114.5 -161.5l97 -136.5l68 -95.5q4 3 11.5 9.5t19.5 19l30.5 32.5l46.5 50l44 1085l-72 -54t-73 -54l-2.5 -91t-4 -125.5t-4.5 -148.5t-4.5 -159t-4 -157t-2.5 -143l-155 209.5l-114.5 157.5l-83 118l-61.5 89.5l-49.5 73
l-47 68.5l-53.5 76l-70 96q-24 -19 -45 -40.5t-44 -41.5l-38 -1077l67 61l65 62q1 7 2 21.5t2.5 45.5t3.5 82t5.5 131.5l8.5 194.5t13 270z" />
    <glyph glyph-name="O" unicode="O" horiz-adv-x="902" 
d="M530 1160q-72 2 -135.5 -24t-117.5 -72t-97.5 -108t-76 -130.5t-52 -140.5t-26.5 -137q-6 -58 -2 -120t20 -121.5t44 -114t69 -96t96.5 -67t126.5 -27.5q86 3 158 40t129.5 97t100 137t69 159.5t38 164.5t5.5 152q-2 71 -28 142.5t-71.5 129.5t-109 95.5t-140.5 40.5z
M399 193q-59 2 -106.5 23t-84 55.5t-61.5 80.5t-39.5 97t-18 104.5t4.5 104.5q11 71 45 133t85.5 107.5t117.5 71t142 22.5q89 -3 152 -41t103.5 -97t61 -132.5t25.5 -149.5v-3q-17 -82 -60 -152t-101.5 -120.5t-127.5 -78t-138 -25.5z" />
    <glyph glyph-name="P" unicode="P" horiz-adv-x="999" 
d="M376 1134l-51 -105l-49 -1032l73 68t38 36t14 15t2 5q1 9 3 25t5 56.5l8.5 114.5l14.5 199q69 24 143 54.5t142 71.5t124.5 94.5t91.5 122.5q39 76 38 138t-29.5 111t-79.5 85t-112.5 59.5t-128 35t-126.5 11.5q-100 0 -199 -19t-190 -64q-17 -18 -32.5 -48t-29.5 -61
q-4 -9 -11 -21t-9 -21t4.5 -11t29.5 9q75 42 153 58t163 13zM840 886q-9 -45 -33 -79.5t-57.5 -60.5t-73.5 -44.5t-81.5 -32t-82 -23l-73.5 -17.5l23 509q39 0 82 -5.5t85 -18t80 -32.5t67.5 -48t46.5 -64.5t17 -83.5z" />
    <glyph glyph-name="Q" unicode="Q" horiz-adv-x="1100" 
d="M635 97q17 -59 47.5 -89t69 -38t81.5 2t84.5 30.5t78.5 48.5t64 56q12 12 14 18t-2 7t-12 -1.5t-16 -6.5q-33 -10 -66.5 -18t-68.5 -8t-60 12t-41 33t-22.5 49.5t-5.5 62.5q35 51 67 111.5t55.5 127t36.5 136.5t10 139.5t-24.5 136.5t-65.5 126q-24 32 -52 60.5t-60.5 50
t-70 34t-79.5 12.5q-76 0 -147.5 -36.5t-135 -97t-116.5 -139.5t-91.5 -163.5t-60 -169.5t-21.5 -158q0 -77 23.5 -152.5t68.5 -135.5t111 -97.5t151 -37.5q70 0 134.5 26.5t118.5 68.5h3zM113 525q0 51 18.5 106.5t51 109t76 101t93.5 83.5t104 56t106 18q69 -2 118.5 -29
t84 -71t56 -102t34.5 -122q5 -93 -13.5 -170.5t-74.5 -144.5q-4 25 -14.5 49.5t-26.5 43.5t-38.5 30.5t-50.5 10.5q-30 1 -56.5 -13t-50.5 -36t-45.5 -47.5l-40.5 -47.5q-13 -14 -15 -24.5t3.5 -15t16.5 -2t23 14.5q25 24 53 27t50.5 -10.5t36 -40t9.5 -62.5
q-64 -32 -126 -42.5t-117.5 -1.5t-103.5 35.5t-83 69.5t-55.5 100t-22.5 127z" />
    <glyph glyph-name="R" unicode="R" horiz-adv-x="1204" 
d="M376 122q8 100 15 205t16 204q77 6 125 -13.5t77 -55.5t43.5 -84t24.5 -99.5l20 -101t30.5 -88.5t56.5 -63t97 -24q41 0 78 11t70.5 30t64.5 43t59 50q33 33 25 35t-42 -16q-25 -11 -54 -22t-58.5 -15.5t-58.5 0.5t-54 26q-30 25 -43.5 64.5t-21 86t-14.5 96.5t-24 95.5
t-49 83t-90 59.5v3q52 28 105.5 69t95.5 89.5t68 103t24 110.5q-3 65 -33.5 115t-79.5 86.5t-113 59.5t-135 35t-144 13t-140 -7.5t-124.5 -25.5t-96.5 -41q-18 -34 -33.5 -67.5l-32.5 -71.5q-3 -8 -4 -14.5t2 -10t10 -3t21 6.5q64 35 141.5 53.5t164.5 14.5l-56 -104
l-17 -315.5t-12 -208.5t-7.5 -128t-4.5 -75l-3.5 -49.5l-3.5 -50t-5 -78l-8 -133.5q35 25 68 56t60 61zM415 643l31 510q40 -1 83.5 -8t86 -21t80.5 -35t67 -50.5t45.5 -67t15.5 -83.5t-22.5 -81t-55.5 -60.5t-77.5 -43t-88.5 -29.5t-88 -19t-77 -12z" />
    <glyph glyph-name="S" unicode="S" horiz-adv-x="920" 
d="M880 1063q0 43 -23.5 82t-59.5 68.5t-79.5 47t-83.5 17.5q-51 0 -108 -19t-113 -51.5t-107 -76.5t-91.5 -94.5t-66 -105.5t-29.5 -109q-2 -29 8.5 -58.5t40 -62t82 -70.5t134.5 -84q86 -45 151 -88t109 -80.5t68 -67t28 -47.5q-22 -29 -72 -54.5t-113.5 -42.5t-133.5 -23
t-133 3t-111.5 36.5t-68.5 77.5q-8 21 -12.5 40t-10 25.5t-14 -4.5t-23.5 -50q-30 -76 -21.5 -127.5t43 -83t87.5 -46t112 -16t118 8t105 25.5q29 9 65.5 27t74.5 43t74 55.5t63.5 64t43.5 68.5t14 70q-4 47 -32.5 87t-68 73t-84 60l-80.5 48l-165.5 96.5t-111.5 74.5
t-63 59.5t-20 50.5q34 37 78 73.5t93.5 66t102.5 47.5t105 18q41 0 75 -14.5t61.5 -38.5t49.5 -55t38 -64q13 -30 25 -27.5t19 33.5q7 30 16.5 57.5t14.5 56.5z" />
    <glyph glyph-name="T" unicode="T" horiz-adv-x="1095" 
d="M612 128l23 260l18 205l13.5 156l9.5 114l6.5 82t4 55.5l2.5 37.5t3 29h127q62 0 128 -4q29 28 61.5 69t61.5 74q-7 0 -39 1t-76.5 2t-94.5 2t-94 2t-75.5 1.5t-37.5 0.5q-23 0 -58.5 -0.5t-77 -2t-87 -4.5t-88 -7.5t-80 -10.5t-63.5 -15q-23 -8 -41 -22t-35.5 -37
t-36.5 -57t-43 -81q-15 -28 -17 -40t5 -12t19 11t26 31l15.5 13.5l20 17.5t21.5 17t21 12q30 10 73.5 17t92.5 11t99 6.5t92.5 3.5t73.5 1h42q-5 -9 -17 -19.5l-24.5 -21t-22 -20.5t-9.5 -18l-78 -989l73 63t63 66z" />
    <glyph glyph-name="U" unicode="U" horiz-adv-x="918" 
d="M171 607l39 602l-68 -56.5l-68 -58.5q0 9 -1 3.5t-3 -32t-5 -77.5t-8.5 -135l-13 -204l-17.5 -283q-2 -69 8.5 -135.5t39 -118t77.5 -83t125 -29.5q103 6 187.5 41.5t151 93.5t116 133.5t83 161t52 178t23.5 182.5q3 45 3.5 98t0.5 105q0 54 -0.5 103t-1 83t-1.5 50t-2 4
q-36 -27 -69 -56.5t-62 -61.5q-5 -38 -5 -98v-133q0 -72 -5 -152.5t-18.5 -160t-39 -152.5t-66.5 -130.5t-100 -94.5t-140 -44q-62 -1 -103 20t-65.5 56.5t-35.5 82t-14 97.5t0 103t6 98z" />
    <glyph glyph-name="V" unicode="V" horiz-adv-x="996" 
d="M472 271l-109.5 314.5l-84 239.5l-64 175.5t-48.5 122t-37 78.5t-30 46q-10 -22 -20.5 -47.5l-21 -51t-19 -48.5t-13.5 -39q4 -13 26 -67.5l55 -135l73 -181l80 -206.5l76 -210t61 -192q6 -23 17.5 -41.5t25.5 -22t31 11.5t34 58l74 187l69 162l68.5 150l73 151
l83.5 165.5l99 193.5q-3 41 -5 75.5l-4 66.5q0 13 -2.5 18t-13.5 -12q-11 -16 -24.5 -38t-36 -62.5t-55.5 -105.5l-82 -166.5l-117 -245.5z" />
    <glyph glyph-name="W" unicode="W" horiz-adv-x="961" 
d="M25 24q6 -26 21 -23t33.5 21.5t38 46t34.5 52.5q63 109 125 198l109 161q13 -24 30 -67l38 -94.5t46.5 -105.5t55 -99t64 -75.5t74.5 -34.5q4 -2 10.5 0t23 15t47 40.5t82.5 78.5l79 1094l-21 -18.5l-28 -25.5l-30 -28.5t-26 -26.5q-6 -5 -11 -10l-9 -9q-8 -8 -15 -124
q-4 -59 -9 -145.5l-12 -203.5q-8 -117 -14.5 -232.5l-13.5 -233.5l-34 37.5t-32 39t-33.5 52t-38.5 77.5t-47.5 113.5t-60.5 161.5q-10 28 -17.5 44t-16 18t-20.5 -9.5t-30 -38.5l-30.5 -46l-50 -73l-73 -106l-100.5 -145l46 931q-16 -11 -34.5 -27l-37.5 -33l-37.5 -34
t-33.5 -29v-12q0 -8 -1 -27.5t-2 -53.5t-3.5 -89t-5.5 -134l-7 -188.5l-9.5 -253z" />
    <glyph glyph-name="X" unicode="X" horiz-adv-x="1142" 
d="M1022 1049q7 6 14.5 19t15.5 30l15.5 34.5l13.5 32.5q11 28 2.5 34.5t-35.5 0.5q-39 -22 -69 -45t-56.5 -50.5t-52.5 -62.5l-57 -80.5l-68.5 -104.5l-87.5 -136q-26 43 -52 94.5t-55 103.5t-63 102t-75.5 90.5t-91.5 68.5t-113 36q-24 4 -39.5 -15t-26 -48.5t-16.5 -63.5
l-11 -60q43 6 78 -0.5t64 -22.5t52.5 -39t44.5 -50q28 -35 59 -78.5t60.5 -91t55 -96t42.5 -91.5l-82.5 -122.5t-114 -145.5t-144.5 -142.5t-174 -114.5q-34 -14 -29 -22t38 -10q69 -3 127.5 17t109 56t94 84t81.5 102t71.5 110l64.5 107q21 -34 36 -65l29.5 -61.5l30 -63
t36.5 -68.5q13 -23 34.5 -57t48 -67.5t58 -59.5t65.5 -33q28 -6 52.5 4t44.5 31t36 50t29 61q4 12 4 17t-3 5.5t-7.5 -2.5t-9.5 -6q-35 -26 -75.5 -6.5t-82 65t-80.5 108.5t-71.5 123.5t-56 109l-32.5 66.5q2 0 17.5 28l40 70l56.5 92.5t67.5 97t72 82.5t70.5 49z" />
    <glyph glyph-name="Y" unicode="Y" horiz-adv-x="998" 
d="M413 573q3 -68 -4 -138.5t-17.5 -142t-22.5 -143.5t-19 -142q-1 -9 1.5 -8t7.5 5q22 19 40.5 33l35 27.5t34 29.5t38.5 38l29.5 177t20.5 125.5t12.5 84t6.5 52.5q3 10 6.5 24l7 28t7.5 25t7 15l103 150.5l77 114l58 92l48 83t46.5 88.5l53.5 109q8 29 -2 30.5t-30 -12.5
q-33 -25 -59.5 -47l-57.5 -47l-51.5 -99l-34.5 -65.5l-28.5 -51t-34.5 -56l-52.5 -80.5l-81.5 -124q-21 32 -43 82.5l-45.5 109l-49.5 119.5t-54 114t-59 92.5t-65 55.5q-29 9 -56.5 -7.5t-53 -45t-48.5 -63l-41 -61.5q-9 -14 -14 -24.5t-4 -15t8.5 -1.5t21.5 16
q24 21 45 25.5t39 -2.5t33 -22t27 -33l24.5 -37t40.5 -64t48 -86t46 -101.5t36.5 -111t18.5 -114.5z" />
    <glyph glyph-name="Z" unicode="Z" horiz-adv-x="1216" 
d="M1167 135q-134 21 -251.5 25.5t-233 3.5t-238 -3.5t-266.5 4.5q9 7 35 34.5l69 73.5l104 108.5l142 140.5q13 0 39 0.5t57 0.5q32 0 64.5 1t59 2t42 2.5t12.5 3.5q27 17 56.5 39l58.5 42q-30 1 -67 1h-73t-73.5 0.5t-66.5 1.5l158 139.5l144.5 119.5l111 89.5t59.5 49.5
l29 36t21 34.5t-2 26t-41 10.5q-132 3 -228.5 6t-167 5t-119 3.5t-85.5 2.5t-65.5 1.5t-59.5 0.5q-30 0 -66 -0.5t-88 -1.5q-11 -1 -25 -16.5t-28.5 -38t-28.5 -49t-25 -49.5q-23 -44 26 -30q42 13 104 20.5t135 10.5t151 2.5t151.5 -3t137 -5.5l107.5 -5l-163.5 -147.5
l-109 -97l-72 -62.5l-53.5 -45q-14 -1 -37 -1.5t-50 -0.5h-54q-26 0 -46.5 -0.5t-31.5 -1t-6 -1.5l-36.5 -29l-36.5 -31l-31 -27t-20 -18q-8 -4 -8.5 -4.5t8.5 -0.5h9t30.5 1.5t70.5 5l128 9.5q-54 -48 -110 -103.5t-108.5 -113t-97.5 -116t-75 -113.5q-10 -18 -14.5 -29
t-1 -17t18 -8.5t42.5 -2.5q249 -3 492.5 -5.5t484.5 -15.5q26 26 55 51t56 51q19 19 14 25t-23 8z" />
    <glyph glyph-name="sf269.002" unicode="&#x6d3;" horiz-adv-x="2203" 
d="M496 97q-33 3 -69 7.5t-70 13.5t-65 24.5t-55 42.5q-4 4 -6.5 9t1.5 9q15 17 28.5 28.5t27.5 19.5t29.5 13t36 8.5t47 6.5l61.5 7q54 8 107 31t100.5 56t87 72.5t66.5 81.5q5 7 10.5 19t12.5 22.5t16 18t20 7.5q7 0 13.5 -8.5t15.5 -34t22 -70l33 -116.5q5 -4 14 8
t19.5 32t21.5 44.5t19.5 46.5t14 38.5t5.5 21.5l-28 90l-18.5 59t-12 35.5t-7.5 20t-5.5 11.5t-6.5 11q-23 17 -47 11.5t-44 -35.5q-29 -53 -59 -93t-64.5 -71t-75 -55t-91.5 -45l-75.5 -28.5l-79 -30.5t-76 -37t-66.5 -49q-8 -7 -27.5 -25.5t-49.5 -51.5t-68.5 -81.5
t-83.5 -114.5q-5 -7 -5 -14q0 -6 2.5 -11.5t6 -10.5l6.5 -9q17 -23 39.5 -37t48 -23t52.5 -14.5t52 -11.5q38 -7 102.5 -11t147.5 -5t180.5 1t202 5.5t212.5 9t210.5 12t197 13.5t172.5 13.5t135.5 12t86.5 9.5q7 4 8 5l35.5 23l41.5 26l41.5 26.5t38 27.5t29 26.5
t15.5 23.5q-19 -1 -39.5 -4t-41 -7t-41 -7.5t-39.5 -5.5l-274.5 -15.5l-210.5 -11.5l-159.5 -8.5t-122 -5.5t-98 -3t-88.5 -1.5t-92 0t-109 1t-139 1t-183 0.5zM679 1070q-2 -26 13 -43.5t33 -30.5q3 -4 1 -7q-15 -27 -27 -51.5t-16 -53.5q-2 -6 2.5 -5.5t6.5 4.5
q22 32 52.5 52.5t66 35t72.5 25.5t73 23l29.5 44.5t24.5 40.5q3 6 0.5 7t-8.5 -1q-30 -12 -63.5 -23t-66.5 -13q-13 0 -34 3t-42.5 10t-39 19.5t-21.5 30.5q11 12 26 22.5t31.5 14.5t33.5 1t32 -15q9 -9 19 3q5 8 11.5 22t12 27.5t9 25.5t3.5 18q-18 13 -39.5 17t-42.5 1
t-40.5 -13t-33.5 -23q-16 -15 -27 -36t-20 -44t-16.5 -46t-14.5 -42z" />
    <glyph glyph-name="sf256.001" unicode="." horiz-adv-x="316" 
d="M32 146q-5 -8 -6 -13t5 -13q8 -11 25 -27.5t36.5 -33.5t39 -32t32.5 -22q17 -11 27 7q23 31 47 60t46 61q5 6 6 10.5t-4 9.5q-24 25 -60.5 53t-72.5 59q-6 5 -12 5.5t-14 -9.5q-6 -6 -20 -22l-29 -34.5l-28 -35t-18 -23.5z" />
    <glyph glyph-name="sf308.001" unicode="?" horiz-adv-x="706" 
d="M292 34q3 -17 1 -20.5t-6.5 -0.5t-10 10t-9.5 13q-36 72 -54 140t-25 117.5t-7 77.5q0 26 0 19q0 61 10 93.5t32.5 51.5t56.5 33.5t83 39.5q33 16 69 40.5t66.5 57t50 72.5t19.5 87q-20 29 -48 51t-57 37t-58 22.5t-50 8.5q-37 2 -72 -10.5t-61.5 -36t-42 -54.5
t-14.5 -66q0 -11 -3.5 -14.5t-8.5 -3.5q-11 0 -15 11q-9 14 -25 42.5t-30.5 60t-23.5 62.5t-3 50q13 33 34.5 62t48.5 50t59.5 32.5t67.5 11.5q95 0 160.5 -39.5t110.5 -104t72 -145t45 -160.5q2 -82 -26 -140t-75.5 -102t-109.5 -75.5t-128 -61.5q-33 -31 -44 -71t-8.5 -82
t12.5 -85t17 -81zM388 -242q5 -9 6.5 -14.5t-4.5 -12.5q-9 -12 -26.5 -28.5l-37 -34t-39.5 -32.5t-34 -22q-17 -12 -27 7l-48.5 60.5t-47.5 62.5q-4 6 -5 10.5t4 10.5q24 25 61.5 53t74.5 61q6 5 12 5.5t14 -10.5q6 -6 20 -23l29 -35l28.5 -34.5z" />
    <glyph glyph-name="sf333.001" unicode=";" horiz-adv-x="450" 
d="M358 317q-14 36 -42.5 57.5t-61 26.5t-66 -9t-58.5 -48l-33 -64.5t-15 -53.5q0 -8 6 -25.5t14 -34t19 -28.5t21 -12q11 2 21 17.5t19 35l18 38.5t18 26q18 3 30 -7t19 -26t10 -34t3 -33q-2 -37 -13 -71t-28 -65.5t-37 -62l-40 -61.5q-16 -24 -16.5 -33.5t6.5 -9.5
t19.5 7.5t25.5 19.5q39 46 76 102t62 115t33.5 119.5t-10.5 113.5zM347 660q6 9 6.5 14t-5.5 13q-8 12 -25.5 29t-38 35t-41 33.5t-33.5 22.5q-18 11 -28 -7q-24 -33 -49 -63t-47 -63q-6 -6 -7 -11t4 -10q25 -26 63 -55l76 -61q6 -6 12 -6.5t15 10.5q5 6 20 22.5t30.5 35.5
l29 36.5t18.5 24.5z" />
    <glyph glyph-name="sf273.002" unicode="&#x60c;" horiz-adv-x="456" 
d="M50 86q21 -50 60 -79.5t83.5 -36t91 12t79.5 65.5l46 88t21 73q0 13 -8 36.5t-19.5 46.5t-26.5 39.5t-29 16.5q-16 -2 -29 -23.5t-26 -49l-24.5 -52.5t-23.5 -36q-26 -2 -42.5 11.5t-26 35t-13.5 46t-4 44.5q1 52 17 98.5t38.5 89.5t50.5 84.5l55 84.5q22 34 23.5 47.5
t-8.5 13.5q-11 0 -28 -10.5t-34 -26.5q-54 -63 -105.5 -140.5t-86 -159t-45.5 -164t14 -155.5z" />
    <glyph glyph-name="zero" unicode="0" horiz-adv-x="851" 
d="M78 749q47 112 119.5 202.5t160.5 172.5q22 22 38.5 30.5t22.5 4.5t-0.5 -19.5t-30.5 -40.5l-105.5 -120t-91.5 -126t-64.5 -140.5t-24.5 -161.5q0 -69 16.5 -128t51.5 -102.5t88 -68t127 -24.5q55 0 105 16t93.5 45t78.5 69t61 88q17 35 22 79t-1.5 90t-24 90t-45 78
t-65.5 55t-84 21q-51 0 -95.5 -26.5t-73.5 -62.5q-11 -24 -20.5 -32.5t-14.5 -4.5t-4.5 18.5t9.5 36.5q13 44 34.5 87t52 76.5t70 54t90.5 20.5q66 0 114 -33t78.5 -83.5t45.5 -111t15 -116.5q0 -61 -15 -130t-43.5 -138t-70 -132.5t-94 -112.5t-115.5 -78t-136 -29
q-91 0 -153.5 34.5t-101 91t-55.5 129.5t-17 149t14.5 150t38.5 133z" />
    <glyph glyph-name="one" unicode="1" horiz-adv-x="388" 
d="M260 120q-9 -14 -22 -32t-28 -35.5t-32 -32.5t-34 -23l31 402.5l21.5 279l13.5 178l7.5 100t3 44.5t0.5 11l-39.5 -68.5l-34.5 -60.5t-37 -61.5t-47 -69.5q-17 -24 -25.5 -29t-11 1.5t0.5 20t10 27.5l75 142l61.5 112.5l50.5 87.5l41 68q28 40 47.5 49.5t30.5 -0.5
t15.5 -35t3.5 -53l-28.5 -320l-22 -243.5l-16.5 -178l-12 -123t-8.5 -79t-6 -46t-4.5 -23t-4 -10.5z" />
    <glyph glyph-name="two" unicode="2" horiz-adv-x="982" 
d="M246 112q-27 0 -58 -10t-60.5 -26t-54.5 -36t-40 -40q-6 -8 -7 -7t-1 9q11 114 61.5 218.5t124.5 190.5l121.5 126l88 97t59 73t35.5 55.5t18 44.5t5 40q0 62 -21 105.5t-55.5 68.5t-78 31.5t-87.5 -6t-85 -44t-71 -82.5q-15 -24 -32 -48t-27.5 -31.5t-9.5 9t22 72.5
q25 60 59.5 115.5t78.5 98t97.5 67t115.5 22.5q57 -2 101 -26.5t73.5 -64t44.5 -90t15 -102.5q0 -44 -12 -85.5t-32.5 -80t-48 -73.5t-59.5 -65l-158 -163l-107.5 -114.5t-67 -78.5t-37.5 -55q47 39 94.5 50t95 4.5t95 -25.5l95 -38.5t95 -35t94.5 -15.5q53 0 91.5 25.5
t71.5 67.5q27 36 44 50.5t22 10t-2.5 -27.5t-29.5 -62q-28 -39 -62 -78.5t-73.5 -71t-84.5 -51.5t-96 -20q-50 0 -94 16t-86.5 35t-86.5 35t-93 16z" />
    <glyph glyph-name="three" unicode="3" horiz-adv-x="824" 
d="M141 11q-43 -8 -71.5 -11t-34 1t16.5 14.5t80 29.5q36 12 82 29t94 38.5t93 48.5t81 60t57.5 72.5t22.5 85.5q-5 54 -44.5 103.5t-96 84t-120.5 48.5t-118 -2q-21 -6 -30.5 -3.5t-11 11.5t3 21.5t12.5 26.5q34 59 78 107.5t95.5 89t108.5 75t116 65.5q20 14 15.5 19
t-21.5 5q-38 1 -88.5 9t-101 18t-95 18t-71.5 8q-44 0 -80.5 -16.5t-57.5 -55.5q-19 -32 -27 -32t3 33q15 45 32 84.5t41 69t59 46.5t86 17q60 0 120.5 -14.5l123 -29.5t128.5 -22t136 8q40 17 41.5 6t-23.5 -40q-42 -56 -100 -104t-122.5 -93.5l-130.5 -91.5t-122 -97
q59 -2 123 -16.5t119.5 -45.5t94.5 -80t48 -119q2 -72 -20 -132t-61.5 -109t-93.5 -87.5t-115.5 -68t-126.5 -49.5t-127 -33z" />
    <glyph glyph-name="four" unicode="4" horiz-adv-x="868" 
d="M643 487q-4 -59 -9 -113.5t-16 -107.5t-30 -106.5t-50 -110.5q-30 -53 -39 -49t4 51q27 101 30.5 203t-1.5 206q-60 -3 -122.5 0t-125 3.5t-124 -5t-120.5 -25.5q-15 -2 -14.5 5t5.5 16q64 128 140.5 239t153.5 207l149 178t127 151q7 9 19.5 22t23.5 20t18.5 3.5
t5.5 -28.5q-22 -169 -29 -329.5t-2 -325.5q0 -2 16.5 -2.5t40.5 1t52 4t51 6.5l44 11.5t-17 -27.5q-15 -21 -36.5 -36t-45.5 -26.5t-49.5 -19.5zM534 603l7 155.5t5.5 114.5t5 81t4 57t3.5 41l4 33q-49 -49 -103 -109.5t-105.5 -125t-96.5 -129.5t-75 -122q78 5 170 4.5
t181 -0.5z" />
    <glyph glyph-name="five" unicode="5" horiz-adv-x="929" 
d="M164 640q-24 -11 -40 -20t-22.5 -10.5t-3.5 6.5t17 32q10 25 14 57t5.5 66t2 67.5t3.5 62.5q3 33 16.5 75t34.5 81.5t48.5 71.5t58.5 46q46 16 94.5 19.5t97 1t97.5 -7t98 -5t96.5 6.5t93.5 28q26 11 29 4.5t-17 -26.5q-41 -41 -88.5 -69.5t-99.5 -47t-107 -27t-110 -8.5
q-90 0 -139 -0.5t-71.5 -1.5t-26.5 -3t-4 -5q-3 -65 -1 -127t-7 -127q55 14 106.5 21.5t109.5 7.5q55 0 110.5 -15.5t99.5 -47t70.5 -78t23.5 -109.5q-4 -64 -34.5 -122.5t-78 -110.5t-108.5 -96.5t-126 -81t-129 -64.5t-118 -46q-43 -14 -78.5 -24t-49.5 -10q-13 0 3 12.5
t75 43.5q71 37 150 71.5t148.5 76.5t120 97t65.5 135q10 54 -6.5 94.5t-51.5 69t-83 44t-99 20t-101 -2.5t-88 -25z" />
    <glyph glyph-name="six" unicode="6" horiz-adv-x="690" 
d="M435 684q52 0 96 -23t75 -60t46.5 -84t10.5 -96q-9 -99 -42.5 -178t-83.5 -134.5t-113 -85.5t-131 -30q-69 0 -119.5 33.5t-83.5 85.5t-49 114.5t-16 119.5q0 136 37.5 260.5t106.5 231.5t166.5 196t216.5 155q15 10 27.5 14.5t17 2.5t-1.5 -11t-26 -27l-60 -53.5
l-83 -78.5t-85.5 -88t-66.5 -82q-30 -44 -58.5 -102t-50 -122t-31 -130t0 -126.5t41 -111t92.5 -83.5q48 -26 102 -29.5t99.5 13t75 52.5t29.5 89q0 46 -16.5 84.5t-43 66t-61 42.5t-71 14.5t-72 -18t-64.5 -54.5q-19 -25 -27 -26.5t-2 38.5q4 49 21.5 90t46 70.5t67 45.5
t83.5 15z" />
    <glyph glyph-name="seven" unicode="7" horiz-adv-x="908" 
d="M191 8q38 156 99.5 296.5t136.5 281.5q-29 12 -61.5 14t-65.5 -2.5t-63 -14.5t-52 -22q-5 -3 -15 -9.5t-21 -12.5l-20 -10.5t-11 -2.5t5 12.5t28 32.5q69 67 153 101.5t181 32.5l111.5 170.5l65.5 97t32 45t12 14.5q0 2 1.5 3t-1.5 -1q-67 -13 -116 -16.5t-96 -2
t-101.5 7t-132.5 11.5q-52 8 -99.5 -0.5t-85.5 -46.5l-31 -27.5t-16 -11t-0.5 10.5t16.5 38q15 31 33 61.5t41 56.5t51.5 44.5t63.5 26.5q71 9 142.5 1.5t143 -16t142.5 -10.5t142 17q15 5 33 14t30.5 13.5t15.5 -0.5t-12 -27q-20 -21 -46.5 -56.5t-56 -79l-60 -92
l-58 -95.5t-50 -90.5t-36.5 -75.5q28 -6 60 -10.5t66 -5t68.5 3.5t66.5 16q40 14 45 5t-35 -32q-78 -47 -161.5 -67t-174.5 -19q-55 -111 -101 -228.5l-92 -232.5q-3 -5 -19 -23l-34.5 -39l-34 -38t-17.5 -19q-6 -3 -8.5 0t-0.5 8z" />
    <glyph glyph-name="eight" unicode="8" horiz-adv-x="767" 
d="M280 661q-61 47 -100.5 107.5t-51.5 126t7 132t75 126.5q27 32 74 55.5t101.5 36t110.5 11.5t101.5 -18.5t74.5 -54t29 -94.5q0 -61 -20 -112.5t-52.5 -97t-73.5 -85.5t-84 -77v-1q40 -26 87.5 -60t88.5 -75.5t68 -91t27 -106.5q0 -41 -12.5 -89t-34.5 -93.5t-52.5 -84
t-67.5 -60.5q-48 -29 -107 -43t-120 -13t-119 18t-103.5 50t-73 83t-27.5 118q0 64 22.5 119.5t58.5 103.5t81.5 90t92.5 79zM338 615q-34 -17 -73.5 -48t-73 -70t-56 -82.5t-22.5 -84.5q0 -55 29.5 -87.5t74 -49t95 -21t92.5 -4.5q38 0 83.5 6t85.5 18.5t66.5 32.5t26.5 48
q0 40 -16 76t-43 68.5t-61.5 61t-71 53t-72 45.5zM191 1036q1 -40 25 -81.5t58.5 -79t73.5 -69t71 -50.5q3 0 18 7.5t36.5 21t46 33t45 43.5t34 53t13.5 61q0 44 -26.5 73t-67 44.5t-90.5 18.5t-96.5 -5t-84.5 -26t-56 -44z" />
    <glyph glyph-name="nine" unicode="9" horiz-adv-x="691" 
d="M27 789q9 99 42.5 178t83.5 134.5t113 85t131 29.5q69 0 121.5 -33.5t86.5 -85.5t49 -114.5t10 -119.5q-26 -301 -158.5 -511.5t-373.5 -335.5q-15 -8 -25.5 -11t-14 -1t2 10.5t22.5 24.5l63.5 57l108.5 101q41 39 82.5 91.5t76.5 113.5t62 127.5t40 133.5t9.5 133
t-28.5 126q-28 66 -85.5 102t-127.5 36q-45 0 -79.5 -12.5t-59.5 -34t-39.5 -49.5t-19.5 -59q-6 -38 4.5 -74.5t33 -66t55 -50t69 -26.5t75 6t74.5 46q44 42 50.5 38.5t-7.5 -57.5q-11 -40 -28.5 -75.5t-44.5 -62t-63 -42t-83 -15.5q-52 0 -96 22.5t-75 59.5t-46.5 84.5
t-10.5 96.5z" />
    <glyph glyph-name="quotedbl" unicode="&#x22;" horiz-adv-x="268" 
d="M86 1075q22 20 24 67q1 24 1.5 47t0.5 47q0 32 -6.5 67.5t-15.5 64t-19.5 46t-17.5 15.5q-4 0 -8 -9t-7 -20.5t-5.5 -23t-2.5 -16.5q7 -20 14.5 -38.5t15.5 -48t14.5 -76.5t11.5 -122zM212 1081q24 21 24 67q1 24 1.5 47.5t0.5 46.5q0 33 -6.5 68t-15.5 63.5t-19 46
t-18 16.5q-3 0 -7 -9t-7.5 -21t-6 -23t-2.5 -16q7 -21 14.5 -39.5t15 -48t14.5 -76t12 -122.5z" />
    <glyph glyph-name="quotedbl" unicode="&#x201d;" horiz-adv-x="268" 
d="M86 1075q22 20 24 67q1 24 1.5 47t0.5 47q0 32 -6.5 67.5t-15.5 64t-19.5 46t-17.5 15.5q-4 0 -8 -9t-7 -20.5t-5.5 -23t-2.5 -16.5q7 -20 14.5 -38.5t15.5 -48t14.5 -76.5t11.5 -122zM212 1081q24 21 24 67q1 24 1.5 47.5t0.5 46.5q0 33 -6.5 68t-15.5 63.5t-19 46
t-18 16.5q-3 0 -7 -9t-7.5 -21t-6 -23t-2.5 -16q7 -21 14.5 -39.5t15 -48t14.5 -76t12 -122.5z" />
    <glyph glyph-name="sf261.001" unicode="&#x3c;" horiz-adv-x="845" 
d="M793 -1l-743 461l741 461v-123l-547 -340l551 -336z" />
    <glyph glyph-name="sf261.002" unicode="&#x3e;" horiz-adv-x="845" 
d="M52 -1l743 461l-741 461v-123l547 -340l-551 -336z" />
    <glyph glyph-name="quotedblleft" unicode="&#x201c;" horiz-adv-x="0" 
 />
    <glyph glyph-name="glyph250" horiz-adv-x="0" 
 />
    <glyph glyph-name="sf256.002" unicode="d" horiz-adv-x="905" 
d="M478 166q3 -29 9.5 -58.5t20.5 -53t36 -38.5t58 -15q38 0 74 17.5t68 44.5t60.5 59l51.5 60q15 21 15 27q0 5 -4 4t-10 -4t-12 -7t-10 -8q-21 -19 -46 -31t-55 -12q-39 0 -58.5 32t-25.5 74.5t-3 84t7 60.5q14 92 32 198.5l38 217.5l40.5 222l40 212.5l37.5 189.5t33 153
l-179 -147q-11 -6 -13 -22l-112 -629q-51 -3 -100 -9t-99 -22q-84 -28 -147.5 -79.5t-107 -119t-65.5 -146t-22 -158.5q0 -46 11.5 -88t35 -74.5t59.5 -52t86 -19.5q37 0 70 12.5t62 32.5t54.5 45l49.5 50q12 13 14.5 12t5.5 -15zM502 376q-5 -30 -23 -56t-43.5 -44.5
t-56 -29.5t-59.5 -11q-32 0 -60 10.5t-50 29t-36 43.5t-18 54q-11 73 12.5 127t67.5 90t101 54t113 18q48 0 88 -12q0 -1 1.5 -1.5t1.5 -1.5q-9 -69 -19.5 -135.5t-19.5 -134.5z" />
    <glyph glyph-name="a.001" unicode=" " horiz-adv-x="515" 
 />
    <glyph glyph-name="glyph253" 
d="M195 216q-21 -5 -51 -8t-62 -5t-63 -2.5t-54 -0.5v-200q23 -1 54.5 0.5t64.5 5.5t63.5 11t50.5 17l40 85t31 70t20 65.5t7 71.5q1 50 -13 108t-33.5 112.5t-40 100l-32.5 70.5q-2 5 -8 6t-9 -6l-35 -78.5l-35 -77.5q-9 -17 0 -34q12 -36 30.5 -74.5t35.5 -78t28.5 -79.5
t10.5 -79zM14 -463q-3 -46 18.5 -79.5t53 -49t66 -9.5t57.5 40q14 21 18.5 48t1 50t-14 39t-25.5 16q-13 0 -20 -12t-11.5 -27t-9 -27.5t-13.5 -12.5q-30 -1 -42.5 18.5t-14.5 46.5t3.5 54.5t12.5 42.5q21 46 53.5 85t61.5 70q8 9 9 15t-2.5 9t-10.5 2t-15 -7
q-39 -29 -70.5 -66t-54.5 -78t-36 -84.5t-15 -83.5z" />
    <glyph glyph-name="sf337.001" unicode="&#x624;" horiz-adv-x="777" 
d="M316 193q0 -35 16 -68t41.5 -59t59 -42.5t68.5 -16.5q29 1 50.5 10.5t37 24t26 32t18 34.5t12.5 32t9 25q7 -3 12 -13.5t8 -26t4 -34.5t-0.5 -38t-5.5 -37t-10 -30q-9 -21 -32.5 -53.5t-61.5 -70t-90.5 -77.5t-119 -75t-147.5 -63t-177 -41q-27 -3 -30.5 -10.5
t27.5 -17.5q45 -15 91.5 -17.5t92.5 0.5t92 8.5t92 7.5q37 6 72.5 29.5t67.5 58.5t61.5 78.5t54 88.5t44 89t33.5 80q13 38 23 80t13.5 86t0.5 87.5t-13.5 84t-29 76t-46.5 64.5q-41 33 -77.5 44.5t-68 7t-58.5 -22.5t-50 -45.5t-41.5 -61.5t-32 -70t-23 -72t-13.5 -66z
M415 298q22 22 43.5 31t42 8t40 -10.5t37 -25t33 -36t28.5 -43.5q-36 -15 -63 -21t-52 1.5t-50.5 30.5t-58.5 65zM399 859q-2 -26 13 -43.5t33 -30.5q3 -4 1 -7q-15 -27 -27 -51.5t-16 -53.5q-2 -6 2.5 -5.5t6.5 4.5q22 32 52.5 52.5t66 35t72.5 25.5t73 23l29.5 44.5
t24.5 40.5q3 6 0.5 7t-8.5 -1q-30 -12 -63.5 -23t-66.5 -13q-13 0 -34 3t-42.5 10t-39 19.5t-21.5 30.5q11 12 26 22.5t31.5 14.5t33.5 1t32 -15q9 -9 19 3q5 8 11.5 22t12 27.5t9 25.5t3.5 18q-18 13 -39.5 17t-42.5 1t-40.5 -13t-33.5 -23q-16 -15 -27 -36t-20 -44
t-16.5 -46t-14.5 -42z" />
    <glyph glyph-name="sf271.002" unicode="&#x64a;" horiz-adv-x="1293" 
d="M70 -30q0 -81 26 -151t74 -121t115 -80t149 -29q84 0 167 22.5t162 59t153 82t141 91.5q1 0 3.5 2.5l3.5 3.5q8 14 17 35l18.5 44l18.5 45t17 38q3 45 -15.5 67.5t-52.5 34.5t-81 19t-101 21q-32 7 -71 23.5t-72.5 40.5t-55 56t-18.5 70q16 27 45.5 62t66 69t78 62t83 40
t80.5 3.5t70 -47.5q9 -12 18 -31t16 -37t11.5 -31t5.5 -13t3.5 3t10.5 18t22.5 48l40.5 93q4 36 -5.5 69.5t-29.5 59t-50 41.5t-67 17q-53 0 -108.5 -25.5t-108 -67.5t-99 -97t-81.5 -113t-55.5 -116t-20.5 -107q-2 -42 20 -73.5t55.5 -54t73 -36.5t74.5 -20q28 -6 62 -10.5
t68.5 -11t65 -15.5t51.5 -24q-61 -43 -127.5 -81.5t-137 -68t-144.5 -47t-150 -17.5t-139.5 18t-109 55.5t-70.5 96t-25 138.5q0 39 6.5 77t17 75t23.5 73.5l25 72.5q6 20 5.5 28.5t-5.5 8t-12.5 -8t-15.5 -19.5q-30 -52 -54.5 -103t-42 -104t-27.5 -108t-11 -115zM276 -727
l31.5 -26.5t26.5 -20.5l26 -18t31 -19q10 -7 25.5 -13t25.5 6l49 63l50 64q32 -32 62 -58.5t65 -48.5q6 -4 12 -5t15 10l48.5 63.5l49.5 63.5q5 6 3.5 12t-7.5 10q-1 1 -3.5 3l-15 12l-39 31l-74.5 60q-4 3 -9.5 5.5t-13.5 -5.5l-55.5 -67l-29 -35t-11.5 -13t-12.5 1.5
t-28.5 14.5t-35.5 24.5l-35 28t-36.5 28.5q-7 5 -12.5 6t-13.5 -8l-49 -67.5l-49 -67.5q-11 -19 10 -34z" />
    <glyph glyph-name="sf265.002" unicode="&#x6c3;" horiz-adv-x="558" 
d="M3 197q0 -50 18.5 -86.5t50 -61t72 -36.5t85.5 -12q24 0 54.5 6.5t62.5 19.5t62 32.5t51 45.5l49.5 111t28 68t13 35.5t4.5 14.5q1 32 -8.5 70.5t-28 77.5t-43.5 75.5t-54 64t-61.5 44t-64.5 14.5q-41 1 -77.5 -26.5t-67.5 -72t-56.5 -99t-44 -108.5t-30 -100.5
t-15.5 -74.5v-2zM105 333q0 23 11 50t29 50t41.5 38.5t47.5 15.5q36 0 72.5 -25.5t66.5 -63.5t51 -81t26 -79q1 -8 -19.5 -15.5t-47 -13.5t-52.5 -10t-35 -4q-34 0 -68 6t-61.5 21t-44.5 42t-17 69zM33 918l31.5 -26.5t26.5 -20.5l26 -18t31 -19q10 -7 25.5 -13t25.5 6
l49 63l50 64q32 -32 62 -58.5t65 -48.5q6 -4 12 -5t15 10l48.5 63.5l49.5 63.5q5 6 3.5 12t-7.5 10q-1 1 -3.5 3l-15 12l-39 31l-74.5 60q-4 3 -9.5 5.5t-13.5 -5.5l-55.5 -67l-29 -35t-11.5 -13t-12.5 1.5t-28.5 14.5t-35.5 24.5l-35 28t-36.5 28.5q-7 5 -12.5 6t-13.5 -8
l-49 -67.5l-49 -67.5q-11 -19 10 -34z" />
    <glyph glyph-name="sf265.003" unicode="&#x6c2;" horiz-adv-x="558" 
d="M3 197q0 -50 18.5 -86.5t50 -61t72 -36.5t85.5 -12q24 0 54.5 6.5t62.5 19.5t62 32.5t51 45.5l49.5 111t28 68t13 35.5t4.5 14.5q1 32 -8.5 70.5t-28 77.5t-43.5 75.5t-54 64t-61.5 44t-64.5 14.5q-41 1 -77.5 -26.5t-67.5 -72t-56.5 -99t-44 -108.5t-30 -100.5
t-15.5 -74.5v-2zM105 333q0 23 11 50t29 50t41.5 38.5t47.5 15.5q36 0 72.5 -25.5t66.5 -63.5t51 -81t26 -79q1 -8 -19.5 -15.5t-47 -13.5t-52.5 -10t-35 -4q-34 0 -68 6t-61.5 21t-44.5 42t-17 69zM124 1023q-2 -26 13 -43.5t33 -30.5q3 -4 1 -7q-15 -27 -27 -51.5
t-16 -53.5q-2 -6 2.5 -5.5t6.5 4.5q22 32 52.5 52.5t66 35t72.5 25.5t73 23l29.5 44.5t24.5 40.5q3 6 0.5 7t-8.5 -1q-30 -12 -63.5 -23t-66.5 -13q-13 0 -34 3t-42.5 10t-39 19.5t-21.5 30.5q11 12 26 22.5t31.5 14.5t33.5 1t32 -15q9 -9 19 3q5 8 11.5 22t12 27.5t9 25.5
t3.5 18q-18 13 -39.5 17t-42.5 1t-40.5 -13t-33.5 -23q-16 -15 -27 -36t-20 -44t-16.5 -46t-14.5 -42z" />
  </font>
</defs>
</svg>
